<svg width="802" height="144" viewBox="0 0 802 144" fill="none" xmlns="http://www.w3.org/2000/svg">
<g clip-path="url(#clip0_327_558)">
<circle cx="72" cy="72" r="72" fill="white"/>
<path d="M78.1233 56.8183C78.2241 50.5969 82.6296 45.3508 88.6492 44.1737V32C82.495 32.639 76.7781 35.5311 72.5744 40.1719L72.1036 40.7099L71.6328 40.1719C67.4292 35.4974 61.7459 32.639 55.5581 32V44.1737C61.5777 45.3508 65.9831 50.5969 66.084 56.7847V88.0261C65.9831 94.2475 61.5777 99.4937 55.5581 100.671V112.844C61.7122 112.205 67.4292 109.313 71.6328 104.673L72.1036 104.134L72.5744 104.673C76.7781 109.347 82.4614 112.205 88.6492 112.844V100.671C82.6296 99.4937 78.2241 94.2475 78.1233 88.0598V56.8183Z" fill="black"/>
</g>
<path d="M220.222 50.2332H240.353V58.9401C242.344 55.8619 245.028 53.4433 248.405 51.6844C251.782 49.8375 255.764 48.914 260.353 48.914C267.713 48.914 273.73 51.3766 278.406 56.3017C283.168 61.1388 285.549 68.5264 285.549 78.4646V118.833H265.418V82.0265C265.418 77.5411 264.336 73.9353 262.171 71.2089C260.007 68.4825 256.89 67.1193 252.821 67.1193C248.838 67.1193 245.764 68.5264 243.6 71.3408C241.435 74.0672 240.353 77.6291 240.353 82.0265V118.833H220.222V50.2332Z" fill="white"/>
<path d="M297.715 50.2332H317.846V118.833H297.715V50.2332ZM297.715 25.168H317.846V42.9775H297.715V25.168Z" fill="white"/>
<path d="M358.37 119.624C351.789 119.624 346.551 117.865 342.655 114.347C338.759 110.742 336.81 105.201 336.81 97.7252V66.4597H326.81V50.2332H336.81V32.6876H356.941V50.2332H371.097V66.4597H356.941V94.4272C356.941 96.45 357.59 98.165 358.889 99.5721C360.188 100.891 362.222 101.551 364.993 101.551C367.071 101.551 369.192 101.199 371.357 100.496V116.062C370.145 117.294 368.327 118.217 365.902 118.833C363.565 119.36 361.054 119.624 358.37 119.624Z" fill="white"/>
<path d="M380.662 50.2332H400.793V118.833H380.662V50.2332ZM380.662 25.168H400.793V42.9775H380.662V25.168Z" fill="white"/>
<path d="M441.966 120.152C436.598 120.152 431.446 118.789 426.511 116.062C421.576 113.336 417.549 109.29 414.433 103.926C411.316 98.5607 409.757 92.0965 409.757 84.533C409.757 76.9695 411.316 70.5053 414.433 65.1404C417.549 59.7756 421.576 55.73 426.511 53.0036C431.446 50.2772 436.598 48.914 441.966 48.914C445.602 48.914 448.849 49.4857 451.706 50.629C454.65 51.6844 456.988 52.9157 458.72 54.3228C460.451 55.73 461.533 56.9613 461.966 58.0166H462.356V50.2332H482.486V118.833H462.356V111.049H461.966C461.533 112.105 460.451 113.336 458.72 114.743C456.988 116.15 454.65 117.426 451.706 118.569C448.849 119.624 445.602 120.152 441.966 120.152ZM429.628 84.533C429.628 89.8099 431.23 94.0314 434.433 97.1975C437.723 100.364 441.619 101.947 446.122 101.947C450.797 101.947 454.737 100.408 457.94 97.3294C461.23 94.1633 462.876 89.8978 462.876 84.533C462.876 79.1682 461.23 74.9467 457.94 71.8685C454.737 68.7023 450.797 67.1193 446.122 67.1193C441.619 67.1193 437.723 68.7023 434.433 71.8685C431.23 75.0346 429.628 79.2561 429.628 84.533Z" fill="white"/>
<path d="M187.5 50.2332H207.63V118.833H187.5V50.2332ZM187.5 25.168H207.63V42.9775H187.5V25.168Z" fill="white"/>
<path d="M772.139 119.093C765.988 119.093 760.832 117.49 756.674 114.284C752.601 111.078 750.045 106.702 749.006 101.157L755.894 99.2078C756.934 103.367 758.883 106.573 761.742 108.825C764.601 111.078 768.067 112.204 772.139 112.204C776.125 112.204 779.547 111.208 782.407 109.215C785.266 107.136 786.696 104.103 786.696 100.118C786.696 96.9117 785.656 94.3557 783.576 92.4496C781.497 90.4568 778.031 88.4207 773.179 86.3412L767.981 84.2618C757.497 80.0162 752.255 73.8645 752.255 65.8067C752.255 60.868 754.118 56.839 757.843 53.7199C761.569 50.514 766.248 48.9111 771.88 48.9111C776.905 48.9111 781.194 50.2108 784.746 52.8101C788.385 55.3228 790.811 58.7452 792.024 63.0774L785.656 65.1568C783.23 58.8318 778.724 55.6693 772.139 55.6693C768.674 55.6693 765.771 56.5791 763.432 58.3986C761.179 60.1315 760.053 62.6008 760.053 65.8067C760.053 68.406 760.919 70.702 762.652 72.6948C764.385 74.6876 767.201 76.4638 771.1 78.0234L775.649 79.8429C782.233 82.5289 787.042 85.3015 790.075 88.1607C793.107 91.02 794.624 95.0056 794.624 100.118C794.624 106.269 792.414 110.991 787.995 114.284C783.576 117.49 778.291 119.093 772.139 119.093Z" fill="white"/>
<path d="M710.87 119.093C704.978 119.093 699.346 117.706 693.974 114.934C688.689 112.161 684.4 108.132 681.108 102.847C677.815 97.4749 676.169 91.2366 676.169 84.1318C676.169 76.9404 677.815 70.702 681.108 65.4168C684.4 60.0448 688.689 55.9726 693.974 53.2C699.346 50.3408 704.978 48.9111 710.87 48.9111C716.848 48.9111 722.437 50.3841 727.635 53.33C732.834 56.1892 736.863 60.2615 739.722 65.5467L733.484 69.0558C731.231 64.9835 728.112 61.821 724.126 59.5683C720.141 57.3156 715.808 56.1892 711.13 56.1892C706.538 56.1892 702.162 57.3156 698.003 59.5683C693.844 61.7344 690.465 64.9402 687.866 69.1858C685.353 73.4313 684.097 78.4133 684.097 84.1318C684.097 89.8503 685.353 94.789 687.866 98.9479C690.465 103.107 693.844 106.313 698.003 108.565C702.162 110.731 706.538 111.814 711.13 111.814C715.808 111.814 720.141 110.688 724.126 108.435C728.112 106.183 731.231 103.02 733.484 98.9479L739.722 102.457C736.863 107.742 732.834 111.858 727.635 114.804C722.437 117.663 716.848 119.093 710.87 119.093Z" fill="white"/>
<path d="M631.421 119.093C625.443 119.093 619.768 117.706 614.396 114.934C609.111 112.161 604.822 108.132 601.529 102.847C598.237 97.4749 596.591 91.1933 596.591 84.0018C596.591 76.8104 598.237 70.5721 601.529 65.2868C604.822 59.9149 609.111 55.8426 614.396 53.07C619.768 50.2974 625.443 48.9111 631.421 48.9111C637.4 48.9111 643.032 50.2974 648.317 53.07C653.689 55.8426 658.021 59.9149 661.313 65.2868C664.606 70.5721 666.252 76.8104 666.252 84.0018C666.252 91.1933 664.606 97.4749 661.313 102.847C658.021 108.132 653.689 112.161 648.317 114.934C643.032 117.706 637.4 119.093 631.421 119.093ZM604.518 84.0018C604.518 89.7203 605.775 94.7023 608.287 98.9479C610.8 103.107 614.093 106.313 618.165 108.565C622.324 110.731 626.743 111.814 631.421 111.814C636.1 111.814 640.476 110.731 644.548 108.565C648.707 106.313 652.043 103.107 654.555 98.9479C657.068 94.7023 658.324 89.7203 658.324 84.0018C658.324 78.2833 657.068 73.3447 654.555 69.1858C652.043 64.9402 648.707 61.7344 644.548 59.5683C640.476 57.3156 636.1 56.1892 631.421 56.1892C626.743 56.1892 622.324 57.3156 618.165 59.5683C614.093 61.7344 610.8 64.9402 608.287 69.1858C605.775 73.3447 604.518 78.2833 604.518 84.0018Z" fill="white"/>
<path d="M575.554 117.793V103.367H575.165C573.172 107.872 569.706 111.641 564.767 114.674C559.829 117.62 554.283 119.093 548.132 119.093C542.327 119.093 536.868 117.75 531.756 115.064C526.644 112.291 522.485 108.262 519.279 102.977C516.16 97.6918 514.601 91.3668 514.601 84.0021C514.601 76.6373 516.16 70.3124 519.279 65.0271C522.485 59.7418 526.644 55.7562 531.756 53.0703C536.868 50.2977 542.327 48.9114 548.132 48.9114C554.283 48.9114 559.829 50.4276 564.767 53.4602C569.706 56.4061 573.172 60.1317 575.165 64.6372H575.554V25.5176H583.482V117.793H575.554ZM522.528 84.0021C522.528 89.9805 523.785 95.0491 526.297 99.208C528.81 103.367 532.103 106.529 536.175 108.696C540.247 110.775 544.579 111.815 549.171 111.815C553.764 111.815 558.096 110.775 562.168 108.696C566.24 106.529 569.533 103.367 572.045 99.208C574.558 94.9625 575.814 89.8938 575.814 84.0021C575.814 78.1103 574.558 73.085 572.045 68.9261C569.533 64.6805 566.24 61.518 562.168 59.4386C558.096 57.2725 553.764 56.1894 549.171 56.1894C544.579 56.1894 540.247 57.2725 536.175 59.4386C532.103 61.518 528.81 64.6372 526.297 68.7961C523.785 72.955 522.528 78.0236 522.528 84.0021Z" fill="white"/>
<defs>
<clipPath id="clip0_327_558">
<rect width="144" height="144" fill="white"/>
</clipPath>
</defs>
</svg>
