<svg width="1920" height="1174" viewBox="0 0 1920 1174" fill="none" xmlns="http://www.w3.org/2000/svg">
<rect width="1920" height="1174" fill="#F9FBFC"/>
<rect opacity="0.3" x="249" y="355" width="325" height="464" rx="32" fill="#C5C5C5"/>
<rect opacity="0.3" x="1370" y="355" width="325" height="464" rx="32" fill="#C5C5C5"/>
<path d="M42.021 51.47H48.815V82H42.021V51.47ZM52.855 59.64H59.52V62.478C60.1793 61.4747 61.068 60.6863 62.186 60.113C63.304 59.511 64.6227 59.21 66.142 59.21C68.5787 59.21 70.571 60.0127 72.119 61.618C73.6957 63.1947 74.484 65.6027 74.484 68.842V82H67.819V70.003C67.819 68.541 67.4607 67.3657 66.744 66.477C66.0273 65.5883 64.9953 65.144 63.648 65.144C62.3293 65.144 61.3117 65.6027 60.595 66.52C59.8783 67.4087 59.52 68.5697 59.52 70.003V82H52.855V59.64ZM87.2563 82.258C85.0777 82.258 83.3433 81.6847 82.0533 80.538C80.7633 79.3627 80.1183 77.5567 80.1183 75.12V64.929H76.8073V59.64H80.1183V53.921H86.7833V59.64H91.4703V64.929H86.7833V74.045C86.7833 74.7043 86.9983 75.2633 87.4283 75.722C87.8583 76.152 88.532 76.367 89.4493 76.367C90.1373 76.367 90.8397 76.2523 91.5563 76.023V81.097C91.155 81.4983 90.553 81.7993 89.7503 82C88.9763 82.172 88.145 82.258 87.2563 82.258ZM105.134 82.43C103.042 82.43 101.092 81.9713 99.2863 81.054C97.4803 80.1367 96.0326 78.8037 94.9433 77.055C93.8826 75.2777 93.3523 73.2137 93.3523 70.863C93.3523 68.455 93.8826 66.3767 94.9433 64.628C96.0326 62.8507 97.4373 61.5033 99.1573 60.586C100.906 59.6687 102.769 59.21 104.747 59.21C106.582 59.21 108.345 59.6257 110.036 60.457C111.728 61.2597 113.118 62.521 114.207 64.241C115.297 65.961 115.841 68.1253 115.841 70.734C115.841 71.68 115.784 72.5687 115.669 73.4H99.7593C100.218 74.5753 100.963 75.4783 101.995 76.109C103.056 76.711 104.346 77.012 105.865 77.012C107.958 77.012 109.75 76.4387 111.24 75.292L114.25 78.431C113.276 79.635 112 80.6097 110.423 81.355C108.875 82.0717 107.112 82.43 105.134 82.43ZM109.821 68.627C109.592 67.3943 109.004 66.4483 108.058 65.789C107.112 65.1297 106.037 64.8 104.833 64.8C103.629 64.8 102.54 65.1297 101.565 65.789C100.619 66.4197 99.9743 67.3657 99.6303 68.627H109.821ZM118.867 59.64H125.532V65.703C125.933 63.7537 126.707 62.1913 127.854 61.016C129 59.812 130.534 59.21 132.455 59.21C133.057 59.21 133.587 59.2817 134.046 59.425V65.746C133.53 65.66 133.014 65.617 132.498 65.617C130.319 65.617 128.613 66.2763 127.381 67.595C126.148 68.9137 125.532 70.648 125.532 72.798V82H118.867V59.64ZM137.007 59.64H143.672V62.478C144.332 61.4747 145.22 60.6863 146.338 60.113C147.456 59.511 148.775 59.21 150.294 59.21C152.731 59.21 154.723 60.0127 156.271 61.618C157.848 63.1947 158.636 65.6027 158.636 68.842V82H151.971V70.003C151.971 68.541 151.613 67.3657 150.896 66.477C150.18 65.5883 149.148 65.144 147.8 65.144C146.482 65.144 145.464 65.6027 144.747 66.52C144.031 67.4087 143.672 68.5697 143.672 70.003V82H137.007V59.64ZM172.254 82.43C170.476 82.43 168.771 81.9857 167.137 81.097C165.503 80.2083 164.17 78.8897 163.138 77.141C162.106 75.3923 161.59 73.2853 161.59 70.82C161.59 68.3547 162.106 66.2477 163.138 64.499C164.17 62.7503 165.503 61.4317 167.137 60.543C168.771 59.6543 170.476 59.21 172.254 59.21C173.458 59.21 174.533 59.3963 175.479 59.769C176.453 60.113 177.227 60.5143 177.801 60.973C178.374 61.4317 178.732 61.833 178.876 62.177H179.005V59.64H185.67V82H179.005V79.463H178.876C178.732 79.807 178.374 80.2083 177.801 80.667C177.227 81.1257 176.453 81.5413 175.479 81.914C174.533 82.258 173.458 82.43 172.254 82.43ZM168.169 70.82C168.169 72.54 168.699 73.916 169.76 74.948C170.849 75.98 172.139 76.496 173.63 76.496C175.178 76.496 176.482 75.9943 177.543 74.991C178.632 73.959 179.177 72.5687 179.177 70.82C179.177 69.0713 178.632 67.6953 177.543 66.692C176.482 65.66 175.178 65.144 173.63 65.144C172.139 65.144 170.849 65.66 169.76 66.692C168.699 67.724 168.169 69.1 168.169 70.82ZM189.708 51.47H196.373V82H189.708V51.47ZM219.6 72.153H215.902V82H209.108V51.47H220.202C222.352 51.47 224.258 51.9 225.921 52.76C227.584 53.62 228.874 54.8527 229.791 56.458C230.708 58.0633 231.167 59.9267 231.167 62.048C231.167 64.1693 230.694 65.9897 229.748 67.509C228.831 69.0283 227.526 70.1893 225.835 70.992L232.801 82H225.62L219.6 72.153ZM219.514 66.348C222.696 66.348 224.287 64.9147 224.287 62.048C224.287 59.1527 222.696 57.705 219.514 57.705H215.902V66.348H219.514ZM244.632 82.43C242.54 82.43 240.59 81.9713 238.784 81.054C236.978 80.1367 235.531 78.8037 234.441 77.055C233.381 75.2777 232.85 73.2137 232.85 70.863C232.85 68.455 233.381 66.3767 234.441 64.628C235.531 62.8507 236.935 61.5033 238.655 60.586C240.404 59.6687 242.267 59.21 244.245 59.21C246.08 59.21 247.843 59.6257 249.534 60.457C251.226 61.2597 252.616 62.521 253.705 64.241C254.795 65.961 255.339 68.1253 255.339 70.734C255.339 71.68 255.282 72.5687 255.167 73.4H239.257C239.716 74.5753 240.461 75.4783 241.493 76.109C242.554 76.711 243.844 77.012 245.363 77.012C247.456 77.012 249.248 76.4387 250.738 75.292L253.748 78.431C252.774 79.635 251.498 80.6097 249.921 81.355C248.373 82.0717 246.61 82.43 244.632 82.43ZM249.319 68.627C249.09 67.3943 248.502 66.4483 247.556 65.789C246.61 65.1297 245.535 64.8 244.331 64.8C243.127 64.8 242.038 65.1297 241.063 65.789C240.117 66.4197 239.472 67.3657 239.128 68.627H249.319ZM265.03 51.47V62.177H265.159C265.302 61.833 265.66 61.4317 266.234 60.973C266.807 60.5143 267.567 60.113 268.513 59.769C269.487 59.3963 270.577 59.21 271.781 59.21C273.558 59.21 275.264 59.6543 276.898 60.543C278.532 61.4317 279.865 62.7503 280.897 64.499C281.929 66.2477 282.445 68.3547 282.445 70.82C282.445 73.2853 281.929 75.3923 280.897 77.141C279.865 78.8897 278.532 80.2083 276.898 81.097C275.264 81.9857 273.558 82.43 271.781 82.43C270.577 82.43 269.487 82.258 268.513 81.914C267.567 81.5413 266.807 81.1257 266.234 80.667C265.66 80.2083 265.302 79.807 265.159 79.463H265.03V82H258.365V51.47H265.03ZM264.858 70.82C264.858 72.5687 265.388 73.959 266.449 74.991C267.538 75.9943 268.857 76.496 270.405 76.496C271.895 76.496 273.171 75.98 274.232 74.948C275.321 73.916 275.866 72.54 275.866 70.82C275.866 69.1 275.321 67.724 274.232 66.692C273.171 65.66 271.895 65.144 270.405 65.144C268.857 65.144 267.538 65.66 266.449 66.692C265.388 67.6953 264.858 69.0713 264.858 70.82ZM294.997 82.43C293.219 82.43 291.514 81.9857 289.88 81.097C288.246 80.2083 286.913 78.8897 285.881 77.141C284.849 75.3923 284.333 73.2853 284.333 70.82C284.333 68.3547 284.849 66.2477 285.881 64.499C286.913 62.7503 288.246 61.4317 289.88 60.543C291.514 59.6543 293.219 59.21 294.997 59.21C296.201 59.21 297.276 59.3963 298.222 59.769C299.196 60.113 299.97 60.5143 300.544 60.973C301.117 61.4317 301.475 61.833 301.619 62.177H301.748V59.64H308.413V82H301.748V79.463H301.619C301.475 79.807 301.117 80.2083 300.544 80.667C299.97 81.1257 299.196 81.5413 298.222 81.914C297.276 82.258 296.201 82.43 294.997 82.43ZM290.912 70.82C290.912 72.54 291.442 73.916 292.503 74.948C293.592 75.98 294.882 76.496 296.373 76.496C297.921 76.496 299.225 75.9943 300.286 74.991C301.375 73.959 301.92 72.5687 301.92 70.82C301.92 69.0713 301.375 67.6953 300.286 66.692C299.225 65.66 297.921 65.144 296.373 65.144C294.882 65.144 293.592 65.66 292.503 66.692C291.442 67.724 290.912 69.1 290.912 70.82ZM312.451 51.47H319.116V82H312.451V51.47ZM332.748 82.43C330.97 82.43 329.265 81.9857 327.631 81.097C325.997 80.2083 324.664 78.8897 323.632 77.141C322.6 75.3923 322.084 73.2853 322.084 70.82C322.084 68.3547 322.6 66.2477 323.632 64.499C324.664 62.7503 325.997 61.4317 327.631 60.543C329.265 59.6543 330.97 59.21 332.748 59.21C333.952 59.21 335.027 59.3963 335.973 59.769C336.947 60.113 337.721 60.5143 338.295 60.973C338.868 61.4317 339.226 61.833 339.37 62.177H339.499V59.64H346.164V82H339.499V79.463H339.37C339.226 79.807 338.868 80.2083 338.295 80.667C337.721 81.1257 336.947 81.5413 335.973 81.914C335.027 82.258 333.952 82.43 332.748 82.43ZM328.663 70.82C328.663 72.54 329.193 73.916 330.254 74.948C331.343 75.98 332.633 76.496 334.124 76.496C335.672 76.496 336.976 75.9943 338.037 74.991C339.126 73.959 339.671 72.5687 339.671 70.82C339.671 69.0713 339.126 67.6953 338.037 66.692C336.976 65.66 335.672 65.144 334.124 65.144C332.633 65.144 331.343 65.66 330.254 66.692C329.193 67.724 328.663 69.1 328.663 70.82ZM350.202 59.64H356.867V62.478C357.526 61.4747 358.415 60.6863 359.533 60.113C360.651 59.511 361.969 59.21 363.489 59.21C365.925 59.21 367.918 60.0127 369.466 61.618C371.042 63.1947 371.831 65.6027 371.831 68.842V82H365.166V70.003C365.166 68.541 364.807 67.3657 364.091 66.477C363.374 65.5883 362.342 65.144 360.995 65.144C359.676 65.144 358.658 65.6027 357.942 66.52C357.225 67.4087 356.867 68.5697 356.867 70.003V82H350.202V59.64ZM386.695 82.43C384.631 82.43 382.682 81.9857 380.847 81.097C379.041 80.1797 377.579 78.8467 376.461 77.098C375.343 75.3207 374.784 73.2137 374.784 70.777C374.784 68.369 375.343 66.2907 376.461 64.542C377.579 62.7933 379.041 61.4747 380.847 60.586C382.682 59.6687 384.631 59.21 386.695 59.21C388.702 59.21 390.536 59.683 392.199 60.629C393.862 61.5463 395.238 62.908 396.327 64.714L391.511 67.853C390.221 66.1043 388.616 65.23 386.695 65.23C385.204 65.23 383.943 65.746 382.911 66.778C381.879 67.7813 381.363 69.1143 381.363 70.777C381.363 72.4683 381.879 73.83 382.911 74.862C383.943 75.894 385.204 76.41 386.695 76.41C388.616 76.41 390.221 75.5357 391.511 73.787L396.327 76.926C395.238 78.7033 393.862 80.065 392.199 81.011C390.536 81.957 388.702 82.43 386.695 82.43ZM399.291 59.64H405.956V82H399.291V59.64ZM399.291 51.47H405.956V57.275H399.291V51.47ZM409.999 59.64H416.664V62.478C417.323 61.4747 418.212 60.6863 419.33 60.113C420.448 59.511 421.766 59.21 423.286 59.21C425.722 59.21 427.715 60.0127 429.263 61.618C430.839 63.1947 431.628 65.6027 431.628 68.842V82H424.963V70.003C424.963 68.541 424.604 67.3657 423.888 66.477C423.171 65.5883 422.139 65.144 420.792 65.144C419.473 65.144 418.455 65.6027 417.739 66.52C417.022 67.4087 416.664 68.5697 416.664 70.003V82H409.999V59.64ZM446.707 90.944C445.388 90.944 444.141 90.8293 442.966 90.6C441.79 90.3993 440.873 90.0697 440.214 89.611V84.279C440.73 84.623 441.475 84.8953 442.45 85.096C443.453 85.2967 444.456 85.397 445.46 85.397C447.524 85.397 449.129 84.9527 450.276 84.064C451.422 83.204 451.996 82.0717 451.996 80.667V79.463H451.738C451.594 79.807 451.236 80.2083 450.663 80.667C450.118 81.1257 449.373 81.5413 448.427 81.914C447.509 82.258 446.463 82.43 445.288 82.43C443.51 82.43 441.805 81.9857 440.171 81.097C438.537 80.2083 437.189 78.8897 436.129 77.141C435.097 75.3923 434.581 73.2853 434.581 70.82C434.581 68.3547 435.097 66.2477 436.129 64.499C437.189 62.7503 438.537 61.4317 440.171 60.543C441.805 59.6543 443.51 59.21 445.288 59.21C446.463 59.21 447.509 59.3963 448.427 59.769C449.373 60.113 450.118 60.5143 450.663 60.973C451.236 61.4317 451.594 61.833 451.738 62.177H451.996V59.64H458.661V80.108C458.661 84.0927 457.457 86.8877 455.049 88.493C452.669 90.127 449.889 90.944 446.707 90.944ZM441.16 70.82C441.16 72.54 441.69 73.916 442.751 74.948C443.84 75.98 445.144 76.496 446.664 76.496C448.212 76.496 449.516 75.9943 450.577 74.991C451.637 73.959 452.168 72.5687 452.168 70.82C452.168 69.0713 451.637 67.6953 450.577 66.692C449.516 65.66 448.212 65.144 446.664 65.144C445.144 65.144 443.84 65.66 442.751 66.692C441.69 67.724 441.16 69.1 441.16 70.82ZM471.391 51.47H482.571C484.778 51.47 486.713 51.9 488.376 52.76C490.039 53.62 491.329 54.8527 492.246 56.458C493.192 58.0633 493.665 59.9267 493.665 62.048C493.665 64.1407 493.192 65.9897 492.246 67.595C491.329 69.1717 490.024 70.39 488.333 71.25C486.67 72.11 484.75 72.54 482.571 72.54H478.185V82H471.391V51.47ZM481.926 66.305C485.165 66.305 486.785 64.886 486.785 62.048C486.785 59.1527 485.165 57.705 481.926 57.705H478.185V66.305H481.926ZM496.838 59.64H503.503V65.703C503.905 63.7537 504.679 62.1913 505.825 61.016C506.972 59.812 508.506 59.21 510.426 59.21C511.028 59.21 511.559 59.2817 512.017 59.425V65.746C511.501 65.66 510.985 65.617 510.469 65.617C508.291 65.617 506.585 66.2763 505.352 67.595C504.12 68.9137 503.503 70.648 503.503 72.798V82H496.838V59.64ZM525.142 82.43C523.135 82.43 521.215 81.9857 519.38 81.097C517.574 80.1797 516.098 78.8467 514.951 77.098C513.833 75.3493 513.274 73.2567 513.274 70.82C513.274 68.3833 513.833 66.2907 514.951 64.542C516.098 62.7933 517.574 61.4747 519.38 60.586C521.215 59.6687 523.135 59.21 525.142 59.21C527.149 59.21 529.055 59.6687 530.861 60.586C532.696 61.4747 534.172 62.7933 535.29 64.542C536.437 66.2907 537.01 68.3833 537.01 70.82C537.01 73.2567 536.437 75.3493 535.29 77.098C534.172 78.8467 532.696 80.1797 530.861 81.097C529.055 81.9857 527.149 82.43 525.142 82.43ZM519.853 70.82C519.853 72.4827 520.355 73.83 521.358 74.862C522.39 75.894 523.651 76.41 525.142 76.41C526.633 76.41 527.88 75.894 528.883 74.862C529.915 73.83 530.431 72.4827 530.431 70.82C530.431 69.1573 529.915 67.81 528.883 66.778C527.88 65.746 526.633 65.23 525.142 65.23C523.651 65.23 522.39 65.746 521.358 66.778C520.355 67.81 519.853 69.1573 519.853 70.82ZM550.8 82.43C548.736 82.43 546.787 81.9857 544.952 81.097C543.146 80.1797 541.684 78.8467 540.566 77.098C539.448 75.3207 538.889 73.2137 538.889 70.777C538.889 68.369 539.448 66.2907 540.566 64.542C541.684 62.7933 543.146 61.4747 544.952 60.586C546.787 59.6687 548.736 59.21 550.8 59.21C552.807 59.21 554.642 59.683 556.304 60.629C557.967 61.5463 559.343 62.908 560.432 64.714L555.616 67.853C554.326 66.1043 552.721 65.23 550.8 65.23C549.31 65.23 548.048 65.746 547.016 66.778C545.984 67.7813 545.468 69.1143 545.468 70.777C545.468 72.4683 545.984 73.83 547.016 74.862C548.048 75.894 549.31 76.41 550.8 76.41C552.721 76.41 554.326 75.5357 555.616 73.787L560.432 76.926C559.343 78.7033 557.967 80.065 556.304 81.011C554.642 81.957 552.807 82.43 550.8 82.43ZM572.885 82.43C570.793 82.43 568.843 81.9713 567.037 81.054C565.231 80.1367 563.784 78.8037 562.694 77.055C561.634 75.2777 561.103 73.2137 561.103 70.863C561.103 68.455 561.634 66.3767 562.694 64.628C563.784 62.8507 565.188 61.5033 566.908 60.586C568.657 59.6687 570.52 59.21 572.498 59.21C574.333 59.21 576.096 59.6257 577.787 60.457C579.479 61.2597 580.869 62.521 581.958 64.241C583.048 65.961 583.592 68.1253 583.592 70.734C583.592 71.68 583.535 72.5687 583.42 73.4H567.51C567.969 74.5753 568.714 75.4783 569.746 76.109C570.807 76.711 572.097 77.012 573.616 77.012C575.709 77.012 577.501 76.4387 578.991 75.292L582.001 78.431C581.027 79.635 579.751 80.6097 578.174 81.355C576.626 82.0717 574.863 82.43 572.885 82.43ZM577.572 68.627C577.343 67.3943 576.755 66.4483 575.809 65.789C574.863 65.1297 573.788 64.8 572.584 64.8C571.38 64.8 570.291 65.1297 569.316 65.789C568.37 66.4197 567.725 67.3657 567.381 68.627H577.572ZM593.298 82.43C590.976 82.43 589.041 81.8853 587.493 80.796C585.973 79.7067 585.042 78.13 584.698 76.066L589.987 74.647C590.531 76.367 591.606 77.227 593.212 77.227C593.871 77.227 594.416 77.0693 594.846 76.754C595.304 76.4387 595.534 75.98 595.534 75.378C595.534 74.518 594.903 73.8873 593.642 73.486L590.632 72.368C588.854 71.7373 587.521 70.863 586.633 69.745C585.773 68.5983 585.343 67.294 585.343 65.832C585.343 64.4847 585.701 63.3093 586.418 62.306C587.163 61.3027 588.152 60.543 589.385 60.027C590.617 59.4823 591.979 59.21 593.47 59.21C595.562 59.21 597.325 59.7547 598.759 60.844C600.192 61.9333 601.109 63.381 601.511 65.187L596.308 66.477C595.849 65.0723 594.989 64.37 593.728 64.37C593.126 64.37 592.653 64.5277 592.309 64.843C591.965 65.1297 591.793 65.488 591.793 65.918C591.793 66.778 592.438 67.4087 593.728 67.81L596.523 68.842C600.249 70.1033 602.113 72.282 602.113 75.378C602.113 77.5853 601.281 79.3197 599.619 80.581C597.985 81.8137 595.878 82.43 593.298 82.43ZM612.404 82.43C610.082 82.43 608.147 81.8853 606.599 80.796C605.08 79.7067 604.148 78.13 603.804 76.066L609.093 74.647C609.638 76.367 610.713 77.227 612.318 77.227C612.978 77.227 613.522 77.0693 613.952 76.754C614.411 76.4387 614.64 75.98 614.64 75.378C614.64 74.518 614.01 73.8873 612.748 73.486L609.738 72.368C607.961 71.7373 606.628 70.863 605.739 69.745C604.879 68.5983 604.449 67.294 604.449 65.832C604.449 64.4847 604.808 63.3093 605.524 62.306C606.27 61.3027 607.259 60.543 608.491 60.027C609.724 59.4823 611.086 59.21 612.576 59.21C614.669 59.21 616.432 59.7547 617.865 60.844C619.299 61.9333 620.216 63.381 620.617 65.187L615.414 66.477C614.956 65.0723 614.096 64.37 612.834 64.37C612.232 64.37 611.759 64.5277 611.415 64.843C611.071 65.1297 610.899 65.488 610.899 65.918C610.899 66.778 611.544 67.4087 612.834 67.81L615.629 68.842C619.356 70.1033 621.219 72.282 621.219 75.378C621.219 77.5853 620.388 79.3197 618.725 80.581C617.091 81.8137 614.984 82.43 612.404 82.43Z" fill="black"/>
<rect x="725.5" y="754.5" width="525" height="245" rx="58.5" stroke="black" stroke-width="11"/>
<rect x="713" y="742" width="534" height="254" rx="63" fill="white" stroke="black" stroke-width="2"/>
<path d="M893.021 848.47H900.503L909.705 870.357L918.907 848.47H926.389V879H919.595V861.499H919.38L912.199 879H907.211L900.03 861.499H899.815V879H893.021V848.47ZM930.436 856.64H937.101V879H930.436V856.64ZM930.436 848.47H937.101V854.275H930.436V848.47ZM941.144 856.64H947.809V859.478C948.468 858.475 949.357 857.686 950.475 857.113C951.593 856.511 952.912 856.21 954.431 856.21C956.868 856.21 958.86 857.013 960.408 858.618C961.985 860.195 962.773 862.603 962.773 865.842V879H956.108V867.003C956.108 865.541 955.75 864.366 955.033 863.477C954.316 862.588 953.284 862.144 951.937 862.144C950.618 862.144 949.601 862.603 948.884 863.52C948.167 864.409 947.809 865.57 947.809 867.003V879H941.144V856.64ZM966.801 856.64H973.466V879H966.801V856.64ZM966.801 848.47H973.466V854.275H966.801V848.47ZM986.883 879.258C984.705 879.258 982.97 878.685 981.68 877.538C980.39 876.363 979.745 874.557 979.745 872.12V861.929H976.434V856.64H979.745V850.921H986.41V856.64H991.097V861.929H986.41V871.045C986.41 871.704 986.625 872.263 987.055 872.722C987.485 873.152 988.159 873.367 989.076 873.367C989.764 873.367 990.467 873.252 991.183 873.023V878.097C990.782 878.498 990.18 878.799 989.377 879C988.603 879.172 987.772 879.258 986.883 879.258ZM994.264 856.64H1000.93V879H994.264V856.64ZM994.264 848.47H1000.93V854.275H994.264V848.47ZM1014.56 879.43C1012.78 879.43 1011.08 878.986 1009.44 878.097C1007.81 877.208 1006.48 875.89 1005.45 874.141C1004.41 872.392 1003.9 870.285 1003.9 867.82C1003.9 865.355 1004.41 863.248 1005.45 861.499C1006.48 859.75 1007.81 858.432 1009.44 857.543C1011.08 856.654 1012.78 856.21 1014.56 856.21C1015.77 856.21 1016.84 856.396 1017.79 856.769C1018.76 857.113 1019.53 857.514 1020.11 857.973C1020.68 858.432 1021.04 858.833 1021.18 859.177H1021.31V856.64H1027.98V879H1021.31V876.463H1021.18C1021.04 876.807 1020.68 877.208 1020.11 877.667C1019.53 878.126 1018.76 878.541 1017.79 878.914C1016.84 879.258 1015.77 879.43 1014.56 879.43ZM1010.48 867.82C1010.48 869.54 1011.01 870.916 1012.07 871.948C1013.16 872.98 1014.45 873.496 1015.94 873.496C1017.49 873.496 1018.79 872.994 1019.85 871.991C1020.94 870.959 1021.48 869.569 1021.48 867.82C1021.48 866.071 1020.94 864.695 1019.85 863.692C1018.79 862.66 1017.49 862.144 1015.94 862.144C1014.45 862.144 1013.16 862.66 1012.07 863.692C1011.01 864.724 1010.48 866.1 1010.48 867.82ZM1040.71 848.47H1047.5V872.765H1058.85V879H1040.71V848.47ZM1070.85 866.014C1072.2 864.208 1073.16 862.889 1073.74 862.058C1074.31 861.198 1074.72 860.453 1074.98 859.822C1075.24 859.163 1075.37 858.489 1075.37 857.801C1075.37 856.425 1075.01 855.493 1074.29 855.006C1073.58 854.49 1072.82 854.232 1072.02 854.232C1071.13 854.232 1070.31 854.547 1069.56 855.178C1068.82 855.809 1068.45 856.826 1068.45 858.231V859.048H1061.7V857.672C1061.7 855.923 1062.08 854.318 1062.86 852.856C1063.63 851.394 1064.79 850.233 1066.34 849.373C1067.92 848.484 1069.84 848.04 1072.1 848.04C1074.17 848.04 1075.97 848.427 1077.52 849.201C1079.1 849.946 1080.3 850.993 1081.13 852.34C1081.99 853.659 1082.42 855.164 1082.42 856.855C1082.42 858.059 1082.21 859.206 1081.78 860.295C1081.35 861.356 1080.83 862.316 1080.23 863.176C1079.66 864.036 1078.74 865.297 1077.48 866.96L1072.88 873.109H1082.38V879H1061.18L1070.85 866.014Z" fill="black"/>
<rect x="725.5" y="182.5" width="525" height="245" rx="58.5" stroke="black" stroke-width="11"/>
<rect x="713" y="170" width="534" height="254" rx="63" fill="white" stroke="black" stroke-width="2"/>
<path d="M801.021 282.47H812.201C814.408 282.47 816.343 282.9 818.006 283.76C819.669 284.62 820.959 285.853 821.876 287.458C822.822 289.063 823.295 290.927 823.295 293.048C823.295 295.141 822.822 296.99 821.876 298.595C820.959 300.172 819.654 301.39 817.963 302.25C816.3 303.11 814.38 303.54 812.201 303.54H807.815V313H801.021V282.47ZM811.556 297.305C814.795 297.305 816.415 295.886 816.415 293.048C816.415 290.153 814.795 288.705 811.556 288.705H807.815V297.305H811.556ZM836.335 313.43C834.243 313.43 832.293 312.971 830.487 312.054C828.681 311.137 827.234 309.804 826.144 308.055C825.084 306.278 824.553 304.214 824.553 301.863C824.553 299.455 825.084 297.377 826.144 295.628C827.234 293.851 828.638 292.503 830.358 291.586C832.107 290.669 833.97 290.21 835.948 290.21C837.783 290.21 839.546 290.626 841.237 291.457C842.929 292.26 844.319 293.521 845.408 295.241C846.498 296.961 847.042 299.125 847.042 301.734C847.042 302.68 846.985 303.569 846.87 304.4H830.96C831.419 305.575 832.164 306.478 833.196 307.109C834.257 307.711 835.547 308.012 837.066 308.012C839.159 308.012 840.951 307.439 842.441 306.292L845.451 309.431C844.477 310.635 843.201 311.61 841.624 312.355C840.076 313.072 838.313 313.43 836.335 313.43ZM841.022 299.627C840.793 298.394 840.205 297.448 839.259 296.789C838.313 296.13 837.238 295.8 836.034 295.8C834.83 295.8 833.741 296.13 832.766 296.789C831.82 297.42 831.175 298.366 830.831 299.627H841.022ZM861.119 321.944C859.8 321.944 858.553 321.829 857.378 321.6C856.203 321.399 855.285 321.07 854.626 320.611V315.279C855.142 315.623 855.887 315.895 856.862 316.096C857.865 316.297 858.869 316.397 859.872 316.397C861.936 316.397 863.541 315.953 864.688 315.064C865.835 314.204 866.408 313.072 866.408 311.667V310.463H866.15C866.007 310.807 865.648 311.208 865.075 311.667C864.53 312.126 863.785 312.541 862.839 312.914C861.922 313.258 860.875 313.43 859.7 313.43C857.923 313.43 856.217 312.986 854.583 312.097C852.949 311.208 851.602 309.89 850.541 308.141C849.509 306.392 848.993 304.285 848.993 301.82C848.993 299.355 849.509 297.248 850.541 295.499C851.602 293.75 852.949 292.432 854.583 291.543C856.217 290.654 857.923 290.21 859.7 290.21C860.875 290.21 861.922 290.396 862.839 290.769C863.785 291.113 864.53 291.514 865.075 291.973C865.648 292.432 866.007 292.833 866.15 293.177H866.408V290.64H873.073V311.108C873.073 315.093 871.869 317.888 869.461 319.493C867.082 321.127 864.301 321.944 861.119 321.944ZM855.572 301.82C855.572 303.54 856.102 304.916 857.163 305.948C858.252 306.98 859.557 307.496 861.076 307.496C862.624 307.496 863.928 306.994 864.989 305.991C866.05 304.959 866.58 303.569 866.58 301.82C866.58 300.071 866.05 298.695 864.989 297.692C863.928 296.66 862.624 296.144 861.076 296.144C859.557 296.144 858.252 296.66 857.163 297.692C856.102 298.724 855.572 300.1 855.572 301.82ZM885.803 282.47H892.597V295.327L902.917 282.47H910.485L899.133 296.316L911.431 313H903.992L895.134 301.175L892.597 304.314V313H885.803V282.47ZM921.664 313.43C919.571 313.43 917.622 312.971 915.816 312.054C914.01 311.137 912.562 309.804 911.473 308.055C910.412 306.278 909.882 304.214 909.882 301.863C909.882 299.455 910.412 297.377 911.473 295.628C912.562 293.851 913.967 292.503 915.687 291.586C917.435 290.669 919.299 290.21 921.277 290.21C923.111 290.21 924.874 290.626 926.566 291.457C928.257 292.26 929.647 293.521 930.737 295.241C931.826 296.961 932.371 299.125 932.371 301.734C932.371 302.68 932.313 303.569 932.199 304.4H916.289C916.747 305.575 917.493 306.478 918.525 307.109C919.585 307.711 920.875 308.012 922.395 308.012C924.487 308.012 926.279 307.439 927.77 306.292L930.78 309.431C929.805 310.635 928.529 311.61 926.953 312.355C925.405 313.072 923.642 313.43 921.664 313.43ZM926.351 299.627C926.121 298.394 925.534 297.448 924.588 296.789C923.642 296.13 922.567 295.8 921.363 295.8C920.159 295.8 919.069 296.13 918.095 296.789C917.149 297.42 916.504 298.366 916.16 299.627H926.351ZM946.103 313.43C944.01 313.43 942.061 312.971 940.255 312.054C938.449 311.137 937.001 309.804 935.912 308.055C934.851 306.278 934.321 304.214 934.321 301.863C934.321 299.455 934.851 297.377 935.912 295.628C937.001 293.851 938.406 292.503 940.126 291.586C941.875 290.669 943.738 290.21 945.716 290.21C947.551 290.21 949.314 290.626 951.005 291.457C952.696 292.26 954.087 293.521 955.176 295.241C956.265 296.961 956.81 299.125 956.81 301.734C956.81 302.68 956.753 303.569 956.638 304.4H940.728C941.187 305.575 941.932 306.478 942.964 307.109C944.025 307.711 945.315 308.012 946.834 308.012C948.927 308.012 950.718 307.439 952.209 306.292L955.219 309.431C954.244 310.635 952.969 311.61 951.392 312.355C949.844 313.072 948.081 313.43 946.103 313.43ZM950.79 299.627C950.561 298.394 949.973 297.448 949.027 296.789C948.081 296.13 947.006 295.8 945.802 295.8C944.598 295.8 943.509 296.13 942.534 296.789C941.588 297.42 940.943 298.366 940.599 299.627H950.79ZM959.416 290.64H966.081V293.177H966.21C966.353 292.833 966.711 292.432 967.285 291.973C967.858 291.514 968.618 291.113 969.564 290.769C970.538 290.396 971.628 290.21 972.832 290.21C974.609 290.21 976.315 290.654 977.949 291.543C979.583 292.432 980.916 293.75 981.948 295.499C982.98 297.248 983.496 299.355 983.496 301.82C983.496 304.285 982.98 306.392 981.948 308.141C980.916 309.89 979.583 311.208 977.949 312.097C976.315 312.986 974.609 313.43 972.832 313.43C971.628 313.43 970.538 313.258 969.564 312.914C968.618 312.541 967.858 312.126 967.285 311.667C966.711 311.208 966.353 310.807 966.21 310.463H966.081V321.17H959.416V290.64ZM965.909 301.82C965.909 303.569 966.439 304.959 967.5 305.991C968.589 306.994 969.908 307.496 971.456 307.496C972.946 307.496 974.222 306.98 975.283 305.948C976.372 304.916 976.917 303.54 976.917 301.82C976.917 300.1 976.372 298.724 975.283 297.692C974.222 296.66 972.946 296.144 971.456 296.144C969.908 296.144 968.589 296.66 967.5 297.692C966.439 298.695 965.909 300.071 965.909 301.82ZM997.166 313.43C995.073 313.43 993.124 312.971 991.318 312.054C989.512 311.137 988.064 309.804 986.975 308.055C985.914 306.278 985.384 304.214 985.384 301.863C985.384 299.455 985.914 297.377 986.975 295.628C988.064 293.851 989.469 292.503 991.189 291.586C992.937 290.669 994.801 290.21 996.779 290.21C998.613 290.21 1000.38 290.626 1002.07 291.457C1003.76 292.26 1005.15 293.521 1006.24 295.241C1007.33 296.961 1007.87 299.125 1007.87 301.734C1007.87 302.68 1007.82 303.569 1007.7 304.4H991.791C992.249 305.575 992.995 306.478 994.027 307.109C995.087 307.711 996.377 308.012 997.897 308.012C999.989 308.012 1001.78 307.439 1003.27 306.292L1006.28 309.431C1005.31 310.635 1004.03 311.61 1002.45 312.355C1000.91 313.072 999.144 313.43 997.166 313.43ZM1001.85 299.627C1001.62 298.394 1001.04 297.448 1000.09 296.789C999.144 296.13 998.069 295.8 996.865 295.8C995.661 295.8 994.571 296.13 993.597 296.789C992.651 297.42 992.006 298.366 991.662 299.627H1001.85ZM1010.9 290.64H1017.56V296.703C1017.96 294.754 1018.74 293.191 1019.88 292.016C1021.03 290.812 1022.57 290.21 1024.49 290.21C1025.09 290.21 1025.62 290.282 1026.08 290.425V296.746C1025.56 296.66 1025.04 296.617 1024.53 296.617C1022.35 296.617 1020.64 297.276 1019.41 298.595C1018.18 299.914 1017.56 301.648 1017.56 303.798V313H1010.9V290.64ZM1046.78 313.43C1045 313.43 1043.36 313.115 1041.84 312.484C1040.32 311.825 1039.03 310.922 1037.97 309.775C1036.91 308.6 1036.19 307.267 1035.82 305.776L1041.32 303.239C1041.81 304.414 1042.5 305.389 1043.38 306.163C1044.27 306.908 1045.38 307.281 1046.7 307.281C1047.78 307.281 1048.7 307.009 1049.45 306.464C1050.19 305.891 1050.57 305.045 1050.57 303.927C1050.57 303.038 1050.28 302.336 1049.71 301.82C1049.16 301.275 1048.14 300.702 1046.65 300.1L1044.76 299.369C1042.32 298.394 1040.4 297.248 1039 295.929C1037.62 294.582 1036.93 292.79 1036.93 290.554C1036.93 288.834 1037.36 287.329 1038.22 286.039C1039.11 284.749 1040.29 283.76 1041.75 283.072C1043.24 282.384 1044.87 282.04 1046.65 282.04C1049.15 282.04 1051.24 282.671 1052.93 283.932C1054.62 285.165 1055.88 286.698 1056.71 288.533L1051.68 291.371C1051.02 290.224 1050.31 289.393 1049.53 288.877C1048.76 288.332 1047.88 288.06 1046.91 288.06C1045.94 288.06 1045.15 288.289 1044.55 288.748C1043.94 289.178 1043.64 289.809 1043.64 290.64C1043.64 291.357 1043.91 292.002 1044.46 292.575C1045.03 293.12 1046.08 293.693 1047.6 294.295L1049.66 295.112C1052.47 296.23 1054.49 297.477 1055.73 298.853C1056.99 300.229 1057.62 301.949 1057.62 304.013C1057.62 306.02 1057.09 307.74 1056.03 309.173C1054.99 310.578 1053.65 311.638 1051.98 312.355C1050.32 313.072 1048.59 313.43 1046.78 313.43ZM1076.95 299.111L1072 313H1065.94L1057.77 290.64H1064.39L1069.08 305.131L1073.94 290.64H1079.96L1084.81 305.131L1089.5 290.64H1096.12L1087.95 313H1081.89L1076.95 299.111ZM1106.95 313.43C1105.17 313.43 1103.47 312.986 1101.83 312.097C1100.2 311.208 1098.86 309.89 1097.83 308.141C1096.8 306.392 1096.28 304.285 1096.28 301.82C1096.28 299.355 1096.8 297.248 1097.83 295.499C1098.86 293.75 1100.2 292.432 1101.83 291.543C1103.47 290.654 1105.17 290.21 1106.95 290.21C1108.15 290.21 1109.23 290.396 1110.17 290.769C1111.15 291.113 1111.92 291.514 1112.5 291.973C1113.07 292.432 1113.43 292.833 1113.57 293.177H1113.7V290.64H1120.36V313H1113.7V310.463H1113.57C1113.43 310.807 1113.07 311.208 1112.5 311.667C1111.92 312.126 1111.15 312.541 1110.17 312.914C1109.23 313.258 1108.15 313.43 1106.95 313.43ZM1102.86 301.82C1102.86 303.54 1103.39 304.916 1104.45 305.948C1105.54 306.98 1106.83 307.496 1108.32 307.496C1109.87 307.496 1111.18 306.994 1112.24 305.991C1113.33 304.959 1113.87 303.569 1113.87 301.82C1113.87 300.071 1113.33 298.695 1112.24 297.692C1111.18 296.66 1109.87 296.144 1108.32 296.144C1106.83 296.144 1105.54 296.66 1104.45 297.692C1103.39 298.724 1102.86 300.1 1102.86 301.82ZM1124.4 290.64H1131.07V293.177H1131.2C1131.34 292.833 1131.7 292.432 1132.27 291.973C1132.85 291.514 1133.6 291.113 1134.55 290.769C1135.53 290.396 1136.61 290.21 1137.82 290.21C1139.6 290.21 1141.3 290.654 1142.94 291.543C1144.57 292.432 1145.9 293.75 1146.93 295.499C1147.97 297.248 1148.48 299.355 1148.48 301.82C1148.48 304.285 1147.97 306.392 1146.93 308.141C1145.9 309.89 1144.57 311.208 1142.94 312.097C1141.3 312.986 1139.6 313.43 1137.82 313.43C1136.61 313.43 1135.53 313.258 1134.55 312.914C1133.6 312.541 1132.85 312.126 1132.27 311.667C1131.7 311.208 1131.34 310.807 1131.2 310.463H1131.07V321.17H1124.4V290.64ZM1130.9 301.82C1130.9 303.569 1131.43 304.959 1132.49 305.991C1133.58 306.994 1134.89 307.496 1136.44 307.496C1137.93 307.496 1139.21 306.98 1140.27 305.948C1141.36 304.916 1141.9 303.54 1141.9 301.82C1141.9 300.1 1141.36 298.724 1140.27 297.692C1139.21 296.66 1137.93 296.144 1136.44 296.144C1134.89 296.144 1133.58 296.66 1132.49 297.692C1131.43 298.695 1130.9 300.071 1130.9 301.82ZM1158.13 313.43C1155.8 313.43 1153.87 312.885 1152.32 311.796C1150.8 310.707 1149.87 309.13 1149.53 307.066L1154.81 305.647C1155.36 307.367 1156.43 308.227 1158.04 308.227C1158.7 308.227 1159.24 308.069 1159.67 307.754C1160.13 307.439 1160.36 306.98 1160.36 306.378C1160.36 305.518 1159.73 304.887 1158.47 304.486L1155.46 303.368C1153.68 302.737 1152.35 301.863 1151.46 300.745C1150.6 299.598 1150.17 298.294 1150.17 296.832C1150.17 295.485 1150.53 294.309 1151.25 293.306C1151.99 292.303 1152.98 291.543 1154.21 291.027C1155.45 290.482 1156.81 290.21 1158.3 290.21C1160.39 290.21 1162.15 290.755 1163.59 291.844C1165.02 292.933 1165.94 294.381 1166.34 296.187L1161.14 297.477C1160.68 296.072 1159.82 295.37 1158.56 295.37C1157.95 295.37 1157.48 295.528 1157.14 295.843C1156.79 296.13 1156.62 296.488 1156.62 296.918C1156.62 297.778 1157.27 298.409 1158.56 298.81L1161.35 299.842C1165.08 301.103 1166.94 303.282 1166.94 306.378C1166.94 308.585 1166.11 310.32 1164.45 311.581C1162.81 312.814 1160.71 313.43 1158.13 313.43Z" fill="black"/>
<path d="M424 887H422V889H424V887ZM695.414 888.414C696.195 887.633 696.195 886.367 695.414 885.586L682.686 872.858C681.905 872.077 680.639 872.077 679.858 872.858C679.077 873.639 679.077 874.905 679.858 875.686L691.172 887L679.858 898.314C679.077 899.095 679.077 900.361 679.858 901.142C680.639 901.923 681.905 901.923 682.686 901.142L695.414 888.414ZM424 889H694V885H424V889ZM422 629.5V887H426V629.5H422Z" fill="black"/>
<path d="M424 279V277H422V279H424ZM422.586 542.414C423.367 543.195 424.633 543.195 425.414 542.414L438.142 529.686C438.923 528.905 438.923 527.639 438.142 526.858C437.361 526.077 436.095 526.077 435.314 526.858L424 538.172L412.686 526.858C411.905 526.077 410.639 526.077 409.858 526.858C409.077 527.639 409.077 528.905 409.858 529.686L422.586 542.414ZM694 277H424V281H694V277ZM422 279V541H426V279H422Z" fill="black"/>
<path d="M1545 279H1547V277H1545V279ZM1273.59 277.586C1272.8 278.367 1272.8 279.633 1273.59 280.414L1286.31 293.142C1287.09 293.923 1288.36 293.923 1289.14 293.142C1289.92 292.361 1289.92 291.095 1289.14 290.314L1277.83 279L1289.14 267.686C1289.92 266.905 1289.92 265.639 1289.14 264.858C1288.36 264.077 1287.09 264.077 1286.31 264.858L1273.59 277.586ZM1545 277H1275V281H1545V277ZM1547 544V279H1543V544H1547Z" fill="black"/>
<path d="M1545 887V889H1547V887H1545ZM1546.41 629.586C1545.63 628.805 1544.37 628.805 1543.59 629.586L1530.86 642.314C1530.08 643.095 1530.08 644.361 1530.86 645.142C1531.64 645.923 1532.91 645.923 1533.69 645.142L1545 633.828L1556.31 645.142C1557.09 645.923 1558.36 645.923 1559.14 645.142C1559.92 644.361 1559.92 643.095 1559.14 642.314L1546.41 629.586ZM1275 889H1545V885H1275V889ZM1547 887V631H1543V887H1547Z" fill="black"/>
<rect x="1394.5" y="545.5" width="276" height="79" rx="38.5" fill="white"/>
<rect x="1394.5" y="545.5" width="276" height="79" rx="38.5" stroke="black" stroke-width="3" stroke-dasharray="12 12"/>
<path d="M1470.91 597.32C1468.8 597.32 1466.85 596.829 1465.06 595.848C1463.29 594.867 1461.87 593.491 1460.8 591.72C1459.76 589.928 1459.23 587.901 1459.23 585.64C1459.23 583.379 1459.76 581.363 1460.8 579.592C1461.87 577.8 1463.29 576.413 1465.06 575.432C1466.85 574.451 1468.8 573.96 1470.91 573.96C1473.03 573.96 1474.98 574.451 1476.77 575.432C1478.56 576.413 1479.98 577.8 1481.03 579.592C1482.09 581.363 1482.63 583.379 1482.63 585.64C1482.63 587.901 1482.09 589.928 1481.03 591.72C1479.98 593.491 1478.56 594.867 1476.77 595.848C1474.98 596.829 1473.03 597.32 1470.91 597.32ZM1463.71 585.64C1463.71 587.112 1464.03 588.424 1464.67 589.576C1465.34 590.707 1466.21 591.592 1467.3 592.232C1468.41 592.851 1469.61 593.16 1470.91 593.16C1472.22 593.16 1473.41 592.851 1474.5 592.232C1475.61 591.613 1476.48 590.739 1477.12 589.608C1477.78 588.456 1478.11 587.133 1478.11 585.64C1478.11 584.147 1477.78 582.835 1477.12 581.704C1476.48 580.552 1475.61 579.667 1474.5 579.048C1473.41 578.429 1472.22 578.12 1470.91 578.12C1469.61 578.12 1468.41 578.44 1467.3 579.08C1466.21 579.699 1465.34 580.584 1464.67 581.736C1464.03 582.867 1463.71 584.168 1463.71 585.64ZM1485.52 574.28H1493.55C1495.18 574.28 1496.59 574.6 1497.81 575.24C1499.05 575.88 1500 576.787 1500.66 577.96C1501.34 579.112 1501.68 580.456 1501.68 581.992C1501.68 583.528 1501.34 584.883 1500.66 586.056C1500 587.208 1499.05 588.104 1497.81 588.744C1496.59 589.384 1495.18 589.704 1493.55 589.704H1489.91V597H1485.52V574.28ZM1493.17 585.672C1494.43 585.672 1495.42 585.373 1496.15 584.776C1496.87 584.179 1497.23 583.251 1497.23 581.992C1497.23 580.733 1496.87 579.805 1496.15 579.208C1495.42 578.611 1494.43 578.312 1493.17 578.312H1489.91V585.672H1493.17ZM1510.9 574.28H1519.22C1520.48 574.28 1521.57 574.525 1522.51 575.016C1523.45 575.485 1524.18 576.136 1524.69 576.968C1525.2 577.8 1525.46 578.728 1525.46 579.752C1525.46 580.84 1525.17 581.789 1524.59 582.6C1524.04 583.389 1523.33 583.965 1522.48 584.328C1523.74 584.669 1524.79 585.352 1525.62 586.376C1526.47 587.379 1526.9 588.691 1526.9 590.312C1526.9 592.339 1526.21 593.96 1524.85 595.176C1523.48 596.392 1521.54 597 1519.03 597H1510.9V574.28ZM1518.77 593.16C1520.03 593.16 1520.97 592.872 1521.59 592.296C1522.23 591.72 1522.55 590.909 1522.55 589.864C1522.55 588.84 1522.23 588.029 1521.59 587.432C1520.95 586.813 1519.99 586.504 1518.71 586.504H1515.28V593.16H1518.77ZM1518.35 583.112C1519.29 583.112 1520.01 582.888 1520.5 582.44C1520.99 581.971 1521.23 581.352 1521.23 580.584C1521.23 579.795 1520.98 579.187 1520.47 578.76C1519.97 578.333 1519.25 578.12 1518.29 578.12H1515.28V583.112H1518.35ZM1529.49 580.36H1533.78V584.68C1534.1 583.293 1534.69 582.173 1535.54 581.32C1536.41 580.467 1537.57 580.04 1539 580.04C1539.4 580.04 1539.77 580.083 1540.12 580.168V584.264C1539.73 584.2 1539.37 584.168 1539.03 584.168C1537.43 584.168 1536.15 584.68 1535.19 585.704C1534.25 586.707 1533.78 588.051 1533.78 589.736V597H1529.49V580.36ZM1542.55 580.36H1546.84V597H1542.55V580.36ZM1542.55 574.28H1546.84V578.056H1542.55V574.28ZM1562.72 597V594.76H1562.63C1562.48 595.101 1562.16 595.475 1561.67 595.88C1561.2 596.285 1560.58 596.627 1559.81 596.904C1559.07 597.181 1558.23 597.32 1557.32 597.32C1555.97 597.32 1554.68 596.989 1553.44 596.328C1552.23 595.667 1551.24 594.685 1550.47 593.384C1549.7 592.083 1549.32 590.515 1549.32 588.68C1549.32 586.845 1549.7 585.277 1550.47 583.976C1551.24 582.675 1552.23 581.693 1553.44 581.032C1554.68 580.371 1555.97 580.04 1557.32 580.04C1558.23 580.04 1559.07 580.179 1559.81 580.456C1560.58 580.733 1561.2 581.075 1561.67 581.48C1562.16 581.885 1562.48 582.259 1562.63 582.6H1562.72V574.28H1567.01V597H1562.72ZM1553.54 588.68C1553.54 589.683 1553.75 590.547 1554.18 591.272C1554.61 591.997 1555.17 592.552 1555.88 592.936C1556.6 593.299 1557.37 593.48 1558.18 593.48C1558.99 593.48 1559.75 593.299 1560.45 592.936C1561.18 592.552 1561.75 591.997 1562.18 591.272C1562.61 590.547 1562.82 589.683 1562.82 588.68C1562.82 587.677 1562.61 586.813 1562.18 586.088C1561.75 585.363 1561.18 584.819 1560.45 584.456C1559.75 584.072 1558.99 583.88 1558.18 583.88C1557.37 583.88 1556.6 584.072 1555.88 584.456C1555.17 584.819 1554.61 585.363 1554.18 586.088C1553.75 586.813 1553.54 587.677 1553.54 588.68ZM1578.4 603.656C1577.42 603.656 1576.49 603.56 1575.62 603.368C1574.74 603.197 1574.06 602.952 1573.57 602.632V599.144C1573.95 599.4 1574.53 599.613 1575.3 599.784C1576.06 599.976 1576.84 600.072 1577.63 600.072C1579.25 600.072 1580.53 599.709 1581.47 598.984C1582.41 598.28 1582.88 597.299 1582.88 596.04V594.76H1582.69C1582.54 595.101 1582.23 595.475 1581.76 595.88C1581.29 596.285 1580.68 596.627 1579.94 596.904C1579.21 597.181 1578.39 597.32 1577.47 597.32C1576.13 597.32 1574.84 596.989 1573.6 596.328C1572.38 595.667 1571.39 594.685 1570.62 593.384C1569.86 592.083 1569.47 590.515 1569.47 588.68C1569.47 586.845 1569.86 585.277 1570.62 583.976C1571.39 582.675 1572.38 581.693 1573.6 581.032C1574.84 580.371 1576.13 580.04 1577.47 580.04C1578.39 580.04 1579.21 580.179 1579.94 580.456C1580.68 580.733 1581.29 581.075 1581.76 581.48C1582.23 581.885 1582.54 582.259 1582.69 582.6H1582.88V580.36H1587.17V595.752C1587.17 598.611 1586.29 600.637 1584.54 601.832C1582.8 603.048 1580.75 603.656 1578.4 603.656ZM1573.7 588.68C1573.7 589.683 1573.91 590.547 1574.34 591.272C1574.76 591.997 1575.33 592.552 1576.03 592.936C1576.76 593.299 1577.53 593.48 1578.34 593.48C1579.62 593.48 1580.7 593.053 1581.6 592.2C1582.52 591.347 1582.98 590.173 1582.98 588.68C1582.98 587.187 1582.52 586.013 1581.6 585.16C1580.7 584.307 1579.62 583.88 1578.34 583.88C1577.53 583.88 1576.76 584.072 1576.03 584.456C1575.33 584.819 1574.76 585.363 1574.34 586.088C1573.91 586.813 1573.7 587.677 1573.7 588.68ZM1598.3 597.32C1596.74 597.32 1595.3 596.979 1593.98 596.296C1592.66 595.613 1591.6 594.621 1590.81 593.32C1590.02 591.997 1589.63 590.451 1589.63 588.68C1589.63 586.888 1590.02 585.341 1590.81 584.04C1591.6 582.739 1592.64 581.747 1593.92 581.064C1595.22 580.381 1596.59 580.04 1598.04 580.04C1599.43 580.04 1600.74 580.349 1601.98 580.968C1603.24 581.565 1604.26 582.515 1605.05 583.816C1605.86 585.096 1606.27 586.685 1606.27 588.584C1606.27 588.947 1606.23 589.533 1606.14 590.344H1593.69C1593.99 591.453 1594.59 592.307 1595.48 592.904C1596.4 593.501 1597.5 593.8 1598.78 593.8C1600.49 593.8 1601.92 593.299 1603.07 592.296L1605.02 594.376C1604.32 595.272 1603.38 595.987 1602.2 596.52C1601.03 597.053 1599.73 597.32 1598.3 597.32ZM1602.33 587.208C1602.2 586.077 1601.74 585.203 1600.92 584.584C1600.11 583.965 1599.16 583.656 1598.08 583.656C1597.03 583.656 1596.09 583.965 1595.26 584.584C1594.43 585.181 1593.88 586.056 1593.63 587.208H1602.33Z" fill="black"/>
<path d="M1417 754.5C1417 738.76 1429.76 726 1445.5 726H1619.5C1635.24 726 1648 738.76 1648 754.5C1648 770.24 1635.24 783 1619.5 783H1445.5C1429.76 783 1417 770.24 1417 754.5Z" fill="#404040"/>
<g clip-path="url(#clip0_4_765)">
<circle cx="1469" cy="754.5" r="18" fill="white"/>
<path d="M1470.39 750.705C1470.42 749.149 1471.52 747.838 1473.02 747.543V744.5C1471.48 744.66 1470.05 745.383 1469 746.543L1468.89 746.678L1468.77 746.543C1467.72 745.374 1466.3 744.66 1464.75 744.5V747.543C1466.25 747.838 1467.36 749.149 1467.38 750.696V758.507C1467.36 760.062 1466.25 761.373 1464.75 761.668V764.711C1466.29 764.551 1467.72 763.828 1468.77 762.668L1468.89 762.534L1469 762.668C1470.05 763.837 1471.48 764.551 1473.02 764.711V761.668C1471.52 761.373 1470.42 760.062 1470.39 758.515V750.705Z" fill="black"/>
</g>
<path d="M1506.71 766.32H1505.5C1499.19 766.32 1496.06 763.92 1496.06 757.904V757.136C1496.06 751.12 1499.19 748.72 1505.53 748.72H1506.71C1513.05 748.72 1516.15 751.12 1516.15 757.136V757.904C1516.15 763.92 1513.05 766.32 1506.71 766.32ZM1506.14 762.224C1509.46 762.224 1511.1 761.552 1511.1 757.776V757.264C1511.1 753.488 1509.46 752.816 1506.14 752.816C1502.78 752.816 1501.11 753.488 1501.11 757.264V757.776C1501.11 761.552 1502.78 762.224 1506.14 762.224ZM1518.66 749.04H1523.71V751.632H1523.87C1524.67 749.808 1526.4 748.72 1529.95 748.72H1530.34C1535.43 748.72 1538.75 750.672 1538.75 757.04V758C1538.75 764.368 1535.43 766.32 1530.34 766.32H1529.95C1526.4 766.32 1524.67 765.232 1523.87 763.408H1523.71V771.44H1518.66V749.04ZM1528.71 752.816C1525.25 752.816 1523.71 753.552 1523.71 757.264V757.808C1523.71 761.488 1525.25 762.224 1528.71 762.224C1532.16 762.224 1533.7 761.488 1533.7 757.808V757.264C1533.7 753.552 1532.16 752.816 1528.71 752.816ZM1547.43 766H1541.89V743.6H1547.43V766ZM1577.88 766H1569.44L1557.24 749.04H1557.02V766H1551.58V743.6H1560.03L1572.22 760.592H1572.44V743.6H1577.88V766ZM1587.58 766H1582.05V743.6H1587.58V766ZM1604.5 766H1598.94V748.304H1590.23V743.6H1613.24V748.304H1604.5V766Z" fill="white"/>
<path d="M1417 415.5C1417 399.76 1429.76 387 1445.5 387H1619.5C1635.24 387 1648 399.76 1648 415.5C1648 431.24 1635.24 444 1619.5 444H1445.5C1429.76 444 1417 431.24 1417 415.5Z" fill="#404040"/>
<g clip-path="url(#clip1_4_765)">
<circle cx="1491.5" cy="415.5" r="18" fill="white"/>
<path d="M1492.89 411.705C1492.92 410.149 1494.02 408.838 1495.52 408.543V405.5C1493.98 405.66 1492.55 406.383 1491.5 407.543L1491.39 407.677L1491.27 407.543C1490.22 406.374 1488.8 405.66 1487.25 405.5V408.543C1488.75 408.838 1489.86 410.149 1489.88 411.696V419.507C1489.86 421.062 1488.75 422.373 1487.25 422.668V425.711C1488.79 425.551 1490.22 424.828 1491.27 423.668L1491.39 423.534L1491.5 423.668C1492.55 424.837 1493.98 425.551 1495.52 425.711V422.668C1494.02 422.373 1492.92 421.062 1492.89 419.515V411.705Z" fill="black"/>
</g>
<path d="M1525.12 427H1519.58V404.6H1525.12V427ZM1555.57 427H1547.12L1534.93 410.04H1534.71V427H1529.27V404.6H1537.72L1549.91 421.592H1550.13V404.6H1555.57V427ZM1565.27 427H1559.74V404.6H1565.27V427ZM1582.19 427H1576.62V409.304H1567.92V404.6H1590.93V409.304H1582.19V427Z" fill="white"/>
<rect x="1359.5" y="332.5" width="61" height="61" rx="30.5" fill="white"/>
<rect x="1359.5" y="332.5" width="61" height="61" rx="30.5" stroke="black" stroke-width="3"/>
<path d="M1389.41 365.432C1390.48 364.045 1391.22 363.043 1391.65 362.424C1392.08 361.805 1392.4 361.229 1392.61 360.696C1392.85 360.163 1392.96 359.597 1392.96 359C1392.96 357.912 1392.65 357.133 1392.04 356.664C1391.44 356.195 1390.77 355.96 1390.02 355.96C1389.19 355.96 1388.45 356.237 1387.81 356.792C1387.17 357.347 1386.85 358.211 1386.85 359.384V359.96H1382.5V359C1382.5 357.699 1382.79 356.515 1383.36 355.448C1383.94 354.381 1384.79 353.539 1385.92 352.92C1387.08 352.28 1388.46 351.96 1390.08 351.96C1391.58 351.96 1392.88 352.237 1393.99 352.792C1395.12 353.347 1395.98 354.115 1396.58 355.096C1397.2 356.077 1397.51 357.176 1397.51 358.392C1397.51 359.245 1397.36 360.067 1397.06 360.856C1396.76 361.624 1396.4 362.328 1395.97 362.968C1395.54 363.608 1394.95 364.429 1394.18 365.432C1394.16 365.453 1394.02 365.624 1393.76 365.944L1389.73 371.192H1397.51V375H1382.18L1389.41 365.432Z" fill="black"/>
<rect x="273.5" y="545.5" width="276" height="79" rx="38.5" fill="white"/>
<rect x="273.5" y="545.5" width="276" height="79" rx="38.5" stroke="black" stroke-width="3" stroke-dasharray="12 12"/>
<path d="M309.648 574.28H317.968C319.226 574.28 320.325 574.525 321.264 575.016C322.202 575.485 322.928 576.136 323.44 576.968C323.952 577.8 324.208 578.728 324.208 579.752C324.208 580.84 323.92 581.789 323.344 582.6C322.789 583.389 322.085 583.965 321.232 584.328C322.49 584.669 323.536 585.352 324.368 586.376C325.221 587.379 325.648 588.691 325.648 590.312C325.648 592.339 324.965 593.96 323.6 595.176C322.234 596.392 320.293 597 317.776 597H309.648V574.28ZM317.52 593.16C318.778 593.16 319.717 592.872 320.336 592.296C320.976 591.72 321.296 590.909 321.296 589.864C321.296 588.84 320.976 588.029 320.336 587.432C319.696 586.813 318.736 586.504 317.456 586.504H314.032V593.16H317.52ZM317.104 583.112C318.042 583.112 318.757 582.888 319.248 582.44C319.738 581.971 319.984 581.352 319.984 580.584C319.984 579.795 319.728 579.187 319.216 578.76C318.725 578.333 318 578.12 317.04 578.12H314.032V583.112H317.104ZM328.241 580.36H332.529V584.68C332.849 583.293 333.436 582.173 334.289 581.32C335.164 580.467 336.316 580.04 337.745 580.04C338.151 580.04 338.524 580.083 338.865 580.168V584.264C338.481 584.2 338.119 584.168 337.777 584.168C336.177 584.168 334.897 584.68 333.937 585.704C332.999 586.707 332.529 588.051 332.529 589.736V597H328.241V580.36ZM341.304 580.36H345.592V597H341.304V580.36ZM341.304 574.28H345.592V578.056H341.304V574.28ZM361.474 597V594.76H361.378C361.229 595.101 360.909 595.475 360.418 595.88C359.949 596.285 359.33 596.627 358.562 596.904C357.816 597.181 356.984 597.32 356.066 597.32C354.722 597.32 353.432 596.989 352.194 596.328C350.978 595.667 349.986 594.685 349.218 593.384C348.45 592.083 348.066 590.515 348.066 588.68C348.066 586.845 348.45 585.277 349.218 583.976C349.986 582.675 350.978 581.693 352.194 581.032C353.432 580.371 354.722 580.04 356.066 580.04C356.984 580.04 357.816 580.179 358.562 580.456C359.33 580.733 359.949 581.075 360.418 581.48C360.909 581.885 361.229 582.259 361.378 582.6H361.474V574.28H365.762V597H361.474ZM352.29 588.68C352.29 589.683 352.504 590.547 352.93 591.272C353.357 591.997 353.922 592.552 354.626 592.936C355.352 593.299 356.12 593.48 356.93 593.48C357.741 593.48 358.498 593.299 359.202 592.936C359.928 592.552 360.504 591.997 360.93 591.272C361.357 590.547 361.57 589.683 361.57 588.68C361.57 587.677 361.357 586.813 360.93 586.088C360.504 585.363 359.928 584.819 359.202 584.456C358.498 584.072 357.741 583.88 356.93 583.88C356.12 583.88 355.352 584.072 354.626 584.456C353.922 584.819 353.357 585.363 352.93 586.088C352.504 586.813 352.29 587.677 352.29 588.68ZM377.151 603.656C376.169 603.656 375.241 603.56 374.367 603.368C373.492 603.197 372.809 602.952 372.319 602.632V599.144C372.703 599.4 373.279 599.613 374.047 599.784C374.815 599.976 375.593 600.072 376.383 600.072C378.004 600.072 379.284 599.709 380.223 598.984C381.161 598.28 381.631 597.299 381.631 596.04V594.76H381.439C381.289 595.101 380.98 595.475 380.511 595.88C380.041 596.285 379.433 596.627 378.687 596.904C377.961 597.181 377.14 597.32 376.223 597.32C374.879 597.32 373.588 596.989 372.351 596.328C371.135 595.667 370.143 594.685 369.375 593.384C368.607 592.083 368.223 590.515 368.223 588.68C368.223 586.845 368.607 585.277 369.375 583.976C370.143 582.675 371.135 581.693 372.351 581.032C373.588 580.371 374.879 580.04 376.223 580.04C377.14 580.04 377.961 580.179 378.687 580.456C379.433 580.733 380.041 581.075 380.511 581.48C380.98 581.885 381.289 582.259 381.439 582.6H381.631V580.36H385.919V595.752C385.919 598.611 385.044 600.637 383.295 601.832C381.545 603.048 379.497 603.656 377.151 603.656ZM372.447 588.68C372.447 589.683 372.66 590.547 373.087 591.272C373.513 591.997 374.079 592.552 374.783 592.936C375.508 593.299 376.276 593.48 377.087 593.48C378.367 593.48 379.455 593.053 380.351 592.2C381.268 591.347 381.727 590.173 381.727 588.68C381.727 587.187 381.268 586.013 380.351 585.16C379.455 584.307 378.367 583.88 377.087 583.88C376.276 583.88 375.508 584.072 374.783 584.456C374.079 584.819 373.513 585.363 373.087 586.088C372.66 586.813 372.447 587.677 372.447 588.68ZM397.051 597.32C395.494 597.32 394.054 596.979 392.731 596.296C391.408 595.613 390.352 594.621 389.563 593.32C388.774 591.997 388.379 590.451 388.379 588.68C388.379 586.888 388.774 585.341 389.563 584.04C390.352 582.739 391.387 581.747 392.667 581.064C393.968 580.381 395.344 580.04 396.795 580.04C398.182 580.04 399.494 580.349 400.731 580.968C401.99 581.565 403.014 582.515 403.803 583.816C404.614 585.096 405.019 586.685 405.019 588.584C405.019 588.947 404.976 589.533 404.891 590.344H392.443C392.742 591.453 393.339 592.307 394.235 592.904C395.152 593.501 396.251 593.8 397.531 593.8C399.238 593.8 400.667 593.299 401.819 592.296L403.771 594.376C403.067 595.272 402.128 595.987 400.955 596.52C399.782 597.053 398.48 597.32 397.051 597.32ZM401.083 587.208C400.955 586.077 400.486 585.203 399.675 584.584C398.864 583.965 397.915 583.656 396.827 583.656C395.782 583.656 394.843 583.965 394.011 584.584C393.179 585.181 392.635 586.056 392.379 587.208H401.083ZM412.934 580.36H417.318L421.926 591.912L426.502 580.36H430.918L423.91 597H419.91L412.934 580.36ZM433.054 580.36H437.342V597H433.054V580.36ZM433.054 574.28H437.342V578.056H433.054V574.28ZM447.816 597.32C446.472 597.32 445.182 596.989 443.944 596.328C442.728 595.667 441.736 594.685 440.968 593.384C440.2 592.083 439.816 590.515 439.816 588.68C439.816 586.845 440.2 585.277 440.968 583.976C441.736 582.675 442.728 581.693 443.944 581.032C445.182 580.371 446.472 580.04 447.816 580.04C448.734 580.04 449.566 580.179 450.312 580.456C451.08 580.733 451.699 581.075 452.168 581.48C452.659 581.885 452.979 582.259 453.128 582.6H453.224V580.36H457.512V597H453.224V594.76H453.128C452.979 595.101 452.659 595.475 452.168 595.88C451.699 596.285 451.08 596.627 450.312 596.904C449.566 597.181 448.734 597.32 447.816 597.32ZM444.04 588.68C444.04 589.683 444.254 590.547 444.68 591.272C445.107 591.997 445.672 592.552 446.376 592.936C447.102 593.299 447.87 593.48 448.68 593.48C449.491 593.48 450.248 593.299 450.952 592.936C451.678 592.552 452.254 591.997 452.68 591.272C453.107 590.547 453.32 589.683 453.32 588.68C453.32 587.677 453.107 586.813 452.68 586.088C452.254 585.363 451.678 584.819 450.952 584.456C450.248 584.072 449.491 583.88 448.68 583.88C447.87 583.88 447.102 584.072 446.376 584.456C445.672 584.819 445.107 585.363 444.68 586.088C444.254 586.813 444.04 587.677 444.04 588.68ZM467.366 574.28H471.75V597H467.366V574.28ZM474.991 574.28H483.311C484.57 574.28 485.669 574.525 486.607 575.016C487.546 575.485 488.271 576.136 488.783 576.968C489.295 577.8 489.551 578.728 489.551 579.752C489.551 580.84 489.263 581.789 488.687 582.6C488.133 583.389 487.429 583.965 486.575 584.328C487.834 584.669 488.879 585.352 489.711 586.376C490.565 587.379 490.991 588.691 490.991 590.312C490.991 592.339 490.309 593.96 488.943 595.176C487.578 596.392 485.637 597 483.119 597H474.991V574.28ZM482.863 593.16C484.122 593.16 485.061 592.872 485.679 592.296C486.319 591.72 486.639 590.909 486.639 589.864C486.639 588.84 486.319 588.029 485.679 587.432C485.039 586.813 484.079 586.504 482.799 586.504H479.375V593.16H482.863ZM482.447 583.112C483.386 583.112 484.101 582.888 484.591 582.44C485.082 581.971 485.327 581.352 485.327 580.584C485.327 579.795 485.071 579.187 484.559 578.76C484.069 578.333 483.343 578.12 482.383 578.12H479.375V583.112H482.447ZM504.821 597.32C502.688 597.32 500.725 596.84 498.933 595.88C497.141 594.899 495.722 593.523 494.677 591.752C493.632 589.981 493.109 587.944 493.109 585.64C493.109 583.336 493.632 581.299 494.677 579.528C495.744 577.757 497.162 576.392 498.933 575.432C500.725 574.451 502.688 573.96 504.821 573.96C506.592 573.96 508.288 574.344 509.909 575.112C511.552 575.859 512.928 577.117 514.037 578.888L510.837 581.096C510.133 580.093 509.269 579.347 508.245 578.856C507.221 578.365 506.122 578.12 504.949 578.12C503.605 578.12 502.368 578.429 501.237 579.048C500.128 579.667 499.242 580.552 498.581 581.704C497.92 582.835 497.589 584.147 497.589 585.64C497.589 587.133 497.92 588.456 498.581 589.608C499.242 590.739 500.138 591.613 501.269 592.232C502.4 592.851 503.637 593.16 504.981 593.16C506.176 593.16 507.274 592.925 508.277 592.456C509.28 591.965 510.133 591.208 510.837 590.184L514.037 592.392C512.928 594.163 511.552 595.432 509.909 596.2C508.288 596.947 506.592 597.32 504.821 597.32Z" fill="black"/>
<path d="M296 754.5C296 738.76 308.76 726 324.5 726H498.5C514.24 726 527 738.76 527 754.5C527 770.24 514.24 783 498.5 783H324.5C308.76 783 296 770.24 296 754.5Z" fill="#404040"/>
<g clip-path="url(#clip2_4_765)">
<circle cx="348" cy="754.5" r="18" fill="white"/>
<path d="M349.391 750.705C349.417 749.149 350.518 747.838 352.023 747.543V744.5C350.484 744.66 349.055 745.383 348.004 746.543L347.886 746.678L347.769 746.543C346.718 745.374 345.297 744.66 343.75 744.5V747.543C345.255 747.838 346.356 749.149 346.381 750.696V758.507C346.356 760.062 345.255 761.373 343.75 761.668V764.711C345.289 764.551 346.718 763.828 347.769 762.668L347.886 762.534L348.004 762.668C349.055 763.837 350.476 764.551 352.023 764.711V761.668C350.518 761.373 349.417 760.062 349.391 758.515V750.705Z" fill="black"/>
</g>
<path d="M385.712 766.32H384.496C378.192 766.32 375.056 763.92 375.056 757.904V757.136C375.056 751.12 378.192 748.72 384.528 748.72H385.712C392.048 748.72 395.152 751.12 395.152 757.136V757.904C395.152 763.92 392.048 766.32 385.712 766.32ZM385.136 762.224C388.464 762.224 390.096 761.552 390.096 757.776V757.264C390.096 753.488 388.464 752.816 385.136 752.816C381.776 752.816 380.112 753.488 380.112 757.264V757.776C380.112 761.552 381.776 762.224 385.136 762.224ZM397.658 749.04H402.714V751.632H402.874C403.674 749.808 405.402 748.72 408.954 748.72H409.338C414.426 748.72 417.754 750.672 417.754 757.04V758C417.754 764.368 414.426 766.32 409.338 766.32H408.954C405.402 766.32 403.674 765.232 402.874 763.408H402.714V771.44H397.658V749.04ZM407.706 752.816C404.25 752.816 402.714 753.552 402.714 757.264V757.808C402.714 761.488 404.25 762.224 407.706 762.224C411.162 762.224 412.698 761.488 412.698 757.808V757.264C412.698 753.552 411.162 752.816 407.706 752.816ZM426.429 766H420.893V743.6H426.429V766ZM456.884 766H448.436L436.244 749.04H436.02V766H430.58V743.6H439.028L451.22 760.592H451.444V743.6H456.884V766ZM466.585 766H461.049V743.6H466.585V766ZM483.504 766H477.936V748.304H469.232V743.6H492.24V748.304H483.504V766Z" fill="white"/>
<path d="M296 415.5C296 399.76 308.76 387 324.5 387H498.5C514.24 387 527 399.76 527 415.5C527 431.24 514.24 444 498.5 444H324.5C308.76 444 296 431.24 296 415.5Z" fill="#404040"/>
<g clip-path="url(#clip3_4_765)">
<circle cx="322" cy="415.5" r="18" fill="white"/>
<path d="M323.391 411.705C323.417 410.149 324.518 408.838 326.023 408.543V405.5C324.484 405.66 323.055 406.383 322.004 407.543L321.886 407.677L321.769 407.543C320.718 406.374 319.297 405.66 317.75 405.5V408.543C319.255 408.838 320.356 410.149 320.381 411.696V419.507C320.356 421.062 319.255 422.373 317.75 422.668V425.711C319.289 425.551 320.718 424.828 321.769 423.668L321.886 423.534L322.004 423.668C323.055 424.837 324.476 425.551 326.023 425.711V422.668C324.518 422.373 323.417 421.062 323.391 419.515V411.705Z" fill="black"/>
</g>
<path d="M354.432 404.6V408.088H349.376V404.6H354.432ZM354.432 410.04V427H349.376V410.04H354.432ZM357.252 427V404.6H362.308V412.632H362.468C363.268 410.808 364.996 409.72 368.548 409.72H368.932C374.02 409.72 377.348 411.672 377.348 418.04V419C377.348 425.368 374.02 427.32 368.932 427.32H368.548C364.996 427.32 363.268 426.232 362.468 424.408H362.308V427H357.252ZM367.3 423.224C370.756 423.224 372.292 422.488 372.292 418.776V418.232C372.292 414.552 370.756 413.816 367.3 413.816C363.844 413.816 362.308 414.552 362.308 418.232V418.776C362.308 422.488 363.844 423.224 367.3 423.224ZM389.542 427.32H388.742C382.886 427.32 379.462 425.24 379.462 419V418.04C379.462 411.8 382.886 409.72 388.742 409.72H389.542C395.302 409.72 397.958 411.896 398.598 415.736H393.51C392.838 414.264 391.686 413.816 389.254 413.816C386.118 413.816 384.518 414.584 384.518 418.168V418.872C384.518 422.456 386.118 423.224 389.254 423.224C391.686 423.224 392.838 422.776 393.51 421.304H398.598C397.958 425.144 395.302 427.32 389.542 427.32ZM411.056 427.32H409.84C403.536 427.32 400.4 424.92 400.4 418.904V418.136C400.4 412.12 403.536 409.72 409.872 409.72H411.056C417.392 409.72 420.496 412.12 420.496 418.136V418.904C420.496 424.92 417.392 427.32 411.056 427.32ZM410.48 423.224C413.808 423.224 415.44 422.552 415.44 418.776V418.264C415.44 414.488 413.808 413.816 410.48 413.816C407.12 413.816 405.456 414.488 405.456 418.264V418.776C405.456 422.552 407.12 423.224 410.48 423.224ZM423.002 410.04H428.058V412.632H428.218C429.018 410.808 430.746 409.72 434.298 409.72H434.682C439.77 409.72 443.098 411.672 443.098 418.04V419C443.098 425.368 439.77 427.32 434.682 427.32H434.298C430.746 427.32 429.018 426.232 428.218 424.408H428.058V432.44H423.002V410.04ZM433.05 413.816C429.594 413.816 428.058 414.552 428.058 418.264V418.808C428.058 422.488 429.594 423.224 433.05 423.224C436.506 423.224 438.042 422.488 438.042 418.808V418.264C438.042 414.552 436.506 413.816 433.05 413.816ZM451.772 427H446.236V404.6H451.772V427ZM482.228 427H473.78L461.588 410.04H461.364V427H455.924V404.6H464.372L476.564 421.592H476.788V404.6H482.228V427ZM491.929 427H486.393V404.6H491.929V427ZM508.848 427H503.28V409.304H494.576V404.6H517.584V409.304H508.848V427Z" fill="white"/>
<rect x="238.5" y="332.5" width="61" height="61" rx="30.5" fill="white"/>
<rect x="238.5" y="332.5" width="61" height="61" rx="30.5" stroke="black" stroke-width="3"/>
<path d="M268.36 356.216H264.68V352.28H272.68V375H268.36V356.216Z" fill="black"/>
<defs>
<clipPath id="clip0_4_765">
<rect width="36" height="36" fill="white" transform="translate(1451 736.5)"/>
</clipPath>
<clipPath id="clip1_4_765">
<rect width="36" height="36" fill="white" transform="translate(1473.5 397.5)"/>
</clipPath>
<clipPath id="clip2_4_765">
<rect width="36" height="36" fill="white" transform="translate(330 736.5)"/>
</clipPath>
<clipPath id="clip3_4_765">
<rect width="36" height="36" fill="white" transform="translate(304 397.5)"/>
</clipPath>
</defs>
</svg>
