<svg width="1920" height="1556" viewBox="0 0 1920 1556" fill="none" xmlns="http://www.w3.org/2000/svg">
<rect width="1920" height="1556" fill="#F9FBFC"/>
<path opacity="0.4" d="M0 577H1920V0H0V577Z" fill="#B5B5B5"/>
<path d="M53.048 458.68H69.24V509.188H92.424V524H53.048V458.68ZM117.365 495.94C120.125 492.199 122.118 489.439 123.345 487.66C124.571 485.82 125.399 484.287 125.829 483.06C126.319 481.833 126.565 480.545 126.565 479.196C126.565 476.436 125.89 474.627 124.541 473.768C123.191 472.909 121.873 472.48 120.585 472.48C119.113 472.48 117.671 473.032 116.261 474.136C114.85 475.24 114.145 477.172 114.145 479.932V481.772H98.0446V478.644C98.0446 474.903 98.8726 471.468 100.529 468.34C102.185 465.151 104.699 462.605 108.073 460.704C111.507 458.741 115.739 457.76 120.769 457.76C125.307 457.76 129.294 458.588 132.729 460.244C136.163 461.9 138.801 464.169 140.641 467.052C142.481 469.935 143.401 473.216 143.401 476.896C143.401 479.411 142.941 481.803 142.021 484.072C141.162 486.341 140.089 488.427 138.801 490.328C137.574 492.168 135.642 494.867 133.005 498.424L124.633 510.016H143.309V524H96.8486L117.365 495.94Z" fill="#AEAEAE"/>
<path d="M53.048 634.68H69.24V685.188H92.424V700H53.048V634.68ZM110.833 649.124H99.2406V634.68H126.749V700H110.833V649.124Z" fill="#7C7C7C"/>
<rect x="642.5" y="176.5" width="644" height="243" rx="58.5" stroke="black" stroke-width="11"/>
<rect x="630" y="164" width="653" height="252" rx="63" fill="white" stroke="black" stroke-width="2"/>
<path d="M765.413 349.517C765.413 364.134 791.466 376 823.589 376C855.712 376 881.765 364.152 881.765 349.517V333.181H765.396V349.517H765.413Z" fill="#D7D7D7" stroke="#201F1D" stroke-width="2.82223" stroke-linejoin="round"/>
<path d="M823.589 359.663C855.718 359.663 881.765 347.807 881.765 333.181C881.765 318.555 855.718 306.698 823.589 306.698C791.459 306.698 765.413 318.555 765.413 333.181C765.413 347.807 791.459 359.663 823.589 359.663Z" fill="white" stroke="#201F1D" stroke-width="2.82223" stroke-miterlimit="10"/>
<path d="M798.5 326.921C798.5 341.538 824.552 353.404 856.675 353.404C888.798 353.404 914.851 341.555 914.851 326.921V310.585H798.482V326.921H798.5Z" fill="#D7D7D7" stroke="#201F1D" stroke-width="2.82223" stroke-linejoin="round"/>
<path d="M856.675 337.05C888.805 337.05 914.851 325.193 914.851 310.567C914.851 295.942 888.805 284.085 856.675 284.085C824.546 284.085 798.5 295.942 798.5 310.567C798.5 325.193 824.546 337.05 856.675 337.05Z" fill="white" stroke="#201F1D" stroke-width="2.82223" stroke-miterlimit="10"/>
<path d="M771.312 306.526C771.312 321.143 797.364 333.009 829.487 333.009C861.61 333.009 887.663 321.161 887.663 306.526V290.19L771.346 290.654C771.346 290.654 771.294 305.409 771.294 306.544L771.312 306.526Z" fill="#D7D7D7" stroke="#201F1D" stroke-width="2.82223" stroke-linejoin="round"/>
<path d="M829.504 316.655C861.634 316.655 887.68 304.798 887.68 290.172C887.68 275.547 861.634 263.69 829.504 263.69C797.375 263.69 771.329 275.547 771.329 290.172C771.329 304.798 797.375 316.655 829.504 316.655Z" fill="white" stroke="#201F1D" stroke-width="2.82223" stroke-miterlimit="10"/>
<path d="M770.332 292.924C775.697 287.335 790.09 283.328 807.012 283.328C828.507 283.328 845.927 289.794 845.927 297.773C845.927 305.753 828.507 312.218 807.012 312.218C798.482 312.218 789.936 309.347 783.521 307.627L770.332 292.941V292.924Z" fill="#D7D7D7"/>
<path d="M829.504 316.655C861.634 316.655 887.68 304.798 887.68 290.172C887.68 275.547 861.634 263.69 829.504 263.69C797.375 263.69 771.329 275.547 771.329 290.172C771.329 304.798 797.375 316.655 829.504 316.655Z" stroke="#201F1D" stroke-width="2.82223" stroke-miterlimit="10"/>
<path d="M826.22 300.267C807.889 297.859 789.54 284.412 788.783 260.319C787.941 233.39 804.054 208.283 827.613 201.439C836.847 198.756 853.683 199.547 863.966 206.185C865.531 207.2 868.111 209.143 869.538 210.329" fill="black"/>
<path d="M826.22 300.267C807.889 297.859 789.54 284.412 788.783 260.319C787.941 233.39 804.054 208.283 827.613 201.439C836.847 198.756 853.683 199.547 863.966 206.185C865.531 207.2 868.111 209.143 869.538 210.329" stroke="black" stroke-width="2.82223" stroke-linejoin="round"/>
<path d="M842.625 205.153C864.413 199.134 882.091 215.247 882.091 241.128C882.091 267.009 864.155 293.182 842.006 299.562C819.875 305.942 802.197 289.846 802.541 263.587C802.884 237.328 820.82 211.155 842.625 205.153Z" fill="white" stroke="black" stroke-width="2.82223" stroke-linejoin="round"/>
<path d="M845.721 241.18C845.807 237.087 848.249 232.977 851.567 231.274L851.602 223.312C848.214 224.671 845.067 227.44 842.729 231.137L842.471 231.567L842.213 231.292C839.926 228.867 836.813 227.87 833.408 228.403L833.339 236.399C836.641 236.244 839.048 239.013 839.083 243.054L838.945 263.552C838.859 267.645 836.4 271.789 833.047 273.509L832.978 281.505C836.4 280.112 839.582 277.309 841.937 273.595L842.195 273.165L842.453 273.44C844.758 275.848 847.905 276.811 851.344 276.243L851.378 268.281C848.042 268.453 845.635 265.719 845.6 261.678L845.721 241.197V241.18Z" fill="black"/>
<path d="M950.227 261C950.227 245.26 962.987 232.5 978.727 232.5H1108.73C1124.47 232.5 1137.23 245.26 1137.23 261V261C1137.23 276.74 1124.47 289.5 1108.73 289.5H978.727C962.987 289.5 950.227 276.74 950.227 261V261Z" fill="#404040"/>
<g clip-path="url(#clip0_1_167)">
<circle cx="980.227" cy="261" r="18" fill="white"/>
<path d="M981.619 257.205C981.644 255.649 982.745 254.338 984.25 254.043V251C982.712 251.16 981.282 251.883 980.231 253.043L980.114 253.177L979.996 253.043C978.945 251.874 977.524 251.16 975.977 251V254.043C977.482 254.338 978.584 255.649 978.609 257.196V265.007C978.584 266.562 977.482 267.873 975.977 268.168V271.211C977.516 271.051 978.945 270.328 979.996 269.168L980.114 269.034L980.231 269.168C981.282 270.337 982.703 271.051 984.25 271.211V268.168C982.745 267.873 981.644 266.562 981.619 265.015V257.205Z" fill="black"/>
</g>
<path d="M1017.94 272.82H1016.72C1010.42 272.82 1007.28 270.42 1007.28 264.404V263.636C1007.28 257.62 1010.42 255.22 1016.76 255.22H1017.94C1024.28 255.22 1027.38 257.62 1027.38 263.636V264.404C1027.38 270.42 1024.28 272.82 1017.94 272.82ZM1017.36 268.724C1020.69 268.724 1022.32 268.052 1022.32 264.276V263.764C1022.32 259.988 1020.69 259.316 1017.36 259.316C1014 259.316 1012.34 259.988 1012.34 263.764V264.276C1012.34 268.052 1014 268.724 1017.36 268.724ZM1029.89 255.54H1034.94V258.132H1035.1C1035.9 256.308 1037.63 255.22 1041.18 255.22H1041.57C1046.65 255.22 1049.98 257.172 1049.98 263.54V264.5C1049.98 270.868 1046.65 272.82 1041.57 272.82H1041.18C1037.63 272.82 1035.9 271.732 1035.1 269.908H1034.94V277.94H1029.89V255.54ZM1039.93 259.316C1036.48 259.316 1034.94 260.052 1034.94 263.764V264.308C1034.94 267.988 1036.48 268.724 1039.93 268.724C1043.39 268.724 1044.93 267.988 1044.93 264.308V263.764C1044.93 260.052 1043.39 259.316 1039.93 259.316ZM1058.66 272.5H1053.12V250.1H1058.66V272.5ZM1089.11 272.5H1080.66L1068.47 255.54H1068.25V272.5H1062.81V250.1H1071.26L1083.45 267.092H1083.67V250.1H1089.11V272.5ZM1098.81 272.5H1093.28V250.1H1098.81V272.5ZM1115.73 272.5H1110.16V254.804H1101.46V250.1H1124.47V254.804H1115.73V272.5Z" fill="white"/>
<path d="M980.218 330.82C978.725 330.82 977.306 330.489 975.962 329.828C974.618 329.145 973.53 328.153 972.698 326.852C971.866 325.529 971.45 323.972 971.45 322.18C971.45 320.388 971.866 318.841 972.698 317.54C973.53 316.217 974.618 315.225 975.962 314.564C977.306 313.881 978.725 313.54 980.218 313.54C981.711 313.54 983.13 313.881 984.474 314.564C985.818 315.225 986.906 316.217 987.738 317.54C988.57 318.841 988.986 320.388 988.986 322.18C988.986 323.972 988.57 325.529 987.738 326.852C986.906 328.153 985.818 329.145 984.474 329.828C983.13 330.489 981.711 330.82 980.218 330.82ZM975.674 322.18C975.674 323.14 975.877 323.983 976.282 324.708C976.709 325.433 977.263 325.988 977.946 326.372C978.65 326.756 979.407 326.948 980.218 326.948C981.029 326.948 981.775 326.756 982.458 326.372C983.141 325.988 983.685 325.433 984.09 324.708C984.517 323.983 984.73 323.14 984.73 322.18C984.73 321.22 984.517 320.377 984.09 319.652C983.685 318.927 983.141 318.372 982.458 317.988C981.775 317.604 981.029 317.412 980.218 317.412C979.407 317.412 978.65 317.604 977.946 317.988C977.263 318.372 976.709 318.927 976.282 319.652C975.877 320.377 975.674 321.22 975.674 322.18ZM991.437 313.86H995.725V316.132C996.216 315.343 996.888 314.713 997.741 314.244C998.595 313.775 999.619 313.54 1000.81 313.54C1002.65 313.54 1004.15 314.137 1005.33 315.332C1006.52 316.527 1007.12 318.319 1007.12 320.708V330.5H1002.83V321.412C1002.83 320.175 1002.51 319.193 1001.87 318.468C1001.25 317.743 1000.39 317.38 999.277 317.38C998.189 317.38 997.325 317.753 996.685 318.5C996.045 319.225 995.725 320.196 995.725 321.412V330.5H991.437V313.86ZM1016.97 307.78H1021.8L1029.22 324.9L1036.65 307.78H1041.48V330.5H1037.1V316.228H1036.94L1030.82 330.5H1027.59L1021.51 316.228H1021.35V330.5H1016.97V307.78ZM1044.75 313.86H1049.04V330.5H1044.75V313.86ZM1044.75 307.78H1049.04V311.556H1044.75V307.78ZM1052.31 313.86H1056.6V316.132C1057.09 315.343 1057.76 314.713 1058.62 314.244C1059.47 313.775 1060.49 313.54 1061.69 313.54C1063.52 313.54 1065.03 314.137 1066.2 315.332C1067.4 316.527 1067.99 318.319 1067.99 320.708V330.5H1063.7V321.412C1063.7 320.175 1063.38 319.193 1062.74 318.468C1062.13 317.743 1061.26 317.38 1060.15 317.38C1059.06 317.38 1058.2 317.753 1057.56 318.5C1056.92 319.225 1056.6 320.196 1056.6 321.412V330.5H1052.31V313.86ZM1071.25 313.86H1075.54V330.5H1071.25V313.86ZM1071.25 307.78H1075.54V311.556H1071.25V307.78ZM1085.24 330.692C1083.75 330.692 1082.57 330.308 1081.69 329.54C1080.82 328.751 1080.38 327.535 1080.38 325.892V317.284H1078.01V313.86H1080.38V309.604H1084.7V313.86H1088.12V317.284H1084.7V325.188C1084.7 325.679 1084.85 326.084 1085.15 326.404C1085.45 326.724 1085.93 326.884 1086.59 326.884C1087.1 326.884 1087.62 326.799 1088.16 326.628V329.924C1087.86 330.201 1087.44 330.393 1086.91 330.5C1086.4 330.628 1085.84 330.692 1085.24 330.692ZM1090.75 313.86H1095.04V330.5H1090.75V313.86ZM1090.75 307.78H1095.04V311.556H1090.75V307.78ZM1105.51 330.82C1104.17 330.82 1102.88 330.489 1101.64 329.828C1100.42 329.167 1099.43 328.185 1098.66 326.884C1097.9 325.583 1097.51 324.015 1097.51 322.18C1097.51 320.345 1097.9 318.777 1098.66 317.476C1099.43 316.175 1100.42 315.193 1101.64 314.532C1102.88 313.871 1104.17 313.54 1105.51 313.54C1106.43 313.54 1107.26 313.679 1108.01 313.956C1108.78 314.233 1109.4 314.575 1109.86 314.98C1110.36 315.385 1110.68 315.759 1110.82 316.1H1110.92V313.86H1115.21V330.5H1110.92V328.26H1110.82C1110.68 328.601 1110.36 328.975 1109.86 329.38C1109.4 329.785 1108.78 330.127 1108.01 330.404C1107.26 330.681 1106.43 330.82 1105.51 330.82ZM1101.74 322.18C1101.74 323.183 1101.95 324.047 1102.38 324.772C1102.8 325.497 1103.37 326.052 1104.07 326.436C1104.8 326.799 1105.57 326.98 1106.38 326.98C1107.19 326.98 1107.94 326.799 1108.65 326.436C1109.37 326.052 1109.95 325.497 1110.38 324.772C1110.8 324.047 1111.02 323.183 1111.02 322.18C1111.02 321.177 1110.8 320.313 1110.38 319.588C1109.95 318.863 1109.37 318.319 1108.65 317.956C1107.94 317.572 1107.19 317.38 1106.38 317.38C1105.57 317.38 1104.8 317.572 1104.07 317.956C1103.37 318.319 1102.8 318.863 1102.38 319.588C1101.95 320.313 1101.74 321.177 1101.74 322.18Z" fill="black"/>
<path d="M950.586 613.414C951.367 614.195 952.633 614.195 953.414 613.414L966.142 600.686C966.923 599.905 966.923 598.639 966.142 597.858C965.361 597.077 964.095 597.077 963.314 597.858L952 609.172L940.686 597.858C939.905 597.077 938.639 597.077 937.858 597.858C937.077 598.639 937.077 599.905 937.858 600.686L950.586 613.414ZM950 425L950 612L954 612L954 425L950 425Z" fill="black"/>
<rect x="693.5" y="633.5" width="525" height="245" rx="58.5" stroke="black" stroke-width="11"/>
<rect x="681" y="621" width="534" height="254" rx="63" fill="white" stroke="black" stroke-width="2"/>
<path d="M756.413 809.517C756.413 824.134 782.466 836 814.589 836C846.712 836 872.765 824.152 872.765 809.517V793.181H756.396V809.517H756.413Z" fill="#D7D7D7" stroke="#201F1D" stroke-width="2.82223" stroke-linejoin="round"/>
<path d="M814.589 819.663C846.718 819.663 872.765 807.807 872.765 793.181C872.765 778.555 846.718 766.698 814.589 766.698C782.459 766.698 756.413 778.555 756.413 793.181C756.413 807.807 782.459 819.663 814.589 819.663Z" fill="white" stroke="#201F1D" stroke-width="2.82223" stroke-miterlimit="10"/>
<path d="M789.5 786.921C789.5 801.538 815.552 813.404 847.675 813.404C879.798 813.404 905.851 801.555 905.851 786.921V770.585H789.482V786.921H789.5Z" fill="#D7D7D7" stroke="#201F1D" stroke-width="2.82223" stroke-linejoin="round"/>
<path d="M847.675 797.05C879.805 797.05 905.851 785.193 905.851 770.567C905.851 755.942 879.805 744.085 847.675 744.085C815.546 744.085 789.5 755.942 789.5 770.567C789.5 785.193 815.546 797.05 847.675 797.05Z" fill="white" stroke="#201F1D" stroke-width="2.82223" stroke-miterlimit="10"/>
<path d="M762.312 766.526C762.312 781.143 788.364 793.009 820.487 793.009C852.61 793.009 878.663 781.161 878.663 766.526V750.19L762.346 750.654C762.346 750.654 762.294 765.409 762.294 766.544L762.312 766.526Z" fill="#D7D7D7" stroke="#201F1D" stroke-width="2.82223" stroke-linejoin="round"/>
<path d="M820.504 776.655C852.634 776.655 878.68 764.798 878.68 750.172C878.68 735.547 852.634 723.69 820.504 723.69C788.375 723.69 762.329 735.547 762.329 750.172C762.329 764.798 788.375 776.655 820.504 776.655Z" fill="white" stroke="#201F1D" stroke-width="2.82223" stroke-miterlimit="10"/>
<path d="M761.332 752.924C766.697 747.335 781.09 743.328 798.012 743.328C819.507 743.328 836.927 749.794 836.927 757.773C836.927 765.753 819.507 772.218 798.012 772.218C789.482 772.218 780.936 769.347 774.521 767.627L761.332 752.941V752.924Z" fill="#D7D7D7"/>
<path d="M820.504 776.655C852.634 776.655 878.68 764.798 878.68 750.172C878.68 735.547 852.634 723.69 820.504 723.69C788.375 723.69 762.329 735.547 762.329 750.172C762.329 764.798 788.375 776.655 820.504 776.655Z" stroke="#201F1D" stroke-width="2.82223" stroke-miterlimit="10"/>
<path d="M817.22 760.267C798.889 757.859 780.54 744.412 779.783 720.319C778.941 693.39 795.054 668.283 818.613 661.439C827.847 658.756 844.683 659.547 854.966 666.185C856.531 667.2 859.111 669.143 860.538 670.329" fill="black"/>
<path d="M817.22 760.267C798.889 757.859 780.54 744.412 779.783 720.319C778.941 693.39 795.054 668.283 818.613 661.439C827.847 658.756 844.683 659.547 854.966 666.185C856.531 667.2 859.111 669.143 860.538 670.329" stroke="black" stroke-width="2.82223" stroke-linejoin="round"/>
<path d="M833.625 665.153C855.413 659.134 873.091 675.247 873.091 701.128C873.091 727.009 855.155 753.182 833.006 759.562C810.875 765.942 793.197 749.846 793.541 723.587C793.884 697.328 811.82 671.155 833.625 665.153Z" fill="white" stroke="black" stroke-width="2.82223" stroke-linejoin="round"/>
<path d="M836.721 701.18C836.807 697.087 839.249 692.977 842.567 691.274L842.602 683.312C839.214 684.671 836.067 687.44 833.729 691.137L833.471 691.567L833.213 691.292C830.926 688.867 827.813 687.87 824.408 688.403L824.339 696.399C827.641 696.244 830.048 699.013 830.083 703.054L829.945 723.552C829.859 727.645 827.4 731.789 824.047 733.509L823.978 741.505C827.4 740.112 830.582 737.309 832.937 733.595L833.195 733.165L833.453 733.44C835.758 735.848 838.905 736.811 842.344 736.243L842.378 728.281C839.042 728.453 836.635 725.719 836.6 721.678L836.721 701.197V701.18Z" fill="black"/>
<path d="M915.227 721C915.227 705.26 927.987 692.5 943.727 692.5H1125.73C1141.47 692.5 1154.23 705.26 1154.23 721C1154.23 736.74 1141.47 749.5 1125.73 749.5H943.727C927.987 749.5 915.227 736.74 915.227 721Z" fill="#404040"/>
<g clip-path="url(#clip1_1_167)">
<circle cx="945.227" cy="721" r="18" fill="white"/>
<path d="M946.619 717.205C946.644 715.649 947.745 714.338 949.25 714.043V711C947.712 711.16 946.282 711.883 945.231 713.043L945.114 713.177L944.996 713.043C943.945 711.874 942.524 711.16 940.977 711V714.043C942.482 714.338 943.584 715.649 943.609 717.196V725.007C943.584 726.562 942.482 727.873 940.977 728.168V731.211C942.516 731.051 943.945 730.328 944.996 729.168L945.114 729.034L945.231 729.168C946.282 730.337 947.703 731.051 949.25 731.211V728.168C947.745 727.873 946.644 726.562 946.619 725.015V717.205Z" fill="black"/>
</g>
<path d="M977.659 710.1V713.588H972.603V710.1H977.659ZM977.659 715.54V732.5H972.603V715.54H977.659ZM980.479 732.5V710.1H985.535V718.132H985.695C986.495 716.308 988.223 715.22 991.775 715.22H992.159C997.247 715.22 1000.58 717.172 1000.58 723.54V724.5C1000.58 730.868 997.247 732.82 992.159 732.82H991.775C988.223 732.82 986.495 731.732 985.695 729.908H985.535V732.5H980.479ZM990.527 728.724C993.983 728.724 995.519 727.988 995.519 724.276V723.732C995.519 720.052 993.983 719.316 990.527 719.316C987.071 719.316 985.535 720.052 985.535 723.732V724.276C985.535 727.988 987.071 728.724 990.527 728.724ZM1012.77 732.82H1011.97C1006.11 732.82 1002.69 730.74 1002.69 724.5V723.54C1002.69 717.3 1006.11 715.22 1011.97 715.22H1012.77C1018.53 715.22 1021.19 717.396 1021.83 721.236H1016.74C1016.07 719.764 1014.91 719.316 1012.48 719.316C1009.35 719.316 1007.75 720.084 1007.75 723.668V724.372C1007.75 727.956 1009.35 728.724 1012.48 728.724C1014.91 728.724 1016.07 728.276 1016.74 726.804H1021.83C1021.19 730.644 1018.53 732.82 1012.77 732.82ZM1034.28 732.82H1033.07C1026.76 732.82 1023.63 730.42 1023.63 724.404V723.636C1023.63 717.62 1026.76 715.22 1033.1 715.22H1034.28C1040.62 715.22 1043.72 717.62 1043.72 723.636V724.404C1043.72 730.42 1040.62 732.82 1034.28 732.82ZM1033.71 728.724C1037.04 728.724 1038.67 728.052 1038.67 724.276V723.764C1038.67 719.988 1037.04 719.316 1033.71 719.316C1030.35 719.316 1028.68 719.988 1028.68 723.764V724.276C1028.68 728.052 1030.35 728.724 1033.71 728.724ZM1046.23 715.54H1051.29V718.132H1051.45C1052.25 716.308 1053.97 715.22 1057.53 715.22H1057.91C1063 715.22 1066.33 717.172 1066.33 723.54V724.5C1066.33 730.868 1063 732.82 1057.91 732.82H1057.53C1053.97 732.82 1052.25 731.732 1051.45 729.908H1051.29V737.94H1046.23V715.54ZM1056.28 719.316C1052.82 719.316 1051.29 720.052 1051.29 723.764V724.308C1051.29 727.988 1052.82 728.724 1056.28 728.724C1059.73 728.724 1061.27 727.988 1061.27 724.308V723.764C1061.27 720.052 1059.73 719.316 1056.28 719.316ZM1075 732.5H1069.46V710.1H1075V732.5ZM1105.46 732.5H1097.01L1084.82 715.54H1084.59V732.5H1079.15V710.1H1087.6L1099.79 727.092H1100.02V710.1H1105.46V732.5ZM1115.16 732.5H1109.62V710.1H1115.16V732.5ZM1132.08 732.5H1126.51V714.804H1117.8V710.1H1140.81V714.804H1132.08V732.5Z" fill="white"/>
<path d="M1008.03 790.82C1006.54 790.82 1005.12 790.489 1003.77 789.828C1002.43 789.145 1001.34 788.153 1000.51 786.852C999.678 785.529 999.262 783.972 999.262 782.18C999.262 780.388 999.678 778.841 1000.51 777.54C1001.34 776.217 1002.43 775.225 1003.77 774.564C1005.12 773.881 1006.54 773.54 1008.03 773.54C1009.52 773.54 1010.94 773.881 1012.29 774.564C1013.63 775.225 1014.72 776.217 1015.55 777.54C1016.38 778.841 1016.8 780.388 1016.8 782.18C1016.8 783.972 1016.38 785.529 1015.55 786.852C1014.72 788.153 1013.63 789.145 1012.29 789.828C1010.94 790.489 1009.52 790.82 1008.03 790.82ZM1003.49 782.18C1003.49 783.14 1003.69 783.983 1004.09 784.708C1004.52 785.433 1005.08 785.988 1005.76 786.372C1006.46 786.756 1007.22 786.948 1008.03 786.948C1008.84 786.948 1009.59 786.756 1010.27 786.372C1010.95 785.988 1011.5 785.433 1011.9 784.708C1012.33 783.983 1012.54 783.14 1012.54 782.18C1012.54 781.22 1012.33 780.377 1011.9 779.652C1011.5 778.927 1010.95 778.372 1010.27 777.988C1009.59 777.604 1008.84 777.412 1008.03 777.412C1007.22 777.412 1006.46 777.604 1005.76 777.988C1005.08 778.372 1004.52 778.927 1004.09 779.652C1003.69 780.377 1003.49 781.22 1003.49 782.18ZM1019.25 773.86H1023.54V776.132C1024.03 775.343 1024.7 774.713 1025.55 774.244C1026.41 773.775 1027.43 773.54 1028.63 773.54C1030.46 773.54 1031.96 774.137 1033.14 775.332C1034.33 776.527 1034.93 778.319 1034.93 780.708V790.5H1030.64V781.412C1030.64 780.175 1030.32 779.193 1029.68 778.468C1029.06 777.743 1028.2 777.38 1027.09 777.38C1026 777.38 1025.14 777.753 1024.5 778.5C1023.86 779.225 1023.54 780.196 1023.54 781.412V790.5H1019.25V773.86ZM1044.78 767.78H1049.17V786.468H1058.03V790.5H1044.78V767.78ZM1064.37 771.716H1060.69V767.78H1068.69V790.5H1064.37V771.716Z" fill="black"/>
<path d="M950.586 973.414C951.367 974.195 952.633 974.195 953.414 973.414L966.142 960.686C966.923 959.905 966.923 958.639 966.142 957.858C965.361 957.077 964.095 957.077 963.314 957.858L952 969.172L940.686 957.858C939.905 957.077 938.639 957.077 937.858 957.858C937.077 958.639 937.077 959.905 937.858 960.686L950.586 973.414ZM950 892L950 972L954 972L954 892L950 892Z" fill="black"/>
<rect x="669" y="980" width="566" height="120" rx="32" fill="black"/>
<path d="M815.927 1026.6H821.967L831.247 1048L840.527 1026.6H846.567V1055H841.087V1037.16H840.887L833.247 1055H829.207L821.607 1037.16H821.407V1055H815.927V1026.6ZM850.653 1034.2H856.013V1055H850.653V1034.2ZM850.653 1026.6H856.013V1031.32H850.653V1026.6ZM860.107 1034.2H865.467V1037.04C866.08 1036.05 866.92 1035.27 867.987 1034.68C869.053 1034.09 870.333 1033.8 871.827 1033.8C874.12 1033.8 876 1034.55 877.467 1036.04C878.96 1037.53 879.707 1039.77 879.707 1042.76V1055H874.347V1043.64C874.347 1042.09 873.947 1040.87 873.147 1039.96C872.373 1039.05 871.293 1038.6 869.907 1038.6C868.547 1038.6 867.467 1039.07 866.667 1040C865.867 1040.91 865.467 1042.12 865.467 1043.64V1055H860.107V1034.2ZM883.778 1034.2H889.138V1055H883.778V1034.2ZM883.778 1026.6H889.138V1031.32H883.778V1026.6ZM901.272 1055.24C899.405 1055.24 897.925 1054.76 896.832 1053.8C895.738 1052.81 895.192 1051.29 895.192 1049.24V1038.48H892.232V1034.2H895.192V1028.88H900.592V1034.2H904.872V1038.48H900.592V1048.36C900.592 1048.97 900.778 1049.48 901.152 1049.88C901.525 1050.28 902.125 1050.48 902.952 1050.48C903.592 1050.48 904.245 1050.37 904.912 1050.16V1054.28C904.538 1054.63 904.018 1054.87 903.352 1055C902.712 1055.16 902.018 1055.24 901.272 1055.24ZM914.949 1055.4C912.842 1055.4 911.095 1054.91 909.709 1053.92C908.322 1052.91 907.469 1051.45 907.149 1049.56L911.429 1048.4C911.669 1049.17 912.069 1049.83 912.629 1050.36C913.189 1050.89 913.935 1051.16 914.869 1051.16C915.615 1051.16 916.242 1050.97 916.749 1050.6C917.282 1050.23 917.549 1049.69 917.549 1049C917.549 1048.49 917.362 1048.05 916.989 1047.68C916.642 1047.31 916.069 1046.97 915.269 1046.68L912.709 1045.72C911.055 1045.13 909.829 1044.32 909.029 1043.28C908.229 1042.24 907.829 1041.07 907.829 1039.76C907.829 1038.56 908.149 1037.51 908.789 1036.6C909.429 1035.69 910.295 1035 911.389 1034.52C912.509 1034.04 913.722 1033.8 915.029 1033.8C916.895 1033.8 918.469 1034.29 919.749 1035.28C921.055 1036.24 921.882 1037.52 922.229 1039.12L918.029 1040.2C917.549 1038.73 916.629 1038 915.269 1038C914.575 1038 914.029 1038.17 913.629 1038.52C913.229 1038.87 913.029 1039.29 913.029 1039.8C913.029 1040.79 913.749 1041.52 915.189 1042L917.509 1042.88C919.109 1043.47 920.402 1044.23 921.389 1045.16C922.375 1046.07 922.869 1047.35 922.869 1049C922.869 1051 922.109 1052.57 920.589 1053.72C919.095 1054.84 917.215 1055.4 914.949 1055.4ZM941.036 1040.92L935.876 1055H930.956L923.316 1034.2H928.636L933.476 1048.6L938.556 1034.2H943.476L948.556 1048.6L953.436 1034.2H958.756L951.116 1055H946.196L941.036 1040.92ZM969.224 1055.4C967.544 1055.4 965.93 1054.99 964.384 1054.16C962.864 1053.33 961.624 1052.11 960.664 1050.48C959.704 1048.85 959.224 1046.89 959.224 1044.6C959.224 1042.31 959.704 1040.35 960.664 1038.72C961.624 1037.09 962.864 1035.87 964.384 1035.04C965.93 1034.21 967.544 1033.8 969.224 1033.8C970.37 1033.8 971.41 1033.97 972.344 1034.32C973.304 1034.67 974.077 1035.09 974.664 1035.6C975.277 1036.11 975.677 1036.57 975.864 1037H975.984V1034.2H981.344V1055H975.984V1052.2H975.864C975.677 1052.63 975.277 1053.09 974.664 1053.6C974.077 1054.11 973.304 1054.53 972.344 1054.88C971.41 1055.23 970.37 1055.4 969.224 1055.4ZM964.504 1044.6C964.504 1045.85 964.77 1046.93 965.304 1047.84C965.837 1048.75 966.544 1049.44 967.424 1049.92C968.33 1050.37 969.29 1050.6 970.304 1050.6C971.317 1050.6 972.264 1050.37 973.144 1049.92C974.05 1049.44 974.77 1048.75 975.304 1047.84C975.837 1046.93 976.104 1045.85 976.104 1044.6C976.104 1043.35 975.837 1042.27 975.304 1041.36C974.77 1040.45 974.05 1039.77 973.144 1039.32C972.264 1038.84 971.317 1038.6 970.304 1038.6C969.29 1038.6 968.33 1038.84 967.424 1039.32C966.544 1039.77 965.837 1040.45 965.304 1041.36C964.77 1042.27 964.504 1043.35 964.504 1044.6ZM985.419 1034.2H990.779V1037H990.899C991.086 1036.57 991.472 1036.11 992.059 1035.6C992.672 1035.09 993.446 1034.67 994.379 1034.32C995.339 1033.97 996.392 1033.8 997.539 1033.8C999.219 1033.8 1000.82 1034.21 1002.34 1035.04C1003.89 1035.87 1005.14 1037.09 1006.1 1038.72C1007.06 1040.35 1007.54 1042.31 1007.54 1044.6C1007.54 1046.89 1007.06 1048.85 1006.1 1050.48C1005.14 1052.11 1003.89 1053.33 1002.34 1054.16C1000.82 1054.99 999.219 1055.4 997.539 1055.4C996.392 1055.4 995.339 1055.23 994.379 1054.88C993.446 1054.53 992.672 1054.11 992.059 1053.6C991.472 1053.09 991.086 1052.63 990.899 1052.2H990.779V1062.6H985.419V1034.2ZM990.659 1044.6C990.659 1045.85 990.926 1046.93 991.459 1047.84C991.992 1048.75 992.699 1049.44 993.579 1049.92C994.486 1050.37 995.446 1050.6 996.459 1050.6C997.472 1050.6 998.419 1050.37 999.299 1049.92C1000.21 1049.44 1000.93 1048.75 1001.46 1047.84C1001.99 1046.93 1002.26 1045.85 1002.26 1044.6C1002.26 1043.35 1001.99 1042.27 1001.46 1041.36C1000.93 1040.45 1000.21 1039.77 999.299 1039.32C998.419 1038.84 997.472 1038.6 996.459 1038.6C995.446 1038.6 994.486 1038.84 993.579 1039.32C992.699 1039.77 991.992 1040.45 991.459 1041.36C990.926 1042.27 990.659 1043.35 990.659 1044.6ZM1018.86 1026.6H1029.14C1031.72 1026.6 1034.06 1027.2 1036.14 1028.4C1038.24 1029.6 1039.88 1031.28 1041.06 1033.44C1042.26 1035.6 1042.86 1038.05 1042.86 1040.8C1042.86 1043.55 1042.26 1046 1041.06 1048.16C1039.88 1050.32 1038.24 1052 1036.14 1053.2C1034.06 1054.4 1031.72 1055 1029.14 1055H1018.86V1026.6ZM1028.94 1049.84C1031.58 1049.84 1033.6 1049.03 1035.02 1047.4C1036.43 1045.75 1037.14 1043.55 1037.14 1040.8C1037.14 1038.05 1036.43 1035.87 1035.02 1034.24C1033.6 1032.59 1031.58 1031.76 1028.94 1031.76H1024.34V1049.84H1028.94ZM1046.08 1026.6H1062.16V1031.64H1051.56V1038.24H1060.48V1043.2H1051.56V1049.96H1062.52V1055H1046.08V1026.6ZM1077.02 1045.4L1070.58 1055H1064.18L1073.82 1040.6L1064.42 1026.6H1070.82L1077.02 1035.84L1083.18 1026.6H1089.58L1080.22 1040.6L1089.86 1055H1083.46L1077.02 1045.4Z" fill="white"/>
<path d="M815.927 1026.6H821.967L831.247 1048L840.527 1026.6H846.567V1055H841.087V1037.16H840.887L833.247 1055H829.207L821.607 1037.16H821.407V1055H815.927V1026.6ZM850.653 1034.2H856.013V1055H850.653V1034.2ZM850.653 1026.6H856.013V1031.32H850.653V1026.6ZM860.107 1034.2H865.467V1037.04C866.08 1036.05 866.92 1035.27 867.987 1034.68C869.053 1034.09 870.333 1033.8 871.827 1033.8C874.12 1033.8 876 1034.55 877.467 1036.04C878.96 1037.53 879.707 1039.77 879.707 1042.76V1055H874.347V1043.64C874.347 1042.09 873.947 1040.87 873.147 1039.96C872.373 1039.05 871.293 1038.6 869.907 1038.6C868.547 1038.6 867.467 1039.07 866.667 1040C865.867 1040.91 865.467 1042.12 865.467 1043.64V1055H860.107V1034.2ZM883.778 1034.2H889.138V1055H883.778V1034.2ZM883.778 1026.6H889.138V1031.32H883.778V1026.6ZM901.272 1055.24C899.405 1055.24 897.925 1054.76 896.832 1053.8C895.738 1052.81 895.192 1051.29 895.192 1049.24V1038.48H892.232V1034.2H895.192V1028.88H900.592V1034.2H904.872V1038.48H900.592V1048.36C900.592 1048.97 900.778 1049.48 901.152 1049.88C901.525 1050.28 902.125 1050.48 902.952 1050.48C903.592 1050.48 904.245 1050.37 904.912 1050.16V1054.28C904.538 1054.63 904.018 1054.87 903.352 1055C902.712 1055.16 902.018 1055.24 901.272 1055.24ZM914.949 1055.4C912.842 1055.4 911.095 1054.91 909.709 1053.92C908.322 1052.91 907.469 1051.45 907.149 1049.56L911.429 1048.4C911.669 1049.17 912.069 1049.83 912.629 1050.36C913.189 1050.89 913.935 1051.16 914.869 1051.16C915.615 1051.16 916.242 1050.97 916.749 1050.6C917.282 1050.23 917.549 1049.69 917.549 1049C917.549 1048.49 917.362 1048.05 916.989 1047.68C916.642 1047.31 916.069 1046.97 915.269 1046.68L912.709 1045.72C911.055 1045.13 909.829 1044.32 909.029 1043.28C908.229 1042.24 907.829 1041.07 907.829 1039.76C907.829 1038.56 908.149 1037.51 908.789 1036.6C909.429 1035.69 910.295 1035 911.389 1034.52C912.509 1034.04 913.722 1033.8 915.029 1033.8C916.895 1033.8 918.469 1034.29 919.749 1035.28C921.055 1036.24 921.882 1037.52 922.229 1039.12L918.029 1040.2C917.549 1038.73 916.629 1038 915.269 1038C914.575 1038 914.029 1038.17 913.629 1038.52C913.229 1038.87 913.029 1039.29 913.029 1039.8C913.029 1040.79 913.749 1041.52 915.189 1042L917.509 1042.88C919.109 1043.47 920.402 1044.23 921.389 1045.16C922.375 1046.07 922.869 1047.35 922.869 1049C922.869 1051 922.109 1052.57 920.589 1053.72C919.095 1054.84 917.215 1055.4 914.949 1055.4ZM941.036 1040.92L935.876 1055H930.956L923.316 1034.2H928.636L933.476 1048.6L938.556 1034.2H943.476L948.556 1048.6L953.436 1034.2H958.756L951.116 1055H946.196L941.036 1040.92ZM969.224 1055.4C967.544 1055.4 965.93 1054.99 964.384 1054.16C962.864 1053.33 961.624 1052.11 960.664 1050.48C959.704 1048.85 959.224 1046.89 959.224 1044.6C959.224 1042.31 959.704 1040.35 960.664 1038.72C961.624 1037.09 962.864 1035.87 964.384 1035.04C965.93 1034.21 967.544 1033.8 969.224 1033.8C970.37 1033.8 971.41 1033.97 972.344 1034.32C973.304 1034.67 974.077 1035.09 974.664 1035.6C975.277 1036.11 975.677 1036.57 975.864 1037H975.984V1034.2H981.344V1055H975.984V1052.2H975.864C975.677 1052.63 975.277 1053.09 974.664 1053.6C974.077 1054.11 973.304 1054.53 972.344 1054.88C971.41 1055.23 970.37 1055.4 969.224 1055.4ZM964.504 1044.6C964.504 1045.85 964.77 1046.93 965.304 1047.84C965.837 1048.75 966.544 1049.44 967.424 1049.92C968.33 1050.37 969.29 1050.6 970.304 1050.6C971.317 1050.6 972.264 1050.37 973.144 1049.92C974.05 1049.44 974.77 1048.75 975.304 1047.84C975.837 1046.93 976.104 1045.85 976.104 1044.6C976.104 1043.35 975.837 1042.27 975.304 1041.36C974.77 1040.45 974.05 1039.77 973.144 1039.32C972.264 1038.84 971.317 1038.6 970.304 1038.6C969.29 1038.6 968.33 1038.84 967.424 1039.32C966.544 1039.77 965.837 1040.45 965.304 1041.36C964.77 1042.27 964.504 1043.35 964.504 1044.6ZM985.419 1034.2H990.779V1037H990.899C991.086 1036.57 991.472 1036.11 992.059 1035.6C992.672 1035.09 993.446 1034.67 994.379 1034.32C995.339 1033.97 996.392 1033.8 997.539 1033.8C999.219 1033.8 1000.82 1034.21 1002.34 1035.04C1003.89 1035.87 1005.14 1037.09 1006.1 1038.72C1007.06 1040.35 1007.54 1042.31 1007.54 1044.6C1007.54 1046.89 1007.06 1048.85 1006.1 1050.48C1005.14 1052.11 1003.89 1053.33 1002.34 1054.16C1000.82 1054.99 999.219 1055.4 997.539 1055.4C996.392 1055.4 995.339 1055.23 994.379 1054.88C993.446 1054.53 992.672 1054.11 992.059 1053.6C991.472 1053.09 991.086 1052.63 990.899 1052.2H990.779V1062.6H985.419V1034.2ZM990.659 1044.6C990.659 1045.85 990.926 1046.93 991.459 1047.84C991.992 1048.75 992.699 1049.44 993.579 1049.92C994.486 1050.37 995.446 1050.6 996.459 1050.6C997.472 1050.6 998.419 1050.37 999.299 1049.92C1000.21 1049.44 1000.93 1048.75 1001.46 1047.84C1001.99 1046.93 1002.26 1045.85 1002.26 1044.6C1002.26 1043.35 1001.99 1042.27 1001.46 1041.36C1000.93 1040.45 1000.21 1039.77 999.299 1039.32C998.419 1038.84 997.472 1038.6 996.459 1038.6C995.446 1038.6 994.486 1038.84 993.579 1039.32C992.699 1039.77 991.992 1040.45 991.459 1041.36C990.926 1042.27 990.659 1043.35 990.659 1044.6ZM1018.86 1026.6H1029.14C1031.72 1026.6 1034.06 1027.2 1036.14 1028.4C1038.24 1029.6 1039.88 1031.28 1041.06 1033.44C1042.26 1035.6 1042.86 1038.05 1042.86 1040.8C1042.86 1043.55 1042.26 1046 1041.06 1048.16C1039.88 1050.32 1038.24 1052 1036.14 1053.2C1034.06 1054.4 1031.72 1055 1029.14 1055H1018.86V1026.6ZM1028.94 1049.84C1031.58 1049.84 1033.6 1049.03 1035.02 1047.4C1036.43 1045.75 1037.14 1043.55 1037.14 1040.8C1037.14 1038.05 1036.43 1035.87 1035.02 1034.24C1033.6 1032.59 1031.58 1031.76 1028.94 1031.76H1024.34V1049.84H1028.94ZM1046.08 1026.6H1062.16V1031.64H1051.56V1038.24H1060.48V1043.2H1051.56V1049.96H1062.52V1055H1046.08V1026.6ZM1077.02 1045.4L1070.58 1055H1064.18L1073.82 1040.6L1064.42 1026.6H1070.82L1077.02 1035.84L1083.18 1026.6H1089.58L1080.22 1040.6L1089.86 1055H1083.46L1077.02 1045.4Z" fill="white"/>
<path d="M950.586 1189.41C951.367 1190.2 952.633 1190.2 953.414 1189.41L966.142 1176.69C966.923 1175.91 966.923 1174.64 966.142 1173.86C965.361 1173.08 964.095 1173.08 963.314 1173.86L952 1185.17L940.686 1173.86C939.905 1173.08 938.639 1173.08 937.858 1173.86C937.077 1174.64 937.077 1175.91 937.858 1176.69L950.586 1189.41ZM950 1108L950 1188L954 1188L954 1108L950 1108Z" fill="black"/>
<path d="M989.974 1305.91L981.75 1292.28H986.71L992.15 1301.78L997.622 1292.28H1002.58L994.358 1305.91V1315H989.974V1305.91ZM1008.55 1315.32C1006.99 1315.32 1005.55 1314.98 1004.23 1314.3C1002.91 1313.61 1001.85 1312.62 1001.06 1311.32C1000.27 1310 999.879 1308.45 999.879 1306.68C999.879 1304.89 1000.27 1303.34 1001.06 1302.04C1001.85 1300.74 1002.89 1299.75 1004.17 1299.06C1005.47 1298.38 1006.84 1298.04 1008.29 1298.04C1009.68 1298.04 1010.99 1298.35 1012.23 1298.97C1013.49 1299.57 1014.51 1300.51 1015.3 1301.82C1016.11 1303.1 1016.52 1304.69 1016.52 1306.58C1016.52 1306.95 1016.48 1307.53 1016.39 1308.34H1003.94C1004.24 1309.45 1004.84 1310.31 1005.73 1310.9C1006.65 1311.5 1007.75 1311.8 1009.03 1311.8C1010.74 1311.8 1012.17 1311.3 1013.32 1310.3L1015.27 1312.38C1014.57 1313.27 1013.63 1313.99 1012.45 1314.52C1011.28 1315.05 1009.98 1315.32 1008.55 1315.32ZM1012.58 1305.21C1012.45 1304.08 1011.99 1303.2 1011.17 1302.58C1010.36 1301.97 1009.41 1301.66 1008.33 1301.66C1007.28 1301.66 1006.34 1301.97 1005.51 1302.58C1004.68 1303.18 1004.13 1304.06 1003.88 1305.21H1012.58ZM1023.77 1315.32C1022.09 1315.32 1020.69 1314.93 1019.58 1314.14C1018.47 1313.33 1017.79 1312.16 1017.53 1310.65L1020.96 1309.72C1021.15 1310.34 1021.47 1310.86 1021.92 1311.29C1022.36 1311.71 1022.96 1311.93 1023.71 1311.93C1024.3 1311.93 1024.81 1311.78 1025.21 1311.48C1025.64 1311.18 1025.85 1310.75 1025.85 1310.2C1025.85 1309.79 1025.7 1309.44 1025.4 1309.14C1025.13 1308.85 1024.67 1308.58 1024.03 1308.34L1021.98 1307.58C1020.66 1307.11 1019.68 1306.46 1019.04 1305.62C1018.4 1304.79 1018.08 1303.85 1018.08 1302.81C1018.08 1301.85 1018.33 1301.01 1018.84 1300.28C1019.36 1299.55 1020.05 1299 1020.92 1298.62C1021.82 1298.23 1022.79 1298.04 1023.84 1298.04C1025.33 1298.04 1026.59 1298.43 1027.61 1299.22C1028.66 1299.99 1029.32 1301.02 1029.6 1302.3L1026.24 1303.16C1025.85 1301.99 1025.12 1301.4 1024.03 1301.4C1023.47 1301.4 1023.04 1301.54 1022.72 1301.82C1022.4 1302.09 1022.24 1302.43 1022.24 1302.84C1022.24 1303.63 1022.81 1304.22 1023.96 1304.6L1025.82 1305.3C1027.1 1305.77 1028.13 1306.38 1028.92 1307.13C1029.71 1307.85 1030.11 1308.88 1030.11 1310.2C1030.11 1311.8 1029.5 1313.06 1028.28 1313.98C1027.09 1314.87 1025.58 1315.32 1023.77 1315.32Z" fill="black"/>
<rect x="693.5" y="1209.5" width="525" height="245" rx="58.5" stroke="black" stroke-width="11"/>
<rect x="681" y="1197" width="534" height="254" rx="63" fill="white" stroke="black" stroke-width="2"/>
<path d="M756.413 1385.52C756.413 1400.13 782.466 1412 814.589 1412C846.712 1412 872.765 1400.15 872.765 1385.52V1369.18H756.396V1385.52H756.413Z" fill="#D7D7D7" stroke="#201F1D" stroke-width="2.82223" stroke-linejoin="round"/>
<path d="M814.589 1395.66C846.718 1395.66 872.765 1383.81 872.765 1369.18C872.765 1354.55 846.718 1342.7 814.589 1342.7C782.459 1342.7 756.413 1354.55 756.413 1369.18C756.413 1383.81 782.459 1395.66 814.589 1395.66Z" fill="white" stroke="#201F1D" stroke-width="2.82223" stroke-miterlimit="10"/>
<path d="M789.5 1362.92C789.5 1377.54 815.552 1389.4 847.675 1389.4C879.798 1389.4 905.851 1377.56 905.851 1362.92V1346.58H789.482V1362.92H789.5Z" fill="#D7D7D7" stroke="#201F1D" stroke-width="2.82223" stroke-linejoin="round"/>
<path d="M847.675 1373.05C879.805 1373.05 905.851 1361.19 905.851 1346.57C905.851 1331.94 879.805 1320.08 847.675 1320.08C815.546 1320.08 789.5 1331.94 789.5 1346.57C789.5 1361.19 815.546 1373.05 847.675 1373.05Z" fill="white" stroke="#201F1D" stroke-width="2.82223" stroke-miterlimit="10"/>
<path d="M762.312 1342.53C762.312 1357.14 788.364 1369.01 820.487 1369.01C852.61 1369.01 878.663 1357.16 878.663 1342.53V1326.19L762.346 1326.65C762.346 1326.65 762.294 1341.41 762.294 1342.54L762.312 1342.53Z" fill="#D7D7D7" stroke="#201F1D" stroke-width="2.82223" stroke-linejoin="round"/>
<path d="M820.504 1352.65C852.634 1352.65 878.68 1340.8 878.68 1326.17C878.68 1311.55 852.634 1299.69 820.504 1299.69C788.375 1299.69 762.329 1311.55 762.329 1326.17C762.329 1340.8 788.375 1352.65 820.504 1352.65Z" fill="white" stroke="#201F1D" stroke-width="2.82223" stroke-miterlimit="10"/>
<path d="M761.332 1328.92C766.697 1323.34 781.09 1319.33 798.012 1319.33C819.507 1319.33 836.927 1325.79 836.927 1333.77C836.927 1341.75 819.507 1348.22 798.012 1348.22C789.482 1348.22 780.936 1345.35 774.521 1343.63L761.332 1328.94V1328.92Z" fill="#D7D7D7"/>
<path d="M820.504 1352.65C852.634 1352.65 878.68 1340.8 878.68 1326.17C878.68 1311.55 852.634 1299.69 820.504 1299.69C788.375 1299.69 762.329 1311.55 762.329 1326.17C762.329 1340.8 788.375 1352.65 820.504 1352.65Z" stroke="#201F1D" stroke-width="2.82223" stroke-miterlimit="10"/>
<path d="M817.22 1336.27C798.889 1333.86 780.54 1320.41 779.783 1296.32C778.941 1269.39 795.054 1244.28 818.613 1237.44C827.847 1234.76 844.683 1235.55 854.966 1242.18C856.531 1243.2 859.111 1245.14 860.538 1246.33" fill="black"/>
<path d="M817.22 1336.27C798.889 1333.86 780.54 1320.41 779.783 1296.32C778.941 1269.39 795.054 1244.28 818.613 1237.44C827.847 1234.76 844.683 1235.55 854.966 1242.18C856.531 1243.2 859.111 1245.14 860.538 1246.33" stroke="black" stroke-width="2.82223" stroke-linejoin="round"/>
<path d="M833.625 1241.15C855.413 1235.13 873.091 1251.25 873.091 1277.13C873.091 1303.01 855.155 1329.18 833.006 1335.56C810.875 1341.94 793.197 1325.85 793.541 1299.59C793.884 1273.33 811.82 1247.15 833.625 1241.15Z" fill="white" stroke="black" stroke-width="2.82223" stroke-linejoin="round"/>
<path d="M836.721 1277.18C836.807 1273.09 839.249 1268.98 842.567 1267.27L842.602 1259.31C839.214 1260.67 836.067 1263.44 833.729 1267.14L833.471 1267.57L833.213 1267.29C830.926 1264.87 827.813 1263.87 824.408 1264.4L824.339 1272.4C827.641 1272.24 830.048 1275.01 830.083 1279.05L829.945 1299.55C829.859 1303.64 827.4 1307.79 824.047 1309.51L823.978 1317.51C827.4 1316.11 830.582 1313.31 832.937 1309.59L833.195 1309.16L833.453 1309.44C835.758 1311.85 838.905 1312.81 842.344 1312.24L842.378 1304.28C839.042 1304.45 836.635 1301.72 836.6 1297.68L836.721 1277.2V1277.18Z" fill="black"/>
<path d="M963.727 1297C963.727 1281.26 976.487 1268.5 992.227 1268.5H1077.23C1092.97 1268.5 1105.73 1281.26 1105.73 1297C1105.73 1312.74 1092.97 1325.5 1077.23 1325.5H992.227C976.487 1325.5 963.727 1312.74 963.727 1297Z" fill="#404040"/>
<g clip-path="url(#clip2_1_167)">
<circle cx="993.727" cy="1297" r="18" fill="white"/>
<path d="M995.119 1293.2C995.144 1291.65 996.245 1290.34 997.75 1290.04V1287C996.212 1287.16 994.782 1287.88 993.731 1289.04L993.614 1289.18L993.496 1289.04C992.445 1287.87 991.024 1287.16 989.477 1287V1290.04C990.982 1290.34 992.084 1291.65 992.109 1293.2V1301.01C992.084 1302.56 990.982 1303.87 989.477 1304.17V1307.21C991.016 1307.05 992.445 1306.33 993.496 1305.17L993.614 1305.03L993.731 1305.17C994.782 1306.34 996.203 1307.05 997.75 1307.21V1304.17C996.245 1303.87 995.144 1302.56 995.119 1301.01V1293.2Z" fill="black"/>
</g>
<path d="M1027.34 1308.5H1021.81V1286.1H1027.34V1308.5ZM1057.8 1308.5H1049.35L1037.16 1291.54H1036.93V1308.5H1031.49V1286.1H1039.94L1052.13 1303.09H1052.36V1286.1H1057.8V1308.5ZM1067.5 1308.5H1061.96V1286.1H1067.5V1308.5ZM1084.42 1308.5H1078.85V1290.8H1070.15V1286.1H1093.16V1290.8H1084.42V1308.5Z" fill="white"/>
<path d="M1008.03 1366.82C1006.54 1366.82 1005.12 1366.49 1003.77 1365.83C1002.43 1365.15 1001.34 1364.15 1000.51 1362.85C999.678 1361.53 999.262 1359.97 999.262 1358.18C999.262 1356.39 999.678 1354.84 1000.51 1353.54C1001.34 1352.22 1002.43 1351.23 1003.77 1350.56C1005.12 1349.88 1006.54 1349.54 1008.03 1349.54C1009.52 1349.54 1010.94 1349.88 1012.29 1350.56C1013.63 1351.23 1014.72 1352.22 1015.55 1353.54C1016.38 1354.84 1016.8 1356.39 1016.8 1358.18C1016.8 1359.97 1016.38 1361.53 1015.55 1362.85C1014.72 1364.15 1013.63 1365.15 1012.29 1365.83C1010.94 1366.49 1009.52 1366.82 1008.03 1366.82ZM1003.49 1358.18C1003.49 1359.14 1003.69 1359.98 1004.09 1360.71C1004.52 1361.43 1005.08 1361.99 1005.76 1362.37C1006.46 1362.76 1007.22 1362.95 1008.03 1362.95C1008.84 1362.95 1009.59 1362.76 1010.27 1362.37C1010.95 1361.99 1011.5 1361.43 1011.9 1360.71C1012.33 1359.98 1012.54 1359.14 1012.54 1358.18C1012.54 1357.22 1012.33 1356.38 1011.9 1355.65C1011.5 1354.93 1010.95 1354.37 1010.27 1353.99C1009.59 1353.6 1008.84 1353.41 1008.03 1353.41C1007.22 1353.41 1006.46 1353.6 1005.76 1353.99C1005.08 1354.37 1004.52 1354.93 1004.09 1355.65C1003.69 1356.38 1003.49 1357.22 1003.49 1358.18ZM1019.25 1349.86H1023.54V1352.13C1024.03 1351.34 1024.7 1350.71 1025.55 1350.24C1026.41 1349.77 1027.43 1349.54 1028.63 1349.54C1030.46 1349.54 1031.96 1350.14 1033.14 1351.33C1034.33 1352.53 1034.93 1354.32 1034.93 1356.71V1366.5H1030.64V1357.41C1030.64 1356.17 1030.32 1355.19 1029.68 1354.47C1029.06 1353.74 1028.2 1353.38 1027.09 1353.38C1026 1353.38 1025.14 1353.75 1024.5 1354.5C1023.86 1355.23 1023.54 1356.2 1023.54 1357.41V1366.5H1019.25V1349.86ZM1044.78 1343.78H1049.17V1362.47H1058.03V1366.5H1044.78V1343.78ZM1064.37 1347.72H1060.69V1343.78H1068.69V1366.5H1064.37V1347.72Z" fill="black"/>
<rect width="291" height="50" transform="translate(806.5 484)" fill="#E1E1E1"/>
<path d="M820.059 503.648H815.271V500.12H828.683V503.648H823.895V520H820.059V503.648ZM830.819 505.44H834.571V509.22C834.851 508.007 835.364 507.027 836.111 506.28C836.876 505.533 837.884 505.16 839.135 505.16C839.489 505.16 839.816 505.197 840.115 505.272V508.856C839.779 508.8 839.461 508.772 839.163 508.772C837.763 508.772 836.643 509.22 835.803 510.116C834.981 510.993 834.571 512.169 834.571 513.644V520H830.819V505.44ZM848.138 520.28C846.962 520.28 845.833 519.991 844.75 519.412C843.686 518.833 842.818 517.975 842.146 516.836C841.474 515.697 841.138 514.325 841.138 512.72C841.138 511.115 841.474 509.743 842.146 508.604C842.818 507.465 843.686 506.607 844.75 506.028C845.833 505.449 846.962 505.16 848.138 505.16C848.941 505.16 849.669 505.281 850.322 505.524C850.994 505.767 851.535 506.065 851.946 506.42C852.375 506.775 852.655 507.101 852.786 507.4H852.87V505.44H856.622V520H852.87V518.04H852.786C852.655 518.339 852.375 518.665 851.946 519.02C851.535 519.375 850.994 519.673 850.322 519.916C849.669 520.159 848.941 520.28 848.138 520.28ZM844.834 512.72C844.834 513.597 845.021 514.353 845.394 514.988C845.767 515.623 846.262 516.108 846.878 516.444C847.513 516.761 848.185 516.92 848.894 516.92C849.603 516.92 850.266 516.761 850.882 516.444C851.517 516.108 852.021 515.623 852.394 514.988C852.767 514.353 852.954 513.597 852.954 512.72C852.954 511.843 852.767 511.087 852.394 510.452C852.021 509.817 851.517 509.341 850.882 509.024C850.266 508.688 849.603 508.52 848.894 508.52C848.185 508.52 847.513 508.688 846.878 509.024C846.262 509.341 845.767 509.817 845.394 510.452C845.021 511.087 844.834 511.843 844.834 512.72ZM859.475 505.44H863.227V507.428C863.656 506.737 864.244 506.187 864.991 505.776C865.738 505.365 866.634 505.16 867.679 505.16C869.284 505.16 870.6 505.683 871.627 506.728C872.672 507.773 873.195 509.341 873.195 511.432V520H869.443V512.048C869.443 510.965 869.163 510.107 868.603 509.472C868.062 508.837 867.306 508.52 866.335 508.52C865.383 508.52 864.627 508.847 864.067 509.5C863.507 510.135 863.227 510.984 863.227 512.048V520H859.475V505.44ZM880.665 520.28C879.191 520.28 877.968 519.935 876.997 519.244C876.027 518.535 875.429 517.517 875.205 516.192L878.201 515.38C878.369 515.921 878.649 516.379 879.041 516.752C879.433 517.125 879.956 517.312 880.609 517.312C881.132 517.312 881.571 517.181 881.925 516.92C882.299 516.659 882.485 516.285 882.485 515.8C882.485 515.445 882.355 515.137 882.093 514.876C881.851 514.615 881.449 514.381 880.889 514.176L879.097 513.504C877.94 513.093 877.081 512.524 876.521 511.796C875.961 511.068 875.681 510.247 875.681 509.332C875.681 508.492 875.905 507.755 876.353 507.12C876.801 506.485 877.408 506 878.173 505.664C878.957 505.328 879.807 505.16 880.721 505.16C882.028 505.16 883.129 505.505 884.025 506.196C884.94 506.868 885.519 507.764 885.761 508.884L882.821 509.64C882.485 508.613 881.841 508.1 880.889 508.1C880.404 508.1 880.021 508.221 879.741 508.464C879.461 508.707 879.321 509.005 879.321 509.36C879.321 510.051 879.825 510.564 880.833 510.9L882.457 511.516C883.577 511.927 884.483 512.459 885.173 513.112C885.864 513.747 886.209 514.643 886.209 515.8C886.209 517.2 885.677 518.301 884.613 519.104C883.568 519.888 882.252 520.28 880.665 520.28ZM889.218 504.488C889.218 502.584 889.703 501.277 890.674 500.568C891.663 499.859 892.811 499.504 894.118 499.504C895.219 499.504 896.087 499.691 896.722 500.064V503.004C896.293 502.799 895.798 502.696 895.238 502.696C893.726 502.696 892.97 503.433 892.97 504.908V505.44H896.722V508.436H892.97V520H889.218V508.436H887.37V505.44H889.218V504.488ZM905.191 520.28C903.828 520.28 902.568 519.981 901.411 519.384C900.254 518.787 899.33 517.919 898.639 516.78C897.948 515.623 897.603 514.269 897.603 512.72C897.603 511.152 897.948 509.799 898.639 508.66C899.33 507.521 900.235 506.653 901.355 506.056C902.494 505.459 903.698 505.16 904.967 505.16C906.18 505.16 907.328 505.431 908.411 505.972C909.512 506.495 910.408 507.325 911.099 508.464C911.808 509.584 912.163 510.975 912.163 512.636C912.163 512.953 912.126 513.467 912.051 514.176H901.159C901.42 515.147 901.943 515.893 902.727 516.416C903.53 516.939 904.491 517.2 905.611 517.2C907.104 517.2 908.355 516.761 909.363 515.884L911.071 517.704C910.455 518.488 909.634 519.113 908.607 519.58C907.58 520.047 906.442 520.28 905.191 520.28ZM908.719 511.432C908.607 510.443 908.196 509.677 907.487 509.136C906.778 508.595 905.947 508.324 904.995 508.324C904.08 508.324 903.259 508.595 902.531 509.136C901.803 509.659 901.327 510.424 901.103 511.432H908.719ZM914.299 505.44H918.051V509.22C918.331 508.007 918.844 507.027 919.591 506.28C920.356 505.533 921.364 505.16 922.615 505.16C922.97 505.16 923.296 505.197 923.595 505.272V508.856C923.259 508.8 922.942 508.772 922.643 508.772C921.243 508.772 920.123 509.22 919.283 510.116C918.462 510.993 918.051 512.169 918.051 513.644V520H914.299V505.44ZM925.729 505.44H929.481V520H925.729V505.44ZM925.729 500.12H929.481V503.424H925.729V500.12ZM932.346 505.44H936.098V507.428C936.527 506.737 937.115 506.187 937.862 505.776C938.609 505.365 939.505 505.16 940.55 505.16C942.155 505.16 943.471 505.683 944.498 506.728C945.543 507.773 946.066 509.341 946.066 511.432V520H942.314V512.048C942.314 510.965 942.034 510.107 941.474 509.472C940.933 508.837 940.177 508.52 939.206 508.52C938.254 508.52 937.498 508.847 936.938 509.5C936.378 510.135 936.098 510.984 936.098 512.048V520H932.346V505.44ZM956.028 525.824C955.17 525.824 954.358 525.74 953.592 525.572C952.827 525.423 952.23 525.208 951.8 524.928V521.876C952.136 522.1 952.64 522.287 953.312 522.436C953.984 522.604 954.666 522.688 955.356 522.688C956.775 522.688 957.895 522.371 958.716 521.736C959.538 521.12 959.948 520.261 959.948 519.16V518.04H959.78C959.65 518.339 959.379 518.665 958.968 519.02C958.558 519.375 958.026 519.673 957.372 519.916C956.738 520.159 956.019 520.28 955.216 520.28C954.04 520.28 952.911 519.991 951.828 519.412C950.764 518.833 949.896 517.975 949.224 516.836C948.552 515.697 948.216 514.325 948.216 512.72C948.216 511.115 948.552 509.743 949.224 508.604C949.896 507.465 950.764 506.607 951.828 506.028C952.911 505.449 954.04 505.16 955.216 505.16C956.019 505.16 956.738 505.281 957.372 505.524C958.026 505.767 958.558 506.065 958.968 506.42C959.379 506.775 959.65 507.101 959.78 507.4H959.948V505.44H963.7V518.908C963.7 521.409 962.935 523.183 961.404 524.228C959.874 525.292 958.082 525.824 956.028 525.824ZM951.912 512.72C951.912 513.597 952.099 514.353 952.472 514.988C952.846 515.623 953.34 516.108 953.956 516.444C954.591 516.761 955.263 516.92 955.972 516.92C957.092 516.92 958.044 516.547 958.828 515.8C959.631 515.053 960.032 514.027 960.032 512.72C960.032 511.413 959.631 510.387 958.828 509.64C958.044 508.893 957.092 508.52 955.972 508.52C955.263 508.52 954.591 508.688 953.956 509.024C953.34 509.341 952.846 509.817 952.472 510.452C952.099 511.087 951.912 511.843 951.912 512.72ZM986.043 520H982.291V518.012C981.861 518.703 981.273 519.253 980.527 519.664C979.78 520.075 978.884 520.28 977.839 520.28C976.233 520.28 974.908 519.757 973.863 518.712C972.836 517.667 972.323 516.099 972.323 514.008V505.44H976.075V513.392C976.075 514.475 976.345 515.333 976.887 515.968C977.447 516.603 978.212 516.92 979.183 516.92C980.135 516.92 980.891 516.603 981.451 515.968C982.011 515.315 982.291 514.456 982.291 513.392V505.44H986.043V520ZM993.513 520.28C992.038 520.28 990.816 519.935 989.845 519.244C988.874 518.535 988.277 517.517 988.053 516.192L991.049 515.38C991.217 515.921 991.497 516.379 991.889 516.752C992.281 517.125 992.804 517.312 993.457 517.312C993.98 517.312 994.418 517.181 994.773 516.92C995.146 516.659 995.333 516.285 995.333 515.8C995.333 515.445 995.202 515.137 994.941 514.876C994.698 514.615 994.297 514.381 993.737 514.176L991.945 513.504C990.788 513.093 989.929 512.524 989.369 511.796C988.809 511.068 988.529 510.247 988.529 509.332C988.529 508.492 988.753 507.755 989.201 507.12C989.649 506.485 990.256 506 991.021 505.664C991.805 505.328 992.654 505.16 993.569 505.16C994.876 505.16 995.977 505.505 996.873 506.196C997.788 506.868 998.366 507.764 998.609 508.884L995.669 509.64C995.333 508.613 994.689 508.1 993.737 508.1C993.252 508.1 992.869 508.221 992.589 508.464C992.309 508.707 992.169 509.005 992.169 509.36C992.169 510.051 992.673 510.564 993.681 510.9L995.305 511.516C996.425 511.927 997.33 512.459 998.021 513.112C998.712 513.747 999.057 514.643 999.057 515.8C999.057 517.2 998.525 518.301 997.461 519.104C996.416 519.888 995.1 520.28 993.513 520.28ZM1001.2 505.44H1004.95V520H1001.2V505.44ZM1001.2 500.12H1004.95V503.424H1001.2V500.12ZM1007.81 505.44H1011.57V507.428C1012 506.737 1012.58 506.187 1013.33 505.776C1014.08 505.365 1014.97 505.16 1016.02 505.16C1017.62 505.16 1018.94 505.683 1019.97 506.728C1021.01 507.773 1021.53 509.341 1021.53 511.432V520H1017.78V512.048C1017.78 510.965 1017.5 510.107 1016.94 509.472C1016.4 508.837 1015.65 508.52 1014.67 508.52C1013.72 508.52 1012.97 508.847 1012.41 509.5C1011.85 510.135 1011.57 510.984 1011.57 512.048V520H1007.81V505.44ZM1031.5 525.824C1030.64 525.824 1029.83 525.74 1029.06 525.572C1028.3 525.423 1027.7 525.208 1027.27 524.928V521.876C1027.61 522.1 1028.11 522.287 1028.78 522.436C1029.45 522.604 1030.13 522.688 1030.83 522.688C1032.24 522.688 1033.36 522.371 1034.19 521.736C1035.01 521.12 1035.42 520.261 1035.42 519.16V518.04H1035.25C1035.12 518.339 1034.85 518.665 1034.44 519.02C1034.03 519.375 1033.49 519.673 1032.84 519.916C1032.21 520.159 1031.49 520.28 1030.69 520.28C1029.51 520.28 1028.38 519.991 1027.3 519.412C1026.23 518.833 1025.37 517.975 1024.69 516.836C1024.02 515.697 1023.69 514.325 1023.69 512.72C1023.69 511.115 1024.02 509.743 1024.69 508.604C1025.37 507.465 1026.23 506.607 1027.3 506.028C1028.38 505.449 1029.51 505.16 1030.69 505.16C1031.49 505.16 1032.21 505.281 1032.84 505.524C1033.49 505.767 1034.03 506.065 1034.44 506.42C1034.85 506.775 1035.12 507.101 1035.25 507.4H1035.42V505.44H1039.17V518.908C1039.17 521.409 1038.4 523.183 1036.87 524.228C1035.34 525.292 1033.55 525.824 1031.5 525.824ZM1027.38 512.72C1027.38 513.597 1027.57 514.353 1027.94 514.988C1028.31 515.623 1028.81 516.108 1029.43 516.444C1030.06 516.761 1030.73 516.92 1031.44 516.92C1032.56 516.92 1033.51 516.547 1034.3 515.8C1035.1 515.053 1035.5 514.027 1035.5 512.72C1035.5 511.413 1035.1 510.387 1034.3 509.64C1033.51 508.893 1032.56 508.52 1031.44 508.52C1030.73 508.52 1030.06 508.688 1029.43 509.024C1028.81 509.341 1028.31 509.817 1027.94 510.452C1027.57 511.087 1027.38 511.843 1027.38 512.72ZM1047.79 500.12H1051.63V520H1047.79V500.12ZM1054.46 500.12H1061.74C1062.84 500.12 1063.81 500.335 1064.63 500.764C1065.45 501.175 1066.08 501.744 1066.53 502.472C1066.98 503.2 1067.2 504.012 1067.2 504.908C1067.2 505.86 1066.95 506.691 1066.45 507.4C1065.96 508.091 1065.35 508.595 1064.6 508.912C1065.7 509.211 1066.62 509.808 1067.34 510.704C1068.09 511.581 1068.46 512.729 1068.46 514.148C1068.46 515.921 1067.87 517.34 1066.67 518.404C1065.48 519.468 1063.78 520 1061.58 520H1054.46V500.12ZM1061.35 516.64C1062.45 516.64 1063.27 516.388 1063.82 515.884C1064.38 515.38 1064.66 514.671 1064.66 513.756C1064.66 512.86 1064.38 512.151 1063.82 511.628C1063.26 511.087 1062.42 510.816 1061.3 510.816H1058.3V516.64H1061.35ZM1060.99 507.848C1061.81 507.848 1062.43 507.652 1062.86 507.26C1063.29 506.849 1063.51 506.308 1063.51 505.636C1063.51 504.945 1063.28 504.413 1062.84 504.04C1062.41 503.667 1061.77 503.48 1060.93 503.48H1058.3V507.848H1060.99ZM1080.56 520.28C1078.7 520.28 1076.98 519.86 1075.41 519.02C1073.84 518.161 1072.6 516.957 1071.69 515.408C1070.77 513.859 1070.32 512.076 1070.32 510.06C1070.32 508.044 1070.77 506.261 1071.69 504.712C1072.62 503.163 1073.86 501.968 1075.41 501.128C1076.98 500.269 1078.7 499.84 1080.56 499.84C1082.11 499.84 1083.6 500.176 1085.02 500.848C1086.45 501.501 1087.66 502.603 1088.63 504.152L1085.83 506.084C1085.21 505.207 1084.46 504.553 1083.56 504.124C1082.66 503.695 1081.7 503.48 1080.68 503.48C1079.5 503.48 1078.42 503.751 1077.43 504.292C1076.46 504.833 1075.68 505.608 1075.1 506.616C1074.53 507.605 1074.24 508.753 1074.24 510.06C1074.24 511.367 1074.53 512.524 1075.1 513.532C1075.68 514.521 1076.47 515.287 1077.46 515.828C1078.45 516.369 1079.53 516.64 1080.7 516.64C1081.75 516.64 1082.71 516.435 1083.59 516.024C1084.47 515.595 1085.21 514.932 1085.83 514.036L1088.63 515.968C1087.66 517.517 1086.45 518.628 1085.02 519.3C1083.6 519.953 1082.11 520.28 1080.56 520.28Z" fill="black"/>
<path d="M42.021 51.47H49.503L58.705 73.357L67.907 51.47H75.389V82H68.595V64.499H68.38L61.199 82H56.211L49.03 64.499H48.815V82H42.021V51.47ZM79.436 59.64H86.101V82H79.436V59.64ZM79.436 51.47H86.101V57.275H79.436V51.47ZM90.144 59.64H96.809V62.478C97.4684 61.4747 98.357 60.6863 99.475 60.113C100.593 59.511 101.912 59.21 103.431 59.21C105.868 59.21 107.86 60.0127 109.408 61.618C110.985 63.1947 111.773 65.6027 111.773 68.842V82H105.108V70.003C105.108 68.541 104.75 67.3657 104.033 66.477C103.316 65.5883 102.284 65.144 100.937 65.144C99.6184 65.144 98.6007 65.6027 97.884 66.52C97.1674 67.4087 96.809 68.5697 96.809 70.003V82H90.144V59.64ZM115.801 59.64H122.466V82H115.801V59.64ZM115.801 51.47H122.466V57.275H115.801V51.47ZM135.883 82.258C133.705 82.258 131.97 81.6847 130.68 80.538C129.39 79.3627 128.745 77.5567 128.745 75.12V64.929H125.434V59.64H128.745V53.921H135.41V59.64H140.097V64.929H135.41V74.045C135.41 74.7043 135.625 75.2633 136.055 75.722C136.485 76.152 137.159 76.367 138.076 76.367C138.764 76.367 139.467 76.2523 140.183 76.023V81.097C139.782 81.4983 139.18 81.7993 138.377 82C137.603 82.172 136.772 82.258 135.883 82.258ZM143.264 59.64H149.929V82H143.264V59.64ZM143.264 51.47H149.929V57.275H143.264V51.47ZM163.561 82.43C161.784 82.43 160.078 81.9857 158.444 81.097C156.81 80.2083 155.477 78.8897 154.445 77.141C153.413 75.3923 152.897 73.2853 152.897 70.82C152.897 68.3547 153.413 66.2477 154.445 64.499C155.477 62.7503 156.81 61.4317 158.444 60.543C160.078 59.6543 161.784 59.21 163.561 59.21C164.765 59.21 165.84 59.3963 166.786 59.769C167.761 60.113 168.535 60.5143 169.108 60.973C169.682 61.4317 170.04 61.833 170.183 62.177H170.312V59.64H176.977V82H170.312V79.463H170.183C170.04 79.807 169.682 80.2083 169.108 80.667C168.535 81.1257 167.761 81.5413 166.786 81.914C165.84 82.258 164.765 82.43 163.561 82.43ZM159.476 70.82C159.476 72.54 160.007 73.916 161.067 74.948C162.157 75.98 163.447 76.496 164.937 76.496C166.485 76.496 167.79 75.9943 168.85 74.991C169.94 73.959 170.484 72.5687 170.484 70.82C170.484 69.0713 169.94 67.6953 168.85 66.692C167.79 65.66 166.485 65.144 164.937 65.144C163.447 65.144 162.157 65.66 161.067 66.692C160.007 67.724 159.476 69.1 159.476 70.82ZM199.082 82.258C196.903 82.258 195.169 81.6847 193.879 80.538C192.589 79.3627 191.944 77.5567 191.944 75.12V64.929H188.633V59.64H191.944V53.921H198.609V59.64H203.296V64.929H198.609V74.045C198.609 74.7043 198.824 75.2633 199.254 75.722C199.684 76.152 200.357 76.367 201.275 76.367C201.963 76.367 202.665 76.2523 203.382 76.023V81.097C202.98 81.4983 202.378 81.7993 201.576 82C200.802 82.172 199.97 82.258 199.082 82.258ZM217.045 82.43C215.039 82.43 213.118 81.9857 211.283 81.097C209.477 80.1797 208.001 78.8467 206.854 77.098C205.736 75.3493 205.177 73.2567 205.177 70.82C205.177 68.3833 205.736 66.2907 206.854 64.542C208.001 62.7933 209.477 61.4747 211.283 60.586C213.118 59.6687 215.039 59.21 217.045 59.21C219.052 59.21 220.958 59.6687 222.764 60.586C224.599 61.4747 226.075 62.7933 227.193 64.542C228.34 66.2907 228.913 68.3833 228.913 70.82C228.913 73.2567 228.34 75.3493 227.193 77.098C226.075 78.8467 224.599 80.1797 222.764 81.097C220.958 81.9857 219.052 82.43 217.045 82.43ZM211.756 70.82C211.756 72.4827 212.258 73.83 213.261 74.862C214.293 75.894 215.555 76.41 217.045 76.41C218.536 76.41 219.783 75.894 220.786 74.862C221.818 73.83 222.334 72.4827 222.334 70.82C222.334 69.1573 221.818 67.81 220.786 66.778C219.783 65.746 218.536 65.23 217.045 65.23C215.555 65.23 214.293 65.746 213.261 66.778C212.258 67.81 211.756 69.1573 211.756 70.82ZM240.56 51.47H247.354V82H240.56V51.47ZM251.394 59.64H258.059V62.478C258.718 61.4747 259.607 60.6863 260.725 60.113C261.843 59.511 263.162 59.21 264.681 59.21C267.118 59.21 269.11 60.0127 270.658 61.618C272.235 63.1947 273.023 65.6027 273.023 68.842V82H266.358V70.003C266.358 68.541 266 67.3657 265.283 66.477C264.566 65.5883 263.534 65.144 262.187 65.144C260.868 65.144 259.851 65.6027 259.134 66.52C258.417 67.4087 258.059 68.5697 258.059 70.003V82H251.394V59.64ZM277.051 59.64H283.716V82H277.051V59.64ZM277.051 51.47H283.716V57.275H277.051V51.47ZM297.133 82.258C294.955 82.258 293.22 81.6847 291.93 80.538C290.64 79.3627 289.995 77.5567 289.995 75.12V64.929H286.684V59.64H289.995V53.921H296.66V59.64H301.347V64.929H296.66V74.045C296.66 74.7043 296.875 75.2633 297.305 75.722C297.735 76.152 298.409 76.367 299.326 76.367C300.014 76.367 300.717 76.2523 301.433 76.023V81.097C301.032 81.4983 300.43 81.7993 299.627 82C298.853 82.172 298.022 82.258 297.133 82.258ZM304.514 59.64H311.179V82H304.514V59.64ZM304.514 51.47H311.179V57.275H304.514V51.47ZM324.811 82.43C323.034 82.43 321.328 81.9857 319.694 81.097C318.06 80.2083 316.727 78.8897 315.695 77.141C314.663 75.3923 314.147 73.2853 314.147 70.82C314.147 68.3547 314.663 66.2477 315.695 64.499C316.727 62.7503 318.06 61.4317 319.694 60.543C321.328 59.6543 323.034 59.21 324.811 59.21C326.015 59.21 327.09 59.3963 328.036 59.769C329.011 60.113 329.785 60.5143 330.358 60.973C330.932 61.4317 331.29 61.833 331.433 62.177H331.562V59.64H338.227V82H331.562V79.463H331.433C331.29 79.807 330.932 80.2083 330.358 80.667C329.785 81.1257 329.011 81.5413 328.036 81.914C327.09 82.258 326.015 82.43 324.811 82.43ZM320.726 70.82C320.726 72.54 321.257 73.916 322.317 74.948C323.407 75.98 324.697 76.496 326.187 76.496C327.735 76.496 329.04 75.9943 330.1 74.991C331.19 73.959 331.734 72.5687 331.734 70.82C331.734 69.0713 331.19 67.6953 330.1 66.692C329.04 65.66 327.735 65.144 326.187 65.144C324.697 65.144 323.407 65.66 322.317 66.692C321.257 67.724 320.726 69.1 320.726 70.82ZM350.958 51.47H357.752V75.765H369.104V82H350.958V51.47ZM377.708 57.576H372.462V51.47H384.373V82H377.708V57.576Z" fill="black"/>
<rect x="812" y="162" width="288" height="20" fill="white"/>
<path d="M839.356 125.24H847.812L860.804 155.2L873.796 125.24H882.252V165H874.58V140.024H874.3L863.604 165H857.948L847.308 140.024H847.028V165H839.356V125.24ZM887.973 135.88H895.477V165H887.973V135.88ZM887.973 125.24H895.477V131.848H887.973V125.24ZM901.208 135.88H908.712V139.856C909.57 138.475 910.746 137.373 912.24 136.552C913.733 135.731 915.525 135.32 917.616 135.32C920.826 135.32 923.458 136.365 925.512 138.456C927.602 140.547 928.648 143.683 928.648 147.864V165H921.144V149.096C921.144 146.931 920.584 145.213 919.464 143.944C918.381 142.675 916.869 142.04 914.928 142.04C913.024 142.04 911.512 142.693 910.392 144C909.272 145.269 908.712 146.968 908.712 149.096V165H901.208V135.88ZM934.348 135.88H941.852V165H934.348V135.88ZM934.348 125.24H941.852V131.848H934.348V125.24ZM958.839 165.336C956.225 165.336 954.153 164.664 952.623 163.32C951.092 161.939 950.327 159.811 950.327 156.936V141.872H946.183V135.88H950.327V128.432H957.887V135.88H963.879V141.872H957.887V155.704C957.887 156.563 958.148 157.272 958.671 157.832C959.193 158.392 960.033 158.672 961.191 158.672C962.087 158.672 963.001 158.523 963.935 158.224V163.992C963.412 164.477 962.684 164.813 961.751 165C960.855 165.224 959.884 165.336 958.839 165.336ZM968.473 135.88H975.977V165H968.473V135.88ZM968.473 125.24H975.977V131.848H968.473V125.24ZM994.308 165.56C991.956 165.56 989.697 164.981 987.532 163.824C985.404 162.667 983.668 160.949 982.324 158.672C980.98 156.395 980.308 153.651 980.308 150.44C980.308 147.229 980.98 144.485 982.324 142.208C983.668 139.931 985.404 138.213 987.532 137.056C989.697 135.899 991.956 135.32 994.308 135.32C995.913 135.32 997.369 135.563 998.676 136.048C1000.02 136.533 1001.1 137.131 1001.92 137.84C1002.78 138.549 1003.34 139.203 1003.6 139.8H1003.77V135.88H1011.28V165H1003.77V161.08H1003.6C1003.34 161.677 1002.78 162.331 1001.92 163.04C1001.1 163.749 1000.02 164.347 998.676 164.832C997.369 165.317 995.913 165.56 994.308 165.56ZM987.7 150.44C987.7 152.195 988.073 153.707 988.82 154.976C989.566 156.245 990.556 157.216 991.788 157.888C993.057 158.523 994.401 158.84 995.82 158.84C997.238 158.84 998.564 158.523 999.796 157.888C1001.06 157.216 1002.07 156.245 1002.82 154.976C1003.57 153.707 1003.94 152.195 1003.94 150.44C1003.94 148.685 1003.57 147.173 1002.82 145.904C1002.07 144.635 1001.06 143.683 999.796 143.048C998.564 142.376 997.238 142.04 995.82 142.04C994.401 142.04 993.057 142.376 991.788 143.048C990.556 143.683 989.566 144.635 988.82 145.904C988.073 147.173 987.7 148.685 987.7 150.44ZM1028.52 125.24H1036.19V157.944H1051.7V165H1028.52V125.24ZM1067.78 148.256C1069.65 145.829 1070.96 144.075 1071.7 142.992C1072.45 141.909 1073.01 140.901 1073.38 139.968C1073.79 139.035 1074 138.045 1074 137C1074 135.096 1073.46 133.733 1072.37 132.912C1071.33 132.091 1070.15 131.68 1068.85 131.68C1067.39 131.68 1066.1 132.165 1064.98 133.136C1063.86 134.107 1063.3 135.619 1063.3 137.672V138.68H1055.69V137C1055.69 134.723 1056.19 132.651 1057.2 130.784C1058.21 128.917 1059.7 127.443 1061.68 126.36C1063.69 125.24 1066.12 124.68 1068.96 124.68C1071.57 124.68 1073.85 125.165 1075.79 126.136C1077.77 127.107 1079.28 128.451 1080.33 130.168C1081.41 131.885 1081.95 133.808 1081.95 135.936C1081.95 137.429 1081.69 138.867 1081.17 140.248C1080.64 141.592 1080.01 142.824 1079.26 143.944C1078.52 145.064 1077.47 146.501 1076.13 148.256C1076.09 148.293 1075.85 148.592 1075.4 149.152L1068.34 158.336H1081.95V165H1055.13L1067.78 148.256Z" fill="black"/>
<defs>
<clipPath id="clip0_1_167">
<rect width="36" height="36" fill="white" transform="translate(962.227 243)"/>
</clipPath>
<clipPath id="clip1_1_167">
<rect width="36" height="36" fill="white" transform="translate(927.227 703)"/>
</clipPath>
<clipPath id="clip2_1_167">
<rect width="36" height="36" fill="white" transform="translate(975.727 1279)"/>
</clipPath>
</defs>
</svg>
