<svg width="1776" height="1064" viewBox="0 0 1776 1064" fill="none" xmlns="http://www.w3.org/2000/svg">
<rect width="1776" height="1064" fill="#F9FBFC"/>
<path d="M42.021 51.47H53.889C56.5837 51.47 59.049 52.1293 61.285 53.448C63.521 54.738 65.284 56.544 66.574 58.866C67.864 61.188 68.509 63.811 68.509 66.735C68.509 69.659 67.864 72.282 66.574 74.604C65.284 76.926 63.521 78.7463 61.285 80.065C59.049 81.355 56.5837 82 53.889 82H42.021V51.47ZM53.631 75.593C56.1537 75.593 58.0887 74.7903 59.436 73.185C60.7833 71.5797 61.457 69.4297 61.457 66.735C61.457 64.0403 60.7833 61.8903 59.436 60.285C58.0887 58.6797 56.1537 57.877 53.631 57.877H48.815V75.593H53.631ZM71.7095 59.64H78.3745V82H71.7095V59.64ZM71.7095 51.47H78.3745V57.275H71.7095V51.47ZM89.7275 82.43C87.4055 82.43 85.4705 81.8853 83.9225 80.796C82.4032 79.7067 81.4715 78.13 81.1275 76.066L86.4165 74.647C86.9612 76.367 88.0362 77.227 89.6415 77.227C90.3008 77.227 90.8455 77.0693 91.2755 76.754C91.7342 76.4387 91.9635 75.98 91.9635 75.378C91.9635 74.518 91.3328 73.8873 90.0715 73.486L87.0615 72.368C85.2842 71.7373 83.9512 70.863 83.0625 69.745C82.2025 68.5983 81.7725 67.294 81.7725 65.832C81.7725 64.4847 82.1308 63.3093 82.8475 62.306C83.5928 61.3027 84.5818 60.543 85.8145 60.027C87.0472 59.4823 88.4088 59.21 89.8995 59.21C91.9922 59.21 93.7552 59.7547 95.1885 60.844C96.6218 61.9333 97.5392 63.381 97.9405 65.187L92.7375 66.477C92.2788 65.0723 91.4188 64.37 90.1575 64.37C89.5555 64.37 89.0825 64.5277 88.7385 64.843C88.3945 65.1297 88.2225 65.488 88.2225 65.918C88.2225 66.778 88.8675 67.4087 90.1575 67.81L92.9525 68.842C96.6792 70.1033 98.5425 72.282 98.5425 75.378C98.5425 77.5853 97.7112 79.3197 96.0485 80.581C94.4145 81.8137 92.3075 82.43 89.7275 82.43ZM110.478 82.258C108.299 82.258 106.565 81.6847 105.275 80.538C103.985 79.3627 103.34 77.5567 103.34 75.12V64.929H100.029V59.64H103.34V53.921H110.005V59.64H114.692V64.929H110.005V74.045C110.005 74.7043 110.22 75.2633 110.65 75.722C111.08 76.152 111.754 76.367 112.671 76.367C113.359 76.367 114.061 76.2523 114.778 76.023V81.097C114.377 81.4983 113.775 81.7993 112.972 82C112.198 82.172 111.367 82.258 110.478 82.258ZM117.859 59.64H124.524V65.703C124.925 63.7537 125.699 62.1913 126.846 61.016C127.993 59.812 129.526 59.21 131.447 59.21C132.049 59.21 132.579 59.2817 133.038 59.425V65.746C132.522 65.66 132.006 65.617 131.49 65.617C129.311 65.617 127.606 66.2763 126.373 67.595C125.14 68.9137 124.524 70.648 124.524 72.798V82H117.859V59.64ZM136 59.64H142.665V82H136V59.64ZM136 51.47H142.665V57.275H136V51.47ZM153.373 51.47V62.177H153.502C153.645 61.833 154.003 61.4317 154.577 60.973C155.15 60.5143 155.91 60.113 156.856 59.769C157.83 59.3963 158.92 59.21 160.124 59.21C161.901 59.21 163.607 59.6543 165.241 60.543C166.875 61.4317 168.208 62.7503 169.24 64.499C170.272 66.2477 170.788 68.3547 170.788 70.82C170.788 73.2853 170.272 75.3923 169.24 77.141C168.208 78.8897 166.875 80.2083 165.241 81.097C163.607 81.9857 161.901 82.43 160.124 82.43C158.92 82.43 157.83 82.258 156.856 81.914C155.91 81.5413 155.15 81.1257 154.577 80.667C154.003 80.2083 153.645 79.807 153.502 79.463H153.373V82H146.708V51.47H153.373ZM153.201 70.82C153.201 72.5687 153.731 73.959 154.792 74.991C155.881 75.9943 157.2 76.496 158.748 76.496C160.238 76.496 161.514 75.98 162.575 74.948C163.664 73.916 164.209 72.54 164.209 70.82C164.209 69.1 163.664 67.724 162.575 66.692C161.514 65.66 160.238 65.144 158.748 65.144C157.2 65.144 155.881 65.66 154.792 66.692C153.731 67.6953 153.201 69.0713 153.201 70.82ZM195.379 82H188.714V79.162C188.055 80.1653 187.166 80.968 186.048 81.57C184.93 82.1433 183.612 82.43 182.092 82.43C179.656 82.43 177.649 81.6417 176.072 80.065C174.524 78.4597 173.75 76.0373 173.75 72.798V59.64H180.415V71.637C180.415 73.099 180.774 74.2743 181.49 75.163C182.207 76.0517 183.239 76.496 184.586 76.496C185.905 76.496 186.923 76.0517 187.639 75.163C188.356 74.2457 188.714 73.0703 188.714 71.637V59.64H195.379V82ZM208.782 82.258C206.603 82.258 204.869 81.6847 203.579 80.538C202.289 79.3627 201.644 77.5567 201.644 75.12V64.929H198.333V59.64H201.644V53.921H208.309V59.64H212.996V64.929H208.309V74.045C208.309 74.7043 208.524 75.2633 208.954 75.722C209.384 76.152 210.057 76.367 210.975 76.367C211.663 76.367 212.365 76.2523 213.082 76.023V81.097C212.68 81.4983 212.078 81.7993 211.276 82C210.502 82.172 209.67 82.258 208.782 82.258ZM216.163 59.64H222.828V82H216.163V59.64ZM216.163 51.47H222.828V57.275H216.163V51.47ZM237.664 82.43C235.657 82.43 233.736 81.9857 231.902 81.097C230.096 80.1797 228.619 78.8467 227.473 77.098C226.355 75.3493 225.796 73.2567 225.796 70.82C225.796 68.3833 226.355 66.2907 227.473 64.542C228.619 62.7933 230.096 61.4747 231.902 60.586C233.736 59.6687 235.657 59.21 237.664 59.21C239.67 59.21 241.577 59.6687 243.383 60.586C245.217 61.4747 246.694 62.7933 247.812 64.542C248.958 66.2907 249.532 68.3833 249.532 70.82C249.532 73.2567 248.958 75.3493 247.812 77.098C246.694 78.8467 245.217 80.1797 243.383 81.097C241.577 81.9857 239.67 82.43 237.664 82.43ZM232.375 70.82C232.375 72.4827 232.876 73.83 233.88 74.862C234.912 75.894 236.173 76.41 237.664 76.41C239.154 76.41 240.401 75.894 241.405 74.862C242.437 73.83 242.953 72.4827 242.953 70.82C242.953 69.1573 242.437 67.81 241.405 66.778C240.401 65.746 239.154 65.23 237.664 65.23C236.173 65.23 234.912 65.746 233.88 66.778C232.876 67.81 232.375 69.1573 232.375 70.82ZM252.486 59.64H259.151V62.478C259.81 61.4747 260.699 60.6863 261.817 60.113C262.935 59.511 264.254 59.21 265.773 59.21C268.21 59.21 270.202 60.0127 271.75 61.618C273.327 63.1947 274.115 65.6027 274.115 68.842V82H267.45V70.003C267.45 68.541 267.092 67.3657 266.375 66.477C265.658 65.5883 264.626 65.144 263.279 65.144C261.96 65.144 260.943 65.6027 260.226 66.52C259.509 67.4087 259.151 68.5697 259.151 70.003V82H252.486V59.64ZM296.209 82.258C294.031 82.258 292.296 81.6847 291.006 80.538C289.716 79.3627 289.071 77.5567 289.071 75.12V64.929H285.76V59.64H289.071V53.921H295.736V59.64H300.423V64.929H295.736V74.045C295.736 74.7043 295.951 75.2633 296.381 75.722C296.811 76.152 297.485 76.367 298.402 76.367C299.09 76.367 299.793 76.2523 300.509 76.023V81.097C300.108 81.4983 299.506 81.7993 298.703 82C297.929 82.172 297.098 82.258 296.209 82.258ZM314.173 82.43C312.167 82.43 310.246 81.9857 308.411 81.097C306.605 80.1797 305.129 78.8467 303.982 77.098C302.864 75.3493 302.305 73.2567 302.305 70.82C302.305 68.3833 302.864 66.2907 303.982 64.542C305.129 62.7933 306.605 61.4747 308.411 60.586C310.246 59.6687 312.167 59.21 314.173 59.21C316.18 59.21 318.086 59.6687 319.892 60.586C321.727 61.4747 323.203 62.7933 324.321 64.542C325.468 66.2907 326.041 68.3833 326.041 70.82C326.041 73.2567 325.468 75.3493 324.321 77.098C323.203 78.8467 321.727 80.1797 319.892 81.097C318.086 81.9857 316.18 82.43 314.173 82.43ZM308.884 70.82C308.884 72.4827 309.386 73.83 310.389 74.862C311.421 75.894 312.683 76.41 314.173 76.41C315.664 76.41 316.911 75.894 317.914 74.862C318.946 73.83 319.462 72.4827 319.462 70.82C319.462 69.1573 318.946 67.81 317.914 66.778C316.911 65.746 315.664 65.23 314.173 65.23C312.683 65.23 311.421 65.746 310.389 66.778C309.386 67.81 308.884 69.1573 308.884 70.82ZM337.688 51.47H345.17L354.372 73.357L363.574 51.47H371.056V82H364.262V64.499H364.047L356.866 82H351.878L344.697 64.499H344.482V82H337.688V51.47ZM375.103 59.64H381.768V82H375.103V59.64ZM375.103 51.47H381.768V57.275H375.103V51.47ZM385.811 59.64H392.476V62.478C393.135 61.4747 394.024 60.6863 395.142 60.113C396.26 59.511 397.579 59.21 399.098 59.21C401.535 59.21 403.527 60.0127 405.075 61.618C406.652 63.1947 407.44 65.6027 407.44 68.842V82H400.775V70.003C400.775 68.541 400.417 67.3657 399.7 66.477C398.983 65.5883 397.951 65.144 396.604 65.144C395.285 65.144 394.268 65.6027 393.551 66.52C392.834 67.4087 392.476 68.5697 392.476 70.003V82H385.811V59.64ZM411.468 59.64H418.133V82H411.468V59.64ZM411.468 51.47H418.133V57.275H411.468V51.47ZM431.55 82.258C429.372 82.258 427.637 81.6847 426.347 80.538C425.057 79.3627 424.412 77.5567 424.412 75.12V64.929H421.101V59.64H424.412V53.921H431.077V59.64H435.764V64.929H431.077V74.045C431.077 74.7043 431.292 75.2633 431.722 75.722C432.152 76.152 432.826 76.367 433.743 76.367C434.431 76.367 435.134 76.2523 435.85 76.023V81.097C435.449 81.4983 434.847 81.7993 434.044 82C433.27 82.172 432.439 82.258 431.55 82.258ZM438.931 59.64H445.596V82H438.931V59.64ZM438.931 51.47H445.596V57.275H438.931V51.47ZM459.228 82.43C457.451 82.43 455.745 81.9857 454.111 81.097C452.477 80.2083 451.144 78.8897 450.112 77.141C449.08 75.3923 448.564 73.2853 448.564 70.82C448.564 68.3547 449.08 66.2477 450.112 64.499C451.144 62.7503 452.477 61.4317 454.111 60.543C455.745 59.6543 457.451 59.21 459.228 59.21C460.432 59.21 461.507 59.3963 462.453 59.769C463.428 60.113 464.202 60.5143 464.775 60.973C465.348 61.4317 465.707 61.833 465.85 62.177H465.979V59.64H472.644V82H465.979V79.463H465.85C465.707 79.807 465.348 80.2083 464.775 80.667C464.202 81.1257 463.428 81.5413 462.453 81.914C461.507 82.258 460.432 82.43 459.228 82.43ZM455.143 70.82C455.143 72.54 455.673 73.916 456.734 74.948C457.823 75.98 459.113 76.496 460.604 76.496C462.152 76.496 463.456 75.9943 464.517 74.991C465.606 73.959 466.151 72.5687 466.151 70.82C466.151 69.0713 465.606 67.6953 464.517 66.692C463.456 65.66 462.152 65.144 460.604 65.144C459.113 65.144 457.823 65.66 456.734 66.692C455.673 67.724 455.143 69.1 455.143 70.82ZM500.769 82.43C497.902 82.43 495.25 81.7707 492.814 80.452C490.406 79.1047 488.485 77.2413 487.052 74.862C485.647 72.4827 484.945 69.7737 484.945 66.735C484.945 63.6963 485.647 60.9873 487.052 58.608C488.485 56.2287 490.406 54.3797 492.814 53.061C495.25 51.7137 497.902 51.04 500.769 51.04C503.635 51.04 506.273 51.7137 508.681 53.061C511.117 54.3797 513.038 56.2287 514.443 58.608C515.876 60.9873 516.593 63.6963 516.593 66.735C516.593 69.7737 515.876 72.4827 514.443 74.862C513.038 77.2413 511.117 79.1047 508.681 80.452C506.273 81.7707 503.635 82.43 500.769 82.43ZM491.954 66.735C491.954 68.5697 492.341 70.1893 493.115 71.594C493.917 72.9987 494.992 74.088 496.34 74.862C497.687 75.6073 499.163 75.98 500.769 75.98C502.374 75.98 503.85 75.6073 505.198 74.862C506.545 74.088 507.606 72.9987 508.38 71.594C509.182 70.1893 509.584 68.5697 509.584 66.735C509.584 64.9003 509.182 63.2807 508.38 61.876C507.606 60.4713 506.545 59.3963 505.198 58.651C503.85 57.877 502.374 57.49 500.769 57.49C499.163 57.49 497.687 57.877 496.34 58.651C494.992 59.3963 493.917 60.4713 493.115 61.876C492.341 63.2807 491.954 64.9003 491.954 66.735ZM520.186 59.64H526.851V62.177H526.98C527.123 61.833 527.482 61.4317 528.055 60.973C528.628 60.5143 529.388 60.113 530.334 59.769C531.309 59.3963 532.398 59.21 533.602 59.21C535.379 59.21 537.085 59.6543 538.719 60.543C540.353 61.4317 541.686 62.7503 542.718 64.499C543.75 66.2477 544.266 68.3547 544.266 70.82C544.266 73.2853 543.75 75.3923 542.718 77.141C541.686 78.8897 540.353 80.2083 538.719 81.097C537.085 81.9857 535.379 82.43 533.602 82.43C532.398 82.43 531.309 82.258 530.334 81.914C529.388 81.5413 528.628 81.1257 528.055 80.667C527.482 80.2083 527.123 79.807 526.98 79.463H526.851V90.17H520.186V59.64ZM526.679 70.82C526.679 72.5687 527.209 73.959 528.27 74.991C529.359 75.9943 530.678 76.496 532.226 76.496C533.717 76.496 534.992 75.98 536.053 74.948C537.142 73.916 537.687 72.54 537.687 70.82C537.687 69.1 537.142 67.724 536.053 66.692C534.992 65.66 533.717 65.144 532.226 65.144C530.678 65.144 529.359 65.66 528.27 66.692C527.209 67.6953 526.679 69.0713 526.679 70.82ZM557.936 82.43C555.843 82.43 553.894 81.9713 552.088 81.054C550.282 80.1367 548.834 78.8037 547.745 77.055C546.684 75.2777 546.154 73.2137 546.154 70.863C546.154 68.455 546.684 66.3767 547.745 64.628C548.834 62.8507 550.239 61.5033 551.959 60.586C553.708 59.6687 555.571 59.21 557.549 59.21C559.384 59.21 561.147 59.6257 562.838 60.457C564.529 61.2597 565.92 62.521 567.009 64.241C568.098 65.961 568.643 68.1253 568.643 70.734C568.643 71.68 568.586 72.5687 568.471 73.4H552.561C553.02 74.5753 553.765 75.4783 554.797 76.109C555.858 76.711 557.148 77.012 558.667 77.012C560.76 77.012 562.551 76.4387 564.042 75.292L567.052 78.431C566.077 79.635 564.802 80.6097 563.225 81.355C561.677 82.0717 559.914 82.43 557.936 82.43ZM562.623 68.627C562.394 67.3943 561.806 66.4483 560.86 65.789C559.914 65.1297 558.839 64.8 557.635 64.8C556.431 64.8 555.342 65.1297 554.367 65.789C553.421 66.4197 552.776 67.3657 552.432 68.627H562.623ZM571.668 59.64H578.333V65.703C578.735 63.7537 579.509 62.1913 580.655 61.016C581.802 59.812 583.336 59.21 585.256 59.21C585.858 59.21 586.389 59.2817 586.847 59.425V65.746C586.331 65.66 585.815 65.617 585.299 65.617C583.121 65.617 581.415 66.2763 580.182 67.595C578.95 68.9137 578.333 70.648 578.333 72.798V82H571.668V59.64ZM598.768 82.43C596.991 82.43 595.285 81.9857 593.651 81.097C592.017 80.2083 590.684 78.8897 589.652 77.141C588.62 75.3923 588.104 73.2853 588.104 70.82C588.104 68.3547 588.62 66.2477 589.652 64.499C590.684 62.7503 592.017 61.4317 593.651 60.543C595.285 59.6543 596.991 59.21 598.768 59.21C599.972 59.21 601.047 59.3963 601.993 59.769C602.968 60.113 603.742 60.5143 604.315 60.973C604.889 61.4317 605.247 61.833 605.39 62.177H605.519V59.64H612.184V82H605.519V79.463H605.39C605.247 79.807 604.889 80.2083 604.315 80.667C603.742 81.1257 602.968 81.5413 601.993 81.914C601.047 82.258 599.972 82.43 598.768 82.43ZM594.683 70.82C594.683 72.54 595.214 73.916 596.274 74.948C597.364 75.98 598.654 76.496 600.144 76.496C601.692 76.496 602.997 75.9943 604.057 74.991C605.147 73.959 605.691 72.5687 605.691 70.82C605.691 69.0713 605.147 67.6953 604.057 66.692C602.997 65.66 601.692 65.144 600.144 65.144C598.654 65.144 597.364 65.66 596.274 66.692C595.214 67.724 594.683 69.1 594.683 70.82ZM625.596 82.258C623.418 82.258 621.683 81.6847 620.393 80.538C619.103 79.3627 618.458 77.5567 618.458 75.12V64.929H615.147V59.64H618.458V53.921H625.123V59.64H629.81V64.929H625.123V74.045C625.123 74.7043 625.338 75.2633 625.768 75.722C626.198 76.152 626.872 76.367 627.789 76.367C628.477 76.367 629.18 76.2523 629.896 76.023V81.097C629.495 81.4983 628.893 81.7993 628.09 82C627.316 82.172 626.485 82.258 625.596 82.258ZM643.56 82.43C641.553 82.43 639.633 81.9857 637.798 81.097C635.992 80.1797 634.516 78.8467 633.369 77.098C632.251 75.3493 631.692 73.2567 631.692 70.82C631.692 68.3833 632.251 66.2907 633.369 64.542C634.516 62.7933 635.992 61.4747 637.798 60.586C639.633 59.6687 641.553 59.21 643.56 59.21C645.567 59.21 647.473 59.6687 649.279 60.586C651.114 61.4747 652.59 62.7933 653.708 64.542C654.855 66.2907 655.428 68.3833 655.428 70.82C655.428 73.2567 654.855 75.3493 653.708 77.098C652.59 78.8467 651.114 80.1797 649.279 81.097C647.473 81.9857 645.567 82.43 643.56 82.43ZM638.271 70.82C638.271 72.4827 638.773 73.83 639.776 74.862C640.808 75.894 642.069 76.41 643.56 76.41C645.051 76.41 646.298 75.894 647.301 74.862C648.333 73.83 648.849 72.4827 648.849 70.82C648.849 69.1573 648.333 67.81 647.301 66.778C646.298 65.746 645.051 65.23 643.56 65.23C642.069 65.23 640.808 65.746 639.776 66.778C638.773 67.81 638.271 69.1573 638.271 70.82ZM658.382 59.64H665.047V65.703C665.449 63.7537 666.223 62.1913 667.369 61.016C668.516 59.812 670.05 59.21 671.97 59.21C672.572 59.21 673.103 59.2817 673.561 59.425V65.746C673.045 65.66 672.529 65.617 672.013 65.617C669.835 65.617 668.129 66.2763 666.896 67.595C665.664 68.9137 665.047 70.648 665.047 72.798V82H658.382V59.64ZM683.413 82.43C681.091 82.43 679.156 81.8853 677.608 80.796C676.089 79.7067 675.157 78.13 674.813 76.066L680.102 74.647C680.647 76.367 681.722 77.227 683.327 77.227C683.986 77.227 684.531 77.0693 684.961 76.754C685.42 76.4387 685.649 75.98 685.649 75.378C685.649 74.518 685.018 73.8873 683.757 73.486L680.747 72.368C678.97 71.7373 677.637 70.863 676.748 69.745C675.888 68.5983 675.458 67.294 675.458 65.832C675.458 64.4847 675.816 63.3093 676.533 62.306C677.278 61.3027 678.267 60.543 679.5 60.027C680.733 59.4823 682.094 59.21 683.585 59.21C685.678 59.21 687.441 59.7547 688.874 60.844C690.307 61.9333 691.225 63.381 691.626 65.187L686.423 66.477C685.964 65.0723 685.104 64.37 683.843 64.37C683.241 64.37 682.768 64.5277 682.424 64.843C682.08 65.1297 681.908 65.488 681.908 65.918C681.908 66.778 682.553 67.4087 683.843 67.81L686.638 68.842C690.365 70.1033 692.228 72.282 692.228 75.378C692.228 77.5853 691.397 79.3197 689.734 80.581C688.1 81.8137 685.993 82.43 683.413 82.43Z" fill="black"/>
<rect width="266" height="60" transform="translate(822 139)" fill="#F9FBFC"/>
<circle cx="585" cy="556" r="367" fill="#E9E9E9"/>
<path d="M952 556C952 486.719 932.389 418.852 895.436 360.249L585 556H952Z" fill="black"/>
<path d="M1096.46 376.968H1088.25V370.92H1111.24V376.968H1103.03V405H1096.46V376.968ZM1114.9 370.92H1121.33V383.448C1122.07 382.264 1123.08 381.32 1124.36 380.616C1125.64 379.912 1127.17 379.56 1128.97 379.56C1131.72 379.56 1133.97 380.456 1135.73 382.248C1137.53 384.04 1138.42 386.728 1138.42 390.312V405H1131.99V391.368C1131.99 389.512 1131.51 388.04 1130.55 386.952C1129.62 385.864 1128.33 385.32 1126.66 385.32C1125.03 385.32 1123.73 385.88 1122.77 387C1121.81 388.088 1121.33 389.544 1121.33 391.368V405H1114.9V370.92ZM1155.12 405.48C1152.78 405.48 1150.62 404.968 1148.64 403.944C1146.65 402.92 1145.07 401.432 1143.88 399.48C1142.7 397.496 1142.11 395.176 1142.11 392.52C1142.11 389.832 1142.7 387.512 1143.88 385.56C1145.07 383.608 1146.62 382.12 1148.54 381.096C1150.49 380.072 1152.56 379.56 1154.73 379.56C1156.81 379.56 1158.78 380.024 1160.64 380.952C1162.52 381.848 1164.06 383.272 1165.24 385.224C1166.46 387.144 1167.07 389.528 1167.07 392.376C1167.07 392.92 1167 393.8 1166.88 395.016H1148.2C1148.65 396.68 1149.55 397.96 1150.89 398.856C1152.27 399.752 1153.92 400.2 1155.84 400.2C1158.4 400.2 1160.54 399.448 1162.27 397.944L1165.2 401.064C1164.14 402.408 1162.73 403.48 1160.97 404.28C1159.21 405.08 1157.26 405.48 1155.12 405.48ZM1161.16 390.312C1160.97 388.616 1160.27 387.304 1159.05 386.376C1157.84 385.448 1156.41 384.984 1154.78 384.984C1153.21 384.984 1151.8 385.448 1150.56 386.376C1149.31 387.272 1148.49 388.584 1148.11 390.312H1161.16ZM1197.71 405.48C1194.51 405.48 1191.56 404.76 1188.88 403.32C1186.19 401.848 1184.06 399.784 1182.49 397.128C1180.92 394.472 1180.14 391.416 1180.14 387.96C1180.14 384.504 1180.92 381.448 1182.49 378.792C1184.09 376.136 1186.22 374.088 1188.88 372.648C1191.56 371.176 1194.51 370.44 1197.71 370.44C1200.36 370.44 1202.91 371.016 1205.34 372.168C1207.8 373.288 1209.87 375.176 1211.53 377.832L1206.73 381.144C1205.68 379.64 1204.38 378.52 1202.84 377.784C1201.31 377.048 1199.66 376.68 1197.9 376.68C1195.88 376.68 1194.03 377.144 1192.33 378.072C1190.67 379 1189.34 380.328 1188.35 382.056C1187.36 383.752 1186.86 385.72 1186.86 387.96C1186.86 390.2 1187.36 392.184 1188.35 393.912C1189.34 395.608 1190.68 396.92 1192.38 397.848C1194.08 398.776 1195.93 399.24 1197.95 399.24C1199.74 399.24 1201.39 398.888 1202.89 398.184C1204.4 397.448 1205.68 396.312 1206.73 394.776L1211.53 398.088C1209.87 400.744 1207.8 402.648 1205.34 403.8C1202.91 404.92 1200.36 405.48 1197.71 405.48ZM1226.42 405.48C1224.18 405.48 1222.05 404.984 1220.03 403.992C1218.02 402.968 1216.38 401.48 1215.14 399.528C1213.89 397.544 1213.26 395.208 1213.26 392.52C1213.26 389.832 1213.89 387.512 1215.14 385.56C1216.38 383.576 1218.02 382.088 1220.03 381.096C1222.05 380.072 1224.18 379.56 1226.42 379.56C1228.66 379.56 1230.78 380.072 1232.8 381.096C1234.82 382.088 1236.45 383.576 1237.7 385.56C1238.94 387.512 1239.57 389.832 1239.57 392.52C1239.57 395.208 1238.94 397.544 1237.7 399.528C1236.45 401.48 1234.82 402.968 1232.8 403.992C1230.78 404.984 1228.66 405.48 1226.42 405.48ZM1219.6 392.52C1219.6 393.96 1219.9 395.224 1220.51 396.312C1221.15 397.4 1221.98 398.232 1223.01 398.808C1224.06 399.384 1225.2 399.672 1226.42 399.672C1227.63 399.672 1228.75 399.384 1229.78 398.808C1230.8 398.232 1231.62 397.4 1232.22 396.312C1232.86 395.224 1233.18 393.96 1233.18 392.52C1233.18 391.08 1232.86 389.816 1232.22 388.728C1231.62 387.64 1230.8 386.808 1229.78 386.232C1228.75 385.656 1227.63 385.368 1226.42 385.368C1225.2 385.368 1224.06 385.656 1223.01 386.232C1221.98 386.808 1221.15 387.64 1220.51 388.728C1219.9 389.816 1219.6 391.08 1219.6 392.52ZM1259.13 390.792C1259.13 389.064 1258.72 387.72 1257.88 386.76C1257.05 385.8 1255.93 385.32 1254.52 385.32C1253.08 385.32 1251.92 385.8 1251.02 386.76C1250.12 387.72 1249.68 389.064 1249.68 390.792V405H1243.24V380.04H1249.68V383.256C1250.41 382.136 1251.37 381.24 1252.56 380.568C1253.74 379.896 1255.16 379.56 1256.83 379.56C1258.43 379.56 1259.85 379.912 1261.1 380.616C1262.38 381.288 1263.39 382.328 1264.12 383.736C1264.89 382.488 1265.98 381.48 1267.39 380.712C1268.8 379.944 1270.46 379.56 1272.38 379.56C1275.16 379.56 1277.37 380.472 1279 382.296C1280.67 384.088 1281.5 386.824 1281.5 390.504V405H1275.02V390.792C1275.02 389.032 1274.6 387.688 1273.77 386.76C1272.94 385.8 1271.82 385.32 1270.41 385.32C1268.97 385.32 1267.8 385.8 1266.91 386.76C1266.01 387.72 1265.56 389.064 1265.56 390.792V405H1259.13V390.792ZM1302.26 390.792C1302.26 389.064 1301.84 387.72 1301.01 386.76C1300.18 385.8 1299.06 385.32 1297.65 385.32C1296.21 385.32 1295.04 385.8 1294.15 386.76C1293.25 387.72 1292.8 389.064 1292.8 390.792V405H1286.37V380.04H1292.8V383.256C1293.54 382.136 1294.5 381.24 1295.68 380.568C1296.87 379.896 1298.29 379.56 1299.95 379.56C1301.55 379.56 1302.98 379.912 1304.23 380.616C1305.51 381.288 1306.51 382.328 1307.25 383.736C1308.02 382.488 1309.11 381.48 1310.51 380.712C1311.92 379.944 1313.59 379.56 1315.51 379.56C1318.29 379.56 1320.5 380.472 1322.13 382.296C1323.79 384.088 1324.63 386.824 1324.63 390.504V405H1318.15V390.792C1318.15 389.032 1317.73 387.688 1316.9 386.76C1316.07 385.8 1314.95 385.32 1313.54 385.32C1312.1 385.32 1310.93 385.8 1310.03 386.76C1309.14 387.72 1308.69 389.064 1308.69 390.792V405H1302.26V390.792ZM1329.49 380.04H1335.93V405H1329.49V380.04ZM1329.49 370.92H1335.93V376.584H1329.49V370.92ZM1348.76 405.48C1346.23 405.48 1344.13 404.888 1342.47 403.704C1340.81 402.488 1339.78 400.744 1339.4 398.472L1344.53 397.08C1344.82 398.008 1345.3 398.792 1345.97 399.432C1346.65 400.072 1347.54 400.392 1348.66 400.392C1349.56 400.392 1350.31 400.168 1350.92 399.72C1351.56 399.272 1351.88 398.632 1351.88 397.8C1351.88 397.192 1351.65 396.664 1351.21 396.216C1350.79 395.768 1350.1 395.368 1349.14 395.016L1346.07 393.864C1344.09 393.16 1342.61 392.184 1341.65 390.936C1340.69 389.688 1340.21 388.28 1340.21 386.712C1340.21 385.272 1340.6 384.008 1341.37 382.92C1342.13 381.832 1343.17 381 1344.49 380.424C1345.83 379.848 1347.29 379.56 1348.85 379.56C1351.09 379.56 1352.98 380.152 1354.52 381.336C1356.09 382.488 1357.08 384.024 1357.49 385.944L1352.45 387.24C1351.88 385.48 1350.77 384.6 1349.14 384.6C1348.31 384.6 1347.65 384.808 1347.17 385.224C1346.69 385.64 1346.45 386.152 1346.45 386.76C1346.45 387.944 1347.32 388.824 1349.05 389.4L1351.83 390.456C1353.75 391.16 1355.3 392.072 1356.49 393.192C1357.67 394.28 1358.26 395.816 1358.26 397.8C1358.26 400.2 1357.35 402.088 1355.53 403.464C1353.73 404.808 1351.48 405.48 1348.76 405.48ZM1369.85 405.48C1367.32 405.48 1365.23 404.888 1363.56 403.704C1361.9 402.488 1360.88 400.744 1360.49 398.472L1365.63 397.08C1365.92 398.008 1366.4 398.792 1367.07 399.432C1367.74 400.072 1368.64 400.392 1369.76 400.392C1370.65 400.392 1371.4 400.168 1372.01 399.72C1372.65 399.272 1372.97 398.632 1372.97 397.8C1372.97 397.192 1372.75 396.664 1372.3 396.216C1371.88 395.768 1371.2 395.368 1370.24 395.016L1367.16 393.864C1365.18 393.16 1363.71 392.184 1362.75 390.936C1361.79 389.688 1361.31 388.28 1361.31 386.712C1361.31 385.272 1361.69 384.008 1362.46 382.92C1363.23 381.832 1364.27 381 1365.58 380.424C1366.92 379.848 1368.38 379.56 1369.95 379.56C1372.19 379.56 1374.08 380.152 1375.61 381.336C1377.18 382.488 1378.17 384.024 1378.59 385.944L1373.55 387.24C1372.97 385.48 1371.87 384.6 1370.24 384.6C1369.4 384.6 1368.75 384.808 1368.27 385.224C1367.79 385.64 1367.55 386.152 1367.55 386.76C1367.55 387.944 1368.41 388.824 1370.14 389.4L1372.92 390.456C1374.84 391.16 1376.4 392.072 1377.58 393.192C1378.76 394.28 1379.36 395.816 1379.36 397.8C1379.36 400.2 1378.44 402.088 1376.62 403.464C1374.83 404.808 1372.57 405.48 1369.85 405.48ZM1383.03 380.04H1389.46V405H1383.03V380.04ZM1383.03 370.92H1389.46V376.584H1383.03V370.92ZM1406.32 405.48C1404.08 405.48 1401.95 404.984 1399.94 403.992C1397.92 402.968 1396.29 401.48 1395.04 399.528C1393.79 397.544 1393.17 395.208 1393.17 392.52C1393.17 389.832 1393.79 387.512 1395.04 385.56C1396.29 383.576 1397.92 382.088 1399.94 381.096C1401.95 380.072 1404.08 379.56 1406.32 379.56C1408.56 379.56 1410.69 380.072 1412.71 381.096C1414.72 382.088 1416.35 383.576 1417.6 385.56C1418.85 387.512 1419.47 389.832 1419.47 392.52C1419.47 395.208 1418.85 397.544 1417.6 399.528C1416.35 401.48 1414.72 402.968 1412.71 403.992C1410.69 404.984 1408.56 405.48 1406.32 405.48ZM1399.51 392.52C1399.51 393.96 1399.81 395.224 1400.42 396.312C1401.06 397.4 1401.89 398.232 1402.91 398.808C1403.97 399.384 1405.11 399.672 1406.32 399.672C1407.54 399.672 1408.66 399.384 1409.68 398.808C1410.71 398.232 1411.52 397.4 1412.13 396.312C1412.77 395.224 1413.09 393.96 1413.09 392.52C1413.09 391.08 1412.77 389.816 1412.13 388.728C1411.52 387.64 1410.71 386.808 1409.68 386.232C1408.66 385.656 1407.54 385.368 1406.32 385.368C1405.11 385.368 1403.97 385.656 1402.91 386.232C1401.89 386.808 1401.06 387.64 1400.42 388.728C1399.81 389.816 1399.51 391.08 1399.51 392.52ZM1423.15 380.04H1429.58V383.448C1430.32 382.264 1431.33 381.32 1432.61 380.616C1433.89 379.912 1435.42 379.56 1437.22 379.56C1439.97 379.56 1442.22 380.456 1443.98 382.248C1445.78 384.04 1446.67 386.728 1446.67 390.312V405H1440.24V391.368C1440.24 389.512 1439.76 388.04 1438.8 386.952C1437.87 385.864 1436.58 385.32 1434.91 385.32C1433.28 385.32 1431.98 385.88 1431.02 387C1430.06 388.088 1429.58 389.544 1429.58 391.368V405H1423.15V380.04Z" fill="#111111"/>
<path d="M911.051 452.692C910.932 453.511 910.17 454.079 909.35 453.959C908.53 453.839 907.963 453.077 908.083 452.257L911.051 452.692ZM961.867 376.105L962.487 377.471L961.867 376.105ZM1044.05 371.181C1044.43 371.918 1044.14 372.823 1043.41 373.201L1031.4 379.375C1030.66 379.754 1029.76 379.464 1029.38 378.727C1029 377.99 1029.29 377.086 1030.03 376.707L1040.7 371.219L1035.21 360.548C1034.83 359.811 1035.12 358.907 1035.86 358.528C1036.6 358.149 1037.5 358.439 1037.88 359.176L1044.05 371.181ZM908.083 452.257C912.97 418.855 928.926 389.408 961.247 374.739L962.487 377.471C931.372 391.593 915.841 419.957 911.051 452.692L908.083 452.257ZM961.247 374.739C987.122 362.996 1016.41 361.852 1043.18 370.439L1042.26 373.296C1016.17 364.924 987.649 366.051 962.487 377.471L961.247 374.739Z" fill="black"/>
<path d="M322.394 518V489.968H314.186V483.92H337.177V489.968H328.97V518H322.394ZM348.009 518.48C341.481 518.48 334.857 513.968 334.857 505.52C334.857 497.072 341.481 492.56 348.009 492.56C354.489 492.56 361.161 497.072 361.161 505.52C361.161 513.968 354.489 518.48 348.009 518.48ZM341.193 505.52C341.193 509.984 344.409 512.672 348.009 512.672C351.609 512.672 354.777 509.984 354.777 505.52C354.777 501.056 351.609 498.368 348.009 498.368C344.409 498.368 341.193 501.056 341.193 505.52ZM373.784 518.288C369.56 518.288 366.488 516.224 366.488 511.088V498.176H362.936V493.04H366.488V486.656H372.968V493.04H378.104V498.176H372.968V510.032C372.968 511.328 373.688 512.576 375.799 512.576C376.376 512.576 377.24 512.48 378.152 512.192V517.136C377.192 518 375.368 518.288 373.784 518.288ZM392.607 518.48C386.799 518.48 380.607 514.16 380.607 505.52C380.607 496.88 386.799 492.56 392.607 492.56C397.071 492.56 399.951 495.008 400.575 496.4H400.719V493.04H407.151V518H400.719V514.64H400.575C399.951 516.032 397.071 518.48 392.607 518.48ZM386.943 505.52C386.943 510.176 390.303 512.72 393.903 512.72C397.503 512.72 400.863 510.224 400.863 505.52C400.863 500.816 397.503 498.32 393.903 498.32C390.303 498.32 386.943 500.864 386.943 505.52ZM412.042 518V483.92H418.474V518H412.042ZM454.591 518L441.487 483.92H448.591L458.095 509.792L467.599 483.92H474.703L461.551 518H454.591ZM477.901 518V483.92H484.477V518H477.901ZM489.339 518V483.92H501.387C508.779 483.92 513.579 488.528 513.579 495.488C513.579 502.448 508.779 507.056 501.387 507.056H495.915V518H489.339ZM495.915 501.008H500.811C504.363 501.008 506.907 499.472 506.907 495.488C506.907 491.552 504.363 489.968 500.811 489.968H495.915V501.008ZM312.19 574L305.182 562.72H300.094V574H293.518V539.92H305.47C312.718 539.92 317.518 544.528 317.518 551.488C317.518 556.384 315.166 559.936 311.23 561.616L319.198 574H312.19ZM300.094 557.008H304.798C308.398 557.008 310.846 555.472 310.846 551.488C310.846 547.552 308.398 545.968 304.798 545.968H300.094V557.008ZM332.748 574.48C325.884 574.48 319.74 569.824 319.74 561.52C319.74 553.12 325.98 548.56 332.364 548.56C338.7 548.56 345.9 553.024 344.508 564.016H325.836C326.748 567.424 329.724 569.2 333.468 569.2C335.916 569.2 338.076 568.528 339.9 566.944L342.828 570.064C340.764 572.656 337.164 574.48 332.748 574.48ZM325.74 559.312H338.796C338.412 555.76 335.436 553.984 332.412 553.984C329.436 553.984 326.556 555.712 325.74 559.312ZM372.685 574L366.493 557.104L360.301 574H354.397L345.229 549.04H351.613L357.421 566.32L363.517 549.04H369.421L375.517 566.32L381.373 549.04H387.757L378.589 574H372.685ZM400.318 574.48C394.51 574.48 388.318 570.16 388.318 561.52C388.318 552.88 394.51 548.56 400.318 548.56C404.782 548.56 407.662 551.008 408.286 552.4H408.43V549.04H414.862V574H408.43V570.64H408.286C407.662 572.032 404.782 574.48 400.318 574.48ZM394.654 561.52C394.654 566.176 398.014 568.72 401.614 568.72C405.214 568.72 408.574 566.224 408.574 561.52C408.574 556.816 405.214 554.32 401.614 554.32C398.014 554.32 394.654 556.864 394.654 561.52ZM419.753 574V549.04H426.185V555.52C427.049 551.68 429.497 548.56 434.009 548.56C434.585 548.56 435.113 548.608 435.689 548.752V554.896C435.113 554.8 434.633 554.752 434.057 554.752C429.209 554.752 426.185 558.112 426.185 563.104V574H419.753ZM463.987 574H457.555V570.64H457.411C456.787 572.032 453.907 574.48 449.443 574.48C443.635 574.48 437.443 570.16 437.443 561.52C437.443 552.88 443.635 548.56 449.443 548.56C453.907 548.56 456.787 551.008 457.411 552.4H457.555V539.92H463.987V574ZM443.779 561.52C443.779 566.176 447.139 568.72 450.739 568.72C454.339 568.72 457.699 566.224 457.699 561.52C457.699 556.816 454.339 554.32 450.739 554.32C447.139 554.32 443.779 556.864 443.779 561.52ZM480.4 545.776C480.4 540.304 484 539.008 486.784 539.008C488.368 539.008 489.568 539.44 490.432 539.968V542.32C489.568 541.84 488.416 541.552 487.264 541.552C485.056 541.552 483.328 542.608 483.328 546.16V549.04H490.432V551.488H483.328V574H480.4V551.488H477.664V549.04H480.4V545.776ZM505.961 574.48C499.529 574.48 493.097 569.824 493.097 561.52C493.097 553.216 499.529 548.56 505.961 548.56C512.393 548.56 518.825 553.216 518.825 561.52C518.825 569.824 512.393 574.48 505.961 574.48ZM496.025 561.52C496.025 568.144 500.921 571.792 505.961 571.792C511.001 571.792 515.897 568.144 515.897 561.52C515.897 554.896 511.001 551.248 505.961 551.248C500.921 551.248 496.025 554.896 496.025 561.52ZM523.688 574V549.04H526.616V554.848C527.624 551.488 530.12 548.56 534.728 548.56C535.304 548.56 535.688 548.608 536.024 548.704V551.44C535.64 551.344 535.304 551.296 534.776 551.296C530.216 551.296 526.616 554.896 526.616 560.752V574H523.688ZM296.73 630.48C290.106 630.48 284.058 625.872 284.058 617.472C284.058 609.12 290.154 604.56 296.394 604.56C302.73 604.56 309.114 609.168 308.298 618.576H286.842C287.322 624.624 291.834 627.888 297.066 627.888C300.234 627.888 303.162 626.688 304.986 624.528L306.522 626.112C304.266 628.896 300.618 630.48 296.73 630.48ZM286.842 616.224H305.658C305.514 610.368 301.146 607.152 296.394 607.152C291.786 607.152 287.37 610.272 286.842 616.224ZM324.38 630.48C318.14 630.48 311.996 626.016 311.996 617.52C311.996 609.024 318.14 604.56 324.38 604.56C329.084 604.56 332.924 607.152 334.364 610.368H334.508V605.04H337.436V630H334.508V624.672H334.364C332.924 627.888 329.084 630.48 324.38 630.48ZM314.924 617.52C314.924 624.432 319.868 627.792 324.764 627.792C329.66 627.792 334.604 624.384 334.604 617.52C334.604 610.656 329.66 607.248 324.764 607.248C319.868 607.248 314.924 610.608 314.924 617.52ZM355.093 630.48C348.709 630.48 342.277 625.824 342.277 617.568C342.277 609.216 348.709 604.56 355.093 604.56C359.413 604.56 363.589 606.672 365.749 610.704L363.445 612C361.765 608.928 358.549 607.248 355.189 607.248C350.245 607.248 345.205 610.896 345.205 617.568C345.205 624.144 350.245 627.792 355.189 627.792C358.549 627.792 361.765 626.112 363.445 623.04L365.749 624.336C363.589 628.368 359.413 630.48 355.093 630.48ZM370.618 630V595.92H373.546V609.408C374.794 606.96 377.578 604.56 382.186 604.56C387.514 604.56 392.074 607.872 392.074 615.312V630H389.146V615.648C389.146 609.936 385.738 607.248 381.418 607.248C377.146 607.248 373.546 609.936 373.546 615.648V630H370.618ZM419.256 630.48C412.392 630.48 406.248 625.824 406.248 617.52C406.248 609.12 412.488 604.56 418.872 604.56C425.208 604.56 432.408 609.024 431.016 620.016H412.344C413.256 623.424 416.232 625.2 419.976 625.2C422.424 625.2 424.584 624.528 426.408 622.944L429.336 626.064C427.272 628.656 423.672 630.48 419.256 630.48ZM412.248 615.312H425.304C424.92 611.76 421.944 609.984 418.92 609.984C415.944 609.984 413.064 611.712 412.248 615.312ZM434.401 639.12V605.04H440.833V608.4H440.977C441.601 607.008 444.481 604.56 448.945 604.56C454.753 604.56 460.945 608.88 460.945 617.52C460.945 626.16 454.753 630.48 448.945 630.48C444.481 630.48 441.601 628.032 440.977 626.64H440.833V639.12H434.401ZM440.689 617.52C440.689 622.224 444.049 624.72 447.649 624.72C451.249 624.72 454.609 622.176 454.609 617.52C454.609 612.864 451.249 610.32 447.649 610.32C444.049 610.32 440.689 612.816 440.689 617.52ZM476.588 630.48C470.06 630.48 463.436 625.968 463.436 617.52C463.436 609.072 470.06 604.56 476.588 604.56C483.068 604.56 489.74 609.072 489.74 617.52C489.74 625.968 483.068 630.48 476.588 630.48ZM469.772 617.52C469.772 621.984 472.988 624.672 476.588 624.672C480.188 624.672 483.356 621.984 483.356 617.52C483.356 613.056 480.188 610.368 476.588 610.368C472.988 610.368 469.772 613.056 469.772 617.52ZM505.369 630.48C498.793 630.48 492.217 625.968 492.217 617.52C492.217 609.072 498.793 604.56 505.369 604.56C509.785 604.56 513.721 606.624 516.121 610.704L511.417 613.728C510.121 611.76 508.009 610.368 505.417 610.368C501.817 610.368 498.553 613.056 498.553 617.52C498.553 621.984 501.817 624.672 505.417 624.672C508.009 624.672 510.121 623.28 511.417 621.312L516.121 624.336C513.721 628.368 509.785 630.48 505.369 630.48ZM519.807 630V595.92H526.239V608.448C527.631 606.24 530.127 604.56 533.871 604.56C539.007 604.56 543.327 607.728 543.327 615.312V630H536.895V616.368C536.895 612.72 534.927 610.32 531.567 610.32C528.255 610.32 526.239 612.72 526.239 616.368V630H519.807Z" fill="black"/>
<path d="M1092.33 457V441.88H1087.82V439.96H1098.9V441.88H1094.39V457H1092.33ZM1101.14 457V439.96H1103.16V446.56C1103.81 445.36 1105.17 444.28 1107.33 444.28C1109.95 444.28 1112.21 445.912 1112.21 449.656V457H1110.19V449.944C1110.19 447.424 1108.7 446.128 1106.71 446.128C1104.72 446.128 1103.16 447.424 1103.16 449.944V457H1101.14ZM1120.85 457.24C1117.49 457.24 1114.44 454.912 1114.44 450.76C1114.44 446.56 1117.51 444.28 1120.66 444.28C1123.83 444.28 1127.14 446.56 1126.63 451.504H1116.36C1116.67 454.12 1118.67 455.512 1121.07 455.512C1122.53 455.512 1123.87 454.984 1124.79 454L1125.79 455.032C1124.67 456.424 1122.87 457.24 1120.85 457.24ZM1116.36 449.968H1124.86C1124.71 447.4 1122.77 446.032 1120.68 446.032C1118.62 446.032 1116.67 447.352 1116.36 449.968ZM1139.95 457.24C1136.71 457.24 1133.47 454.936 1133.47 450.76C1133.47 446.584 1136.71 444.28 1139.95 444.28C1142.11 444.28 1144.15 445.312 1145.28 447.352L1143.74 448.264C1142.95 446.92 1141.54 446.128 1139.98 446.128C1137.72 446.128 1135.49 447.808 1135.49 450.76C1135.49 453.712 1137.72 455.392 1139.98 455.392C1141.54 455.392 1142.95 454.6 1143.74 453.256L1145.28 454.168C1144.15 456.184 1142.11 457.24 1139.95 457.24ZM1153.19 457.24C1149.95 457.24 1146.71 454.936 1146.71 450.76C1146.71 446.584 1149.95 444.28 1153.19 444.28C1156.43 444.28 1159.67 446.584 1159.67 450.76C1159.67 454.936 1156.43 457.24 1153.19 457.24ZM1148.73 450.76C1148.73 453.712 1150.89 455.392 1153.19 455.392C1155.5 455.392 1157.66 453.712 1157.66 450.76C1157.66 447.808 1155.5 446.128 1153.19 446.128C1150.89 446.128 1148.73 447.808 1148.73 450.76ZM1170.17 457V449.8C1170.17 447.52 1169.14 446.128 1167.15 446.128C1165.13 446.128 1163.93 447.52 1163.93 449.8V457H1161.92V444.52H1163.93V446.464C1164.53 445.312 1165.76 444.28 1167.75 444.28C1169.5 444.28 1170.94 445.072 1171.68 446.8C1172.28 445.528 1173.63 444.28 1175.93 444.28C1178.52 444.28 1180.44 445.936 1180.44 449.656V457H1178.43V449.8C1178.43 447.52 1177.4 446.128 1175.4 446.128C1173.39 446.128 1172.19 447.52 1172.19 449.8V457H1170.17ZM1191.52 457V449.8C1191.52 447.52 1190.49 446.128 1188.5 446.128C1186.48 446.128 1185.28 447.52 1185.28 449.8V457H1183.27V444.52H1185.28V446.464C1185.88 445.312 1187.11 444.28 1189.1 444.28C1190.85 444.28 1192.29 445.072 1193.04 446.8C1193.64 445.528 1194.98 444.28 1197.28 444.28C1199.88 444.28 1201.8 445.936 1201.8 449.656V457H1199.78V449.8C1199.78 447.52 1198.75 446.128 1196.76 446.128C1194.74 446.128 1193.54 447.52 1193.54 449.8V457H1191.52ZM1204.62 457V444.52H1206.64V457H1204.62ZM1204.62 441.832V439.96H1206.64V441.832H1204.62ZM1213.14 457.24C1210.81 457.24 1209.13 455.992 1208.75 453.856L1210.43 453.4C1210.77 454.72 1211.75 455.56 1213.14 455.56C1214.32 455.56 1215.49 454.984 1215.49 453.616C1215.49 452.584 1214.77 452.056 1213.33 451.456L1212.21 451.024C1210.14 450.184 1209.28 448.96 1209.28 447.544C1209.28 445.576 1210.98 444.28 1213.14 444.28C1215.13 444.28 1216.62 445.384 1217.05 447.064L1215.45 447.544C1215.06 446.512 1214.32 445.936 1213.21 445.936C1212.13 445.936 1211.27 446.512 1211.27 447.568C1211.27 448.36 1211.77 448.984 1213.07 449.512L1214.08 449.92C1216.05 450.688 1217.49 451.552 1217.49 453.616C1217.49 456.088 1215.4 457.24 1213.14 457.24ZM1223.38 457.24C1221.06 457.24 1219.38 455.992 1218.99 453.856L1220.67 453.4C1221.01 454.72 1221.99 455.56 1223.38 455.56C1224.56 455.56 1225.74 454.984 1225.74 453.616C1225.74 452.584 1225.02 452.056 1223.58 451.456L1222.45 451.024C1220.38 450.184 1219.52 448.96 1219.52 447.544C1219.52 445.576 1221.22 444.28 1223.38 444.28C1225.38 444.28 1226.86 445.384 1227.3 447.064L1225.69 447.544C1225.3 446.512 1224.56 445.936 1223.46 445.936C1222.38 445.936 1221.51 446.512 1221.51 447.568C1221.51 448.36 1222.02 448.984 1223.31 449.512L1224.32 449.92C1226.29 450.688 1227.73 451.552 1227.73 453.616C1227.73 456.088 1225.64 457.24 1223.38 457.24ZM1229.96 457V444.52H1231.97V457H1229.96ZM1229.96 441.832V439.96H1231.97V441.832H1229.96ZM1240.69 457.24C1237.45 457.24 1234.21 454.936 1234.21 450.76C1234.21 446.584 1237.45 444.28 1240.69 444.28C1243.93 444.28 1247.17 446.584 1247.17 450.76C1247.17 454.936 1243.93 457.24 1240.69 457.24ZM1236.22 450.76C1236.22 453.712 1238.38 455.392 1240.69 455.392C1242.99 455.392 1245.15 453.712 1245.15 450.76C1245.15 447.808 1242.99 446.128 1240.69 446.128C1238.38 446.128 1236.22 447.808 1236.22 450.76ZM1249.41 457V444.52H1251.42V446.56C1252.07 445.36 1253.44 444.28 1255.6 444.28C1258.22 444.28 1260.47 445.912 1260.47 449.656V457H1258.46V449.944C1258.46 447.424 1256.97 446.128 1254.98 446.128C1252.98 446.128 1251.42 447.424 1251.42 449.944V457H1249.41ZM1268.44 457V444.52H1270.46V447.616C1270.91 445.816 1272.16 444.28 1274.46 444.28C1274.75 444.28 1274.99 444.304 1275.18 444.376V446.272C1274.97 446.224 1274.78 446.2 1274.49 446.2C1272.16 446.2 1270.46 447.952 1270.46 450.736V457H1268.44ZM1282.58 457.24C1279.56 457.24 1276.46 455.032 1276.46 450.76C1276.46 446.488 1279.56 444.28 1282.58 444.28C1284.91 444.28 1286.66 445.552 1287.26 446.872H1287.34V444.52H1289.35V457H1287.34V454.648H1287.26C1286.66 455.968 1284.91 457.24 1282.58 457.24ZM1278.48 450.76C1278.48 453.856 1280.71 455.392 1282.92 455.392C1285.18 455.392 1287.41 453.832 1287.41 450.76C1287.41 447.688 1285.18 446.128 1282.92 446.128C1280.71 446.128 1278.48 447.664 1278.48 450.76ZM1296.05 457.144C1294.39 457.144 1293.26 456.328 1293.26 454.456V446.176H1291.58V444.52H1293.26V441.328H1295.28V444.52H1297.75V446.176H1295.28V454.072C1295.28 454.84 1295.66 455.32 1296.6 455.32C1296.89 455.32 1297.27 455.272 1297.73 455.104V456.712C1297.29 457.048 1296.62 457.144 1296.05 457.144ZM1305.79 457.24C1302.43 457.24 1299.39 454.912 1299.39 450.76C1299.39 446.56 1302.46 444.28 1305.6 444.28C1308.77 444.28 1312.08 446.56 1311.58 451.504H1301.31C1301.62 454.12 1303.61 455.512 1306.01 455.512C1307.47 455.512 1308.82 454.984 1309.73 454L1310.74 455.032C1309.61 456.424 1307.81 457.24 1305.79 457.24ZM1301.31 449.968H1309.8C1309.66 447.4 1307.71 446.032 1305.63 446.032C1303.56 446.032 1301.62 447.352 1301.31 449.968ZM1319.02 457V444.52H1321.03V457H1319.02ZM1319.02 441.832V439.96H1321.03V441.832H1319.02ZM1327.54 457.24C1325.21 457.24 1323.53 455.992 1323.15 453.856L1324.83 453.4C1325.17 454.72 1326.15 455.56 1327.54 455.56C1328.72 455.56 1329.89 454.984 1329.89 453.616C1329.89 452.584 1329.17 452.056 1327.73 451.456L1326.61 451.024C1324.54 450.184 1323.68 448.96 1323.68 447.544C1323.68 445.576 1325.38 444.28 1327.54 444.28C1329.53 444.28 1331.02 445.384 1331.45 447.064L1329.85 447.544C1329.46 446.512 1328.72 445.936 1327.61 445.936C1326.53 445.936 1325.67 446.512 1325.67 447.568C1325.67 448.36 1326.17 448.984 1327.47 449.512L1328.48 449.92C1330.45 450.688 1331.89 451.552 1331.89 453.616C1331.89 456.088 1329.8 457.24 1327.54 457.24ZM1342.92 457.24C1340.59 457.24 1338.91 455.992 1338.52 453.856L1340.2 453.4C1340.54 454.72 1341.52 455.56 1342.92 455.56C1344.09 455.56 1345.27 454.984 1345.27 453.616C1345.27 452.584 1344.55 452.056 1343.11 451.456L1341.98 451.024C1339.92 450.184 1339.05 448.96 1339.05 447.544C1339.05 445.576 1340.76 444.28 1342.92 444.28C1344.91 444.28 1346.4 445.384 1346.83 447.064L1345.22 447.544C1344.84 446.512 1344.09 445.936 1342.99 445.936C1341.91 445.936 1341.04 446.512 1341.04 447.568C1341.04 448.36 1341.55 448.984 1342.84 449.512L1343.85 449.92C1345.82 450.688 1347.26 451.552 1347.26 453.616C1347.26 456.088 1345.17 457.24 1342.92 457.24ZM1355.29 457.24C1351.93 457.24 1348.89 454.912 1348.89 450.76C1348.89 446.56 1351.96 444.28 1355.1 444.28C1358.27 444.28 1361.58 446.56 1361.08 451.504H1350.81C1351.12 454.12 1353.11 455.512 1355.51 455.512C1356.97 455.512 1358.32 454.984 1359.23 454L1360.24 455.032C1359.11 456.424 1357.31 457.24 1355.29 457.24ZM1350.81 449.968H1359.3C1359.16 447.4 1357.21 446.032 1355.13 446.032C1353.06 446.032 1351.12 447.352 1350.81 449.968ZM1366.9 457.144C1365.24 457.144 1364.11 456.328 1364.11 454.456V446.176H1362.43V444.52H1364.11V441.328H1366.13V444.52H1368.6V446.176H1366.13V454.072C1366.13 454.84 1366.51 455.32 1367.45 455.32C1367.74 455.32 1368.12 455.272 1368.58 455.104V456.712C1368.15 457.048 1367.47 457.144 1366.9 457.144ZM1389.65 457L1385.74 446.968L1381.82 457H1379.95L1375.25 444.52H1377.29L1380.91 454.48L1384.78 444.52H1386.7L1390.56 454.48L1394.18 444.52H1396.22L1391.52 457H1389.65ZM1398.21 457V439.96H1400.23V446.56C1400.88 445.36 1402.24 444.28 1404.4 444.28C1407.02 444.28 1409.28 445.912 1409.28 449.656V457H1407.26V449.944C1407.26 447.424 1405.77 446.128 1403.78 446.128C1401.79 446.128 1400.23 447.424 1400.23 449.944V457H1398.21ZM1417.92 457.24C1414.56 457.24 1411.51 454.912 1411.51 450.76C1411.51 446.56 1414.58 444.28 1417.73 444.28C1420.9 444.28 1424.21 446.56 1423.7 451.504H1413.43C1413.74 454.12 1415.74 455.512 1418.14 455.512C1419.6 455.512 1420.94 454.984 1421.86 454L1422.86 455.032C1421.74 456.424 1419.94 457.24 1417.92 457.24ZM1413.43 449.968H1421.93C1421.78 447.4 1419.84 446.032 1417.75 446.032C1415.69 446.032 1413.74 447.352 1413.43 449.968ZM1426.01 457V444.52H1428.03V446.56C1428.67 445.36 1430.04 444.28 1432.2 444.28C1434.82 444.28 1437.07 445.912 1437.07 449.656V457H1435.06V449.944C1435.06 447.424 1433.57 446.128 1431.58 446.128C1429.59 446.128 1428.03 447.424 1428.03 449.944V457H1426.01ZM1448.91 457.144C1447.25 457.144 1446.12 456.328 1446.12 454.456V446.176H1444.44V444.52H1446.12V441.328H1448.14V444.52H1450.61V446.176H1448.14V454.072C1448.14 454.84 1448.52 455.32 1449.46 455.32C1449.75 455.32 1450.13 455.272 1450.59 455.104V456.712C1450.15 457.048 1449.48 457.144 1448.91 457.144ZM1452.96 457V439.96H1454.98V446.56C1455.63 445.36 1456.99 444.28 1459.15 444.28C1461.77 444.28 1464.03 445.912 1464.03 449.656V457H1462.01V449.944C1462.01 447.424 1460.52 446.128 1458.53 446.128C1456.54 446.128 1454.98 447.424 1454.98 449.944V457H1452.96ZM1472.67 457.24C1469.31 457.24 1466.26 454.912 1466.26 450.76C1466.26 446.56 1469.33 444.28 1472.48 444.28C1475.65 444.28 1478.96 446.56 1478.45 451.504H1468.18C1468.49 454.12 1470.49 455.512 1472.89 455.512C1474.35 455.512 1475.69 454.984 1476.61 454L1477.61 455.032C1476.49 456.424 1474.69 457.24 1472.67 457.24ZM1468.18 449.968H1476.68C1476.53 447.4 1474.59 446.032 1472.5 446.032C1470.44 446.032 1468.49 447.352 1468.18 449.968ZM1485.89 457V439.96H1488.2L1494.8 454.336L1501.42 439.96H1503.72V457H1501.66V444.064H1501.54L1495.59 457H1494.03L1488.08 444.064H1487.96V457H1485.89ZM1506.56 457V444.52H1508.58V457H1506.56ZM1506.56 441.832V439.96H1508.58V441.832H1506.56ZM1511.42 457V444.52H1513.43V446.56C1514.08 445.36 1515.45 444.28 1517.61 444.28C1520.22 444.28 1522.48 445.912 1522.48 449.656V457H1520.46V449.944C1520.46 447.424 1518.98 446.128 1516.98 446.128C1514.99 446.128 1513.43 447.424 1513.43 449.944V457H1511.42ZM1525.31 457V444.52H1527.33V457H1525.31ZM1525.31 441.832V439.96H1527.33V441.832H1525.31ZM1534.03 457.144C1532.37 457.144 1531.25 456.328 1531.25 454.456V446.176H1529.57V444.52H1531.25V441.328H1533.26V444.52H1535.73V446.176H1533.26V454.072C1533.26 454.84 1533.65 455.32 1534.58 455.32C1534.87 455.32 1535.25 455.272 1535.71 455.104V456.712C1535.28 457.048 1534.61 457.144 1534.03 457.144ZM1538.09 457V444.52H1540.1V457H1538.09ZM1538.09 441.832V439.96H1540.1V441.832H1538.09ZM1548.46 457.24C1545.44 457.24 1542.34 455.032 1542.34 450.76C1542.34 446.488 1545.44 444.28 1548.46 444.28C1550.79 444.28 1552.54 445.552 1553.14 446.872H1553.21V444.52H1555.23V457H1553.21V454.648H1553.14C1552.54 455.968 1550.79 457.24 1548.46 457.24ZM1544.36 450.76C1544.36 453.856 1546.59 455.392 1548.8 455.392C1551.05 455.392 1553.28 453.832 1553.28 450.76C1553.28 447.688 1551.05 446.128 1548.8 446.128C1546.59 446.128 1544.36 447.664 1544.36 450.76ZM1088.42 488V475.52H1090.43V488H1088.42ZM1088.42 472.832V470.96H1090.43V472.832H1088.42ZM1096.94 488.24C1094.61 488.24 1092.93 486.992 1092.55 484.856L1094.23 484.4C1094.56 485.72 1095.55 486.56 1096.94 486.56C1098.12 486.56 1099.29 485.984 1099.29 484.616C1099.29 483.584 1098.57 483.056 1097.13 482.456L1096 482.024C1093.94 481.184 1093.08 479.96 1093.08 478.544C1093.08 476.576 1094.78 475.28 1096.94 475.28C1098.93 475.28 1100.42 476.384 1100.85 478.064L1099.24 478.544C1098.86 477.512 1098.12 476.936 1097.01 476.936C1095.93 476.936 1095.07 477.512 1095.07 478.568C1095.07 479.36 1095.57 479.984 1096.87 480.512L1097.88 480.92C1099.84 481.688 1101.28 482.552 1101.28 484.616C1101.28 487.088 1099.2 488.24 1096.94 488.24ZM1109.24 474.224C1109.24 471.176 1111.31 470.48 1112.72 470.48C1113.49 470.48 1114.21 470.648 1114.71 470.96V472.568C1114.26 472.328 1113.63 472.232 1113.2 472.232C1112.05 472.232 1111.28 472.808 1111.28 474.392V475.52H1118.46V488H1116.44V477.176H1111.28V488H1109.24V477.176H1107.8V475.52H1109.24V474.224ZM1116.44 472.832V470.96H1118.46V472.832H1116.44ZM1121.3 488V475.52H1123.31V478.616C1123.77 476.816 1125.02 475.28 1127.32 475.28C1127.61 475.28 1127.85 475.304 1128.04 475.376V477.272C1127.83 477.224 1127.63 477.2 1127.35 477.2C1125.02 477.2 1123.31 478.952 1123.31 481.736V488H1121.3ZM1133.71 488.24C1131.39 488.24 1129.71 486.992 1129.32 484.856L1131 484.4C1131.34 485.72 1132.32 486.56 1133.71 486.56C1134.89 486.56 1136.07 485.984 1136.07 484.616C1136.07 483.584 1135.35 483.056 1133.91 482.456L1132.78 482.024C1130.71 481.184 1129.85 479.96 1129.85 478.544C1129.85 476.576 1131.55 475.28 1133.71 475.28C1135.71 475.28 1137.19 476.384 1137.63 478.064L1136.02 478.544C1135.63 477.512 1134.89 476.936 1133.79 476.936C1132.71 476.936 1131.84 477.512 1131.84 478.568C1131.84 479.36 1132.35 479.984 1133.64 480.512L1134.65 480.92C1136.62 481.688 1138.06 482.552 1138.06 484.616C1138.06 487.088 1135.97 488.24 1133.71 488.24ZM1143.91 488.144C1142.26 488.144 1141.13 487.328 1141.13 485.456V477.176H1139.45V475.52H1141.13V472.328H1143.14V475.52H1145.62V477.176H1143.14V485.072C1143.14 485.84 1143.53 486.32 1144.46 486.32C1144.75 486.32 1145.14 486.272 1145.59 486.104V487.712C1145.16 488.048 1144.49 488.144 1143.91 488.144ZM1166.66 488L1162.75 477.968L1158.84 488H1156.97L1152.26 475.52H1154.3L1157.93 485.48L1161.79 475.52H1163.71L1167.58 485.48L1171.2 475.52H1173.24L1168.54 488H1166.66ZM1175.23 488V470.96H1177.24V477.56C1177.89 476.36 1179.26 475.28 1181.42 475.28C1184.04 475.28 1186.29 476.912 1186.29 480.656V488H1184.28V480.944C1184.28 478.424 1182.79 477.128 1180.8 477.128C1178.8 477.128 1177.24 478.424 1177.24 480.944V488H1175.23ZM1189.13 488V475.52H1191.14V488H1189.13ZM1189.13 472.832V470.96H1191.14V472.832H1189.13ZM1197.84 488.144C1196.19 488.144 1195.06 487.328 1195.06 485.456V477.176H1193.38V475.52H1195.06V472.328H1197.07V475.52H1199.55V477.176H1197.07V485.072C1197.07 485.84 1197.46 486.32 1198.39 486.32C1198.68 486.32 1199.07 486.272 1199.52 486.104V487.712C1199.09 488.048 1198.42 488.144 1197.84 488.144ZM1207.59 488.24C1204.23 488.24 1201.18 485.912 1201.18 481.76C1201.18 477.56 1204.26 475.28 1207.4 475.28C1210.57 475.28 1213.88 477.56 1213.38 482.504H1203.1C1203.42 485.12 1205.41 486.512 1207.81 486.512C1209.27 486.512 1210.62 485.984 1211.53 485L1212.54 486.032C1211.41 487.424 1209.61 488.24 1207.59 488.24ZM1203.1 480.968H1211.6C1211.46 478.4 1209.51 477.032 1207.42 477.032C1205.36 477.032 1203.42 478.352 1203.1 480.968ZM1215.68 488V470.96H1217.7V488H1215.68ZM1220.53 488V475.52H1222.55V488H1220.53ZM1220.53 472.832V470.96H1222.55V472.832H1220.53ZM1229.06 488.24C1226.73 488.24 1225.05 486.992 1224.66 484.856L1226.34 484.4C1226.68 485.72 1227.66 486.56 1229.06 486.56C1230.23 486.56 1231.41 485.984 1231.41 484.616C1231.41 483.584 1230.69 483.056 1229.25 482.456L1228.12 482.024C1226.06 481.184 1225.19 479.96 1225.19 478.544C1225.19 476.576 1226.9 475.28 1229.06 475.28C1231.05 475.28 1232.54 476.384 1232.97 478.064L1231.36 478.544C1230.98 477.512 1230.23 476.936 1229.13 476.936C1228.05 476.936 1227.18 477.512 1227.18 478.568C1227.18 479.36 1227.69 479.984 1228.98 480.512L1229.99 480.92C1231.96 481.688 1233.4 482.552 1233.4 484.616C1233.4 487.088 1231.31 488.24 1229.06 488.24ZM1239.26 488.144C1237.6 488.144 1236.47 487.328 1236.47 485.456V477.176H1234.79V475.52H1236.47V472.328H1238.49V475.52H1240.96V477.176H1238.49V485.072C1238.49 485.84 1238.87 486.32 1239.81 486.32C1240.1 486.32 1240.48 486.272 1240.94 486.104V487.712C1240.5 488.048 1239.83 488.144 1239.26 488.144ZM1249.01 488.24C1245.65 488.24 1242.6 485.912 1242.6 481.76C1242.6 477.56 1245.67 475.28 1248.81 475.28C1251.98 475.28 1255.29 477.56 1254.79 482.504H1244.52C1244.83 485.12 1246.82 486.512 1249.22 486.512C1250.69 486.512 1252.03 485.984 1252.94 485L1253.95 486.032C1252.82 487.424 1251.02 488.24 1249.01 488.24ZM1244.52 480.968H1253.01C1252.87 478.4 1250.93 477.032 1248.84 477.032C1246.77 477.032 1244.83 478.352 1244.52 480.968ZM1269.38 488H1267.37V485.648H1267.3C1266.7 486.968 1264.94 488.24 1262.62 488.24C1259.59 488.24 1256.5 486.032 1256.5 481.76C1256.5 477.488 1259.59 475.28 1262.62 475.28C1264.94 475.28 1266.7 476.552 1267.3 477.872H1267.37V470.96H1269.38V488ZM1258.51 481.76C1258.51 484.856 1260.74 486.392 1262.95 486.392C1265.21 486.392 1267.44 484.832 1267.44 481.76C1267.44 478.688 1265.21 477.128 1262.95 477.128C1260.74 477.128 1258.51 478.664 1258.51 481.76ZM1277.95 474.152C1277.95 471.128 1279.99 470.48 1281.47 470.48C1282.22 470.48 1282.91 470.648 1283.42 470.96V472.568C1282.91 472.328 1282.34 472.232 1281.91 472.232C1280.75 472.232 1279.99 472.808 1279.99 474.392V475.52H1283.42V477.176H1279.99V488H1277.95V477.176H1276.51V475.52H1277.95V474.152ZM1291.05 488.24C1287.81 488.24 1284.57 485.936 1284.57 481.76C1284.57 477.584 1287.81 475.28 1291.05 475.28C1294.29 475.28 1297.53 477.584 1297.53 481.76C1297.53 485.936 1294.29 488.24 1291.05 488.24ZM1286.59 481.76C1286.59 484.712 1288.75 486.392 1291.05 486.392C1293.36 486.392 1295.52 484.712 1295.52 481.76C1295.52 478.808 1293.36 477.128 1291.05 477.128C1288.75 477.128 1286.59 478.808 1286.59 481.76ZM1299.78 488V475.52H1301.79V478.616C1302.25 476.816 1303.5 475.28 1305.8 475.28C1306.09 475.28 1306.33 475.304 1306.52 475.376V477.272C1306.3 477.224 1306.11 477.2 1305.82 477.2C1303.5 477.2 1301.79 478.952 1301.79 481.736V488H1299.78ZM1319.34 488L1312.58 470.96H1314.81L1320.38 485.336L1325.94 470.96H1328.18L1321.41 488H1319.34ZM1330.17 488V470.96H1332.24V488H1330.17ZM1335.07 488V470.96H1340.62C1344.29 470.96 1346.5 473.264 1346.5 476.504C1346.5 479.768 1344.29 482.072 1340.62 482.072H1337.14V488H1335.07ZM1337.14 480.128H1340.45C1342.85 480.128 1344.38 478.904 1344.38 476.504C1344.38 474.104 1342.85 472.88 1340.45 472.88H1337.14V480.128ZM1353.99 488V475.52H1356V478.616C1356.46 476.816 1357.71 475.28 1360.01 475.28C1360.3 475.28 1360.54 475.304 1360.73 475.376V477.272C1360.51 477.224 1360.32 477.2 1360.03 477.2C1357.71 477.2 1356 478.952 1356 481.736V488H1353.99ZM1368.42 488.24C1365.06 488.24 1362.01 485.912 1362.01 481.76C1362.01 477.56 1365.08 475.28 1368.23 475.28C1371.4 475.28 1374.71 477.56 1374.2 482.504H1363.93C1364.24 485.12 1366.24 486.512 1368.64 486.512C1370.1 486.512 1371.44 485.984 1372.36 485L1373.36 486.032C1372.24 487.424 1370.44 488.24 1368.42 488.24ZM1363.93 480.968H1372.43C1372.28 478.4 1370.34 477.032 1368.25 477.032C1366.19 477.032 1364.24 478.352 1363.93 480.968ZM1389.34 488L1385.43 477.968L1381.52 488H1379.65L1374.94 475.52H1376.98L1380.61 485.48L1384.47 475.52H1386.39L1390.26 485.48L1393.88 475.52H1395.92L1391.22 488H1389.34ZM1402.7 488.24C1399.68 488.24 1396.58 486.032 1396.58 481.76C1396.58 477.488 1399.68 475.28 1402.7 475.28C1405.03 475.28 1406.78 476.552 1407.38 477.872H1407.45V475.52H1409.47V488H1407.45V485.648H1407.38C1406.78 486.968 1405.03 488.24 1402.7 488.24ZM1398.6 481.76C1398.6 484.856 1400.83 486.392 1403.04 486.392C1405.29 486.392 1407.53 484.832 1407.53 481.76C1407.53 478.688 1405.29 477.128 1403.04 477.128C1400.83 477.128 1398.6 478.664 1398.6 481.76ZM1412.3 488V475.52H1414.31V478.616C1414.77 476.816 1416.02 475.28 1418.32 475.28C1418.61 475.28 1418.85 475.304 1419.04 475.376V477.272C1418.83 477.224 1418.63 477.2 1418.35 477.2C1416.02 477.2 1414.31 478.952 1414.31 481.736V488H1412.3ZM1433.21 488H1431.2V485.648H1431.12C1430.52 486.968 1428.77 488.24 1426.44 488.24C1423.42 488.24 1420.32 486.032 1420.32 481.76C1420.32 477.488 1423.42 475.28 1426.44 475.28C1428.77 475.28 1430.52 476.552 1431.12 477.872H1431.2V470.96H1433.21V488ZM1422.34 481.76C1422.34 484.856 1424.57 486.392 1426.78 486.392C1429.04 486.392 1431.27 484.832 1431.27 481.76C1431.27 478.688 1429.04 477.128 1426.78 477.128C1424.57 477.128 1422.34 478.664 1422.34 481.76ZM1439.71 488.24C1437.39 488.24 1435.71 486.992 1435.32 484.856L1437 484.4C1437.34 485.72 1438.32 486.56 1439.71 486.56C1440.89 486.56 1442.07 485.984 1442.07 484.616C1442.07 483.584 1441.35 483.056 1439.91 482.456L1438.78 482.024C1436.71 481.184 1435.85 479.96 1435.85 478.544C1435.85 476.576 1437.55 475.28 1439.71 475.28C1441.71 475.28 1443.19 476.384 1443.63 478.064L1442.02 478.544C1441.63 477.512 1440.89 476.936 1439.79 476.936C1438.71 476.936 1437.84 477.512 1437.84 478.568C1437.84 479.36 1438.35 479.984 1439.64 480.512L1440.65 480.92C1442.62 481.688 1444.06 482.552 1444.06 484.616C1444.06 487.088 1441.97 488.24 1439.71 488.24ZM1456.94 488.24C1453.91 488.24 1450.82 486.032 1450.82 481.76C1450.82 477.488 1453.91 475.28 1456.94 475.28C1459.26 475.28 1461.02 476.552 1461.62 477.872H1461.69V475.52H1463.7V488H1461.69V485.648H1461.62C1461.02 486.968 1459.26 488.24 1456.94 488.24ZM1452.83 481.76C1452.83 484.856 1455.06 486.392 1457.27 486.392C1459.53 486.392 1461.76 484.832 1461.76 481.76C1461.76 478.688 1459.53 477.128 1457.27 477.128C1455.06 477.128 1452.83 478.664 1452.83 481.76ZM1466.53 488V475.52H1468.55V477.56C1469.2 476.36 1470.57 475.28 1472.73 475.28C1475.34 475.28 1477.6 476.912 1477.6 480.656V488H1475.58V480.944C1475.58 478.424 1474.09 477.128 1472.1 477.128C1470.11 477.128 1468.55 478.424 1468.55 480.944V488H1466.53ZM1492.72 488H1490.7V485.648H1490.63C1490.03 486.968 1488.28 488.24 1485.95 488.24C1482.93 488.24 1479.83 486.032 1479.83 481.76C1479.83 477.488 1482.93 475.28 1485.95 475.28C1488.28 475.28 1490.03 476.552 1490.63 477.872H1490.7V470.96H1492.72V488ZM1481.85 481.76C1481.85 484.856 1484.08 486.392 1486.29 486.392C1488.54 486.392 1490.78 484.832 1490.78 481.76C1490.78 478.688 1488.54 477.128 1486.29 477.128C1484.08 477.128 1481.85 478.664 1481.85 481.76ZM1506.56 488.24C1503.32 488.24 1500.08 485.936 1500.08 481.76C1500.08 477.584 1503.32 475.28 1506.56 475.28C1508.72 475.28 1510.76 476.312 1511.89 478.352L1510.35 479.264C1509.56 477.92 1508.15 477.128 1506.59 477.128C1504.33 477.128 1502.1 478.808 1502.1 481.76C1502.1 484.712 1504.33 486.392 1506.59 486.392C1508.15 486.392 1509.56 485.6 1510.35 484.256L1511.89 485.168C1510.76 487.184 1508.72 488.24 1506.56 488.24ZM1519.44 488.24C1516.42 488.24 1513.32 486.032 1513.32 481.76C1513.32 477.488 1516.42 475.28 1519.44 475.28C1521.77 475.28 1523.52 476.552 1524.12 477.872H1524.2V475.52H1526.21V488H1524.2V485.648H1524.12C1523.52 486.968 1521.77 488.24 1519.44 488.24ZM1515.34 481.76C1515.34 484.856 1517.57 486.392 1519.78 486.392C1522.04 486.392 1524.27 484.832 1524.27 481.76C1524.27 478.688 1522.04 477.128 1519.78 477.128C1517.57 477.128 1515.34 478.664 1515.34 481.76ZM1529.04 488V475.52H1531.06V477.56C1531.71 476.36 1533.07 475.28 1535.23 475.28C1537.85 475.28 1540.11 476.912 1540.11 480.656V488H1538.09V480.944C1538.09 478.424 1536.6 477.128 1534.61 477.128C1532.62 477.128 1531.06 478.424 1531.06 480.944V488H1529.04ZM1088.42 501.96H1090.43V508.872H1090.5C1091.1 507.552 1092.86 506.28 1095.18 506.28C1098.21 506.28 1101.3 508.488 1101.3 512.76C1101.3 517.032 1098.21 519.24 1095.18 519.24C1092.86 519.24 1091.1 517.968 1090.5 516.648H1090.43V519H1088.42V501.96ZM1090.36 512.76C1090.36 515.832 1092.59 517.392 1094.85 517.392C1097.06 517.392 1099.29 515.856 1099.29 512.76C1099.29 509.664 1097.06 508.128 1094.85 508.128C1092.59 508.128 1090.36 509.688 1090.36 512.76ZM1109.34 519.24C1105.98 519.24 1102.93 516.912 1102.93 512.76C1102.93 508.56 1106.01 506.28 1109.15 506.28C1112.32 506.28 1115.63 508.56 1115.13 513.504H1104.85C1105.17 516.12 1107.16 517.512 1109.56 517.512C1111.02 517.512 1112.37 516.984 1113.28 516L1114.29 517.032C1113.16 518.424 1111.36 519.24 1109.34 519.24ZM1104.85 511.968H1113.35C1113.21 509.4 1111.26 508.032 1109.17 508.032C1107.11 508.032 1105.17 509.352 1104.85 511.968ZM1128.44 519.24C1125.2 519.24 1121.96 516.936 1121.96 512.76C1121.96 508.584 1125.2 506.28 1128.44 506.28C1130.6 506.28 1132.64 507.312 1133.77 509.352L1132.24 510.264C1131.44 508.92 1130.03 508.128 1128.47 508.128C1126.21 508.128 1123.98 509.808 1123.98 512.76C1123.98 515.712 1126.21 517.392 1128.47 517.392C1130.03 517.392 1131.44 516.6 1132.24 515.256L1133.77 516.168C1132.64 518.184 1130.6 519.24 1128.44 519.24ZM1135.99 519V501.96H1138.01V508.56C1138.66 507.36 1140.03 506.28 1142.19 506.28C1144.8 506.28 1147.06 507.912 1147.06 511.656V519H1145.04V511.944C1145.04 509.424 1143.55 508.128 1141.56 508.128C1139.57 508.128 1138.01 509.424 1138.01 511.944V519H1135.99ZM1155.41 519.24C1152.39 519.24 1149.29 517.032 1149.29 512.76C1149.29 508.488 1152.39 506.28 1155.41 506.28C1157.74 506.28 1159.49 507.552 1160.09 508.872H1160.16V506.52H1162.18V519H1160.16V516.648H1160.09C1159.49 517.968 1157.74 519.24 1155.41 519.24ZM1151.31 512.76C1151.31 515.856 1153.54 517.392 1155.75 517.392C1158 517.392 1160.24 515.832 1160.24 512.76C1160.24 509.688 1158 508.128 1155.75 508.128C1153.54 508.128 1151.31 509.664 1151.31 512.76ZM1165.01 519V506.52H1167.03V508.56C1167.67 507.36 1169.04 506.28 1171.2 506.28C1173.82 506.28 1176.07 507.912 1176.07 511.656V519H1174.06V511.944C1174.06 509.424 1172.57 508.128 1170.58 508.128C1168.59 508.128 1167.03 509.424 1167.03 511.944V519H1165.01ZM1184.91 523.992C1183.23 523.992 1181.84 523.56 1181.24 523.128V521.424C1181.81 521.808 1183.01 522.264 1184.6 522.264C1187.04 522.264 1189.18 521.16 1189.18 518.328V516.648H1189.06C1188.48 517.968 1186.73 519.24 1184.43 519.24C1181.43 519.24 1178.31 517.032 1178.31 512.76C1178.31 508.488 1181.43 506.28 1184.43 506.28C1186.73 506.28 1188.48 507.552 1189.06 508.872H1189.18V506.52H1191.2V518.304C1191.2 522.72 1187.79 523.992 1184.91 523.992ZM1180.32 512.76C1180.32 515.856 1182.56 517.392 1184.76 517.392C1187 517.392 1189.25 515.832 1189.25 512.76C1189.25 509.688 1187 508.128 1184.76 508.128C1182.56 508.128 1180.32 509.664 1180.32 512.76ZM1199.83 519.24C1196.47 519.24 1193.43 516.912 1193.43 512.76C1193.43 508.56 1196.5 506.28 1199.64 506.28C1202.81 506.28 1206.12 508.56 1205.62 513.504H1195.35C1195.66 516.12 1197.65 517.512 1200.05 517.512C1201.51 517.512 1202.86 516.984 1203.77 516L1204.78 517.032C1203.65 518.424 1201.85 519.24 1199.83 519.24ZM1195.35 511.968H1203.84C1203.7 509.4 1201.75 508.032 1199.67 508.032C1197.6 508.032 1195.66 509.352 1195.35 511.968ZM1220.21 519H1218.2V516.648H1218.12C1217.52 517.968 1215.77 519.24 1213.44 519.24C1210.42 519.24 1207.32 517.032 1207.32 512.76C1207.32 508.488 1210.42 506.28 1213.44 506.28C1215.77 506.28 1217.52 507.552 1218.12 508.872H1218.2V501.96H1220.21V519ZM1209.34 512.76C1209.34 515.856 1211.57 517.392 1213.78 517.392C1216.04 517.392 1218.27 515.832 1218.27 512.76C1218.27 509.688 1216.04 508.128 1213.78 508.128C1211.57 508.128 1209.34 509.664 1209.34 512.76ZM1228.17 519V501.96H1230.19V519H1228.17ZM1238.55 519.24C1235.52 519.24 1232.43 517.032 1232.43 512.76C1232.43 508.488 1235.52 506.28 1238.55 506.28C1240.87 506.28 1242.63 507.552 1243.23 508.872H1243.3V506.52H1245.31V519H1243.3V516.648H1243.23C1242.63 517.968 1240.87 519.24 1238.55 519.24ZM1234.44 512.76C1234.44 515.856 1236.67 517.392 1238.88 517.392C1241.14 517.392 1243.37 515.832 1243.37 512.76C1243.37 509.688 1241.14 508.128 1238.88 508.128C1236.67 508.128 1234.44 509.664 1234.44 512.76ZM1252.01 519.144C1250.35 519.144 1249.22 518.328 1249.22 516.456V508.176H1247.54V506.52H1249.22V503.328H1251.24V506.52H1253.71V508.176H1251.24V516.072C1251.24 516.84 1251.62 517.32 1252.56 517.32C1252.85 517.32 1253.23 517.272 1253.69 517.104V518.712C1253.25 519.048 1252.58 519.144 1252.01 519.144ZM1261.76 519.24C1258.4 519.24 1255.35 516.912 1255.35 512.76C1255.35 508.56 1258.42 506.28 1261.56 506.28C1264.73 506.28 1268.04 508.56 1267.54 513.504H1257.27C1257.58 516.12 1259.57 517.512 1261.97 517.512C1263.44 517.512 1264.78 516.984 1265.69 516L1266.7 517.032C1265.57 518.424 1263.77 519.24 1261.76 519.24ZM1257.27 511.968H1265.76C1265.62 509.4 1263.68 508.032 1261.59 508.032C1259.52 508.032 1257.58 509.352 1257.27 511.968ZM1269.85 519V506.52H1271.86V509.616C1272.32 507.816 1273.57 506.28 1275.87 506.28C1276.16 506.28 1276.4 506.304 1276.59 506.376V508.272C1276.37 508.224 1276.18 508.2 1275.89 508.2C1273.57 508.2 1271.86 509.952 1271.86 512.736V519H1269.85ZM1283.49 501.96H1285.5V508.872H1285.57C1286.17 507.552 1287.93 506.28 1290.25 506.28C1293.28 506.28 1296.37 508.488 1296.37 512.76C1296.37 517.032 1293.28 519.24 1290.25 519.24C1287.93 519.24 1286.17 517.968 1285.57 516.648H1285.5V519H1283.49V501.96ZM1285.43 512.76C1285.43 515.832 1287.66 517.392 1289.92 517.392C1292.13 517.392 1294.36 515.856 1294.36 512.76C1294.36 509.664 1292.13 508.128 1289.92 508.128C1287.66 508.128 1285.43 509.688 1285.43 512.76ZM1299.99 523.56L1302.06 518.88L1296.8 506.52H1298.89L1303.04 516.504L1307.19 506.52H1309.28L1303.98 519L1301.99 523.56H1299.99ZM1321.94 519.24C1318.91 519.24 1315.82 517.032 1315.82 512.76C1315.82 508.488 1318.91 506.28 1321.94 506.28C1324.26 506.28 1326.02 507.552 1326.62 508.872H1326.69V506.52H1328.7V519H1326.69V516.648H1326.62C1326.02 517.968 1324.26 519.24 1321.94 519.24ZM1317.83 512.76C1317.83 515.856 1320.06 517.392 1322.27 517.392C1324.53 517.392 1326.76 515.832 1326.76 512.76C1326.76 509.688 1324.53 508.128 1322.27 508.128C1320.06 508.128 1317.83 509.664 1317.83 512.76ZM1337.27 505.224C1337.27 502.176 1339.33 501.48 1340.75 501.48C1341.51 501.48 1342.23 501.648 1342.74 501.96V503.568C1342.28 503.328 1341.66 503.232 1341.23 503.232C1340.07 503.232 1339.31 503.808 1339.31 505.392V506.52H1346.48V519H1344.47V508.176H1339.31V519H1337.27V508.176H1335.83V506.52H1337.27V505.224ZM1344.47 503.832V501.96H1346.48V503.832H1344.47ZM1348.36 519L1353.19 512.616L1348.67 506.52H1351L1354.36 511.128L1357.72 506.52H1360.05L1355.51 512.616L1360.34 519H1357.96L1354.36 514.128L1350.74 519H1348.36ZM1366.99 519.24C1363.63 519.24 1360.58 516.912 1360.58 512.76C1360.58 508.56 1363.65 506.28 1366.8 506.28C1369.97 506.28 1373.28 508.56 1372.77 513.504H1362.5C1362.81 516.12 1364.81 517.512 1367.21 517.512C1368.67 517.512 1370.01 516.984 1370.93 516L1371.93 517.032C1370.81 518.424 1369.01 519.24 1366.99 519.24ZM1362.5 511.968H1371C1370.85 509.4 1368.91 508.032 1366.82 508.032C1364.76 508.032 1362.81 509.352 1362.5 511.968ZM1387.37 519H1385.35V516.648H1385.28C1384.68 517.968 1382.93 519.24 1380.6 519.24C1377.58 519.24 1374.48 517.032 1374.48 512.76C1374.48 508.488 1377.58 506.28 1380.6 506.28C1382.93 506.28 1384.68 507.552 1385.28 508.872H1385.35V501.96H1387.37V519ZM1376.5 512.76C1376.5 515.856 1378.73 517.392 1380.94 517.392C1383.19 517.392 1385.42 515.832 1385.42 512.76C1385.42 509.688 1383.19 508.128 1380.94 508.128C1378.73 508.128 1376.5 509.664 1376.5 512.76ZM1400.85 519.24C1397.83 519.24 1394.73 517.032 1394.73 512.76C1394.73 508.488 1397.83 506.28 1400.85 506.28C1403.18 506.28 1404.93 507.552 1405.53 508.872H1405.6V506.52H1407.62V519H1405.6V516.648H1405.53C1404.93 517.968 1403.18 519.24 1400.85 519.24ZM1396.75 512.76C1396.75 515.856 1398.98 517.392 1401.19 517.392C1403.44 517.392 1405.67 515.832 1405.67 512.76C1405.67 509.688 1403.44 508.128 1401.19 508.128C1398.98 508.128 1396.75 509.664 1396.75 512.76ZM1418.7 519V511.8C1418.7 509.52 1417.67 508.128 1415.68 508.128C1413.66 508.128 1412.46 509.52 1412.46 511.8V519H1410.45V506.52H1412.46V508.464C1413.06 507.312 1414.29 506.28 1416.28 506.28C1418.03 506.28 1419.47 507.072 1420.22 508.8C1420.82 507.528 1422.16 506.28 1424.46 506.28C1427.06 506.28 1428.98 507.936 1428.98 511.656V519H1426.96V511.8C1426.96 509.52 1425.93 508.128 1423.94 508.128C1421.92 508.128 1420.72 509.52 1420.72 511.8V519H1418.7ZM1437.68 519.24C1434.44 519.24 1431.2 516.936 1431.2 512.76C1431.2 508.584 1434.44 506.28 1437.68 506.28C1440.92 506.28 1444.16 508.584 1444.16 512.76C1444.16 516.936 1440.92 519.24 1437.68 519.24ZM1433.21 512.76C1433.21 515.712 1435.37 517.392 1437.68 517.392C1439.98 517.392 1442.14 515.712 1442.14 512.76C1442.14 509.808 1439.98 508.128 1437.68 508.128C1435.37 508.128 1433.21 509.808 1433.21 512.76ZM1457.46 506.52V519H1455.45V516.96C1454.8 518.16 1453.43 519.24 1451.27 519.24C1448.66 519.24 1446.4 517.608 1446.4 513.864V506.52H1448.42V513.576C1448.42 516.096 1449.9 517.392 1451.9 517.392C1453.89 517.392 1455.45 516.096 1455.45 513.576V506.52H1457.46ZM1460.3 519V506.52H1462.31V508.56C1462.96 507.36 1464.33 506.28 1466.49 506.28C1469.11 506.28 1471.36 507.912 1471.36 511.656V519H1469.35V511.944C1469.35 509.424 1467.86 508.128 1465.87 508.128C1463.87 508.128 1462.31 509.424 1462.31 511.944V519H1460.3ZM1477.71 519.144C1476.05 519.144 1474.93 518.328 1474.93 516.456V508.176H1473.25V506.52H1474.93V503.328H1476.94V506.52H1479.41V508.176H1476.94V516.072C1476.94 516.84 1477.33 517.32 1478.26 517.32C1478.55 517.32 1478.93 517.272 1479.39 517.104V518.712C1478.96 519.048 1478.29 519.144 1477.71 519.144Z" fill="black"/>
</svg>
